<svg width="84" height="84" viewBox="0 0 84 84" fill="none" xmlns="http://www.w3.org/2000/svg">
<g clip-path="url(#clip0_31_1095)">
<path d="M40.5595 0C38.6278 0 37.1995 1.59539 37.0584 3.48469C33.1151 3.98254 30.0804 6.14707 28.2088 8.95453C26.2401 11.9077 25.4225 15.389 25.3016 18.4898C25.0382 18.5657 24.8308 18.5919 24.3698 18.8541C23.6718 19.251 22.9356 20.0068 22.4962 21.0525C22.0567 22.0982 21.8399 23.4104 21.8399 25.2V26.5125L23.113 26.8308C23.113 26.8308 24.2633 27.0642 25.9087 27.3427C26.1066 28.4941 26.3457 29.5857 26.6437 30.7748C25.8663 31.7126 25.2464 32.9664 25.469 34.8272L25.4723 34.8305C25.7207 36.8951 26.2766 38.3614 27.0866 39.3947C27.5268 39.9562 28.0957 40.0146 28.6321 40.2872C28.93 42.0436 29.4525 43.8109 30.1874 45.278C30.61 46.1215 31.0607 46.8742 31.5295 47.5059C31.7381 47.7871 32.0398 47.9617 32.2612 48.1983C32.2723 50.2754 32.3126 51.9951 32.1332 54.1866C31.5849 55.5003 30.2938 56.583 28.2318 57.6122C26.0994 58.6765 23.3232 59.6187 20.5176 60.8245C17.712 62.0304 14.8473 63.5075 12.5638 65.8186C10.2803 68.1297 8.65445 71.3182 8.4032 75.4983L8.29492 77.28H36.6482C38.3957 80.2899 41.6451 82.32 45.3599 82.32H75.5999V82.2905C80.2689 81.9986 83.9999 78.1016 83.9999 73.3622V42C83.9999 41.5544 83.8229 41.1272 83.5078 40.8121C83.1928 40.4971 82.7655 40.32 82.3199 40.32H55.4465C55.4513 40.2903 55.4581 40.2611 55.4629 40.2314C55.9641 39.9594 56.5 39.9216 56.9132 39.3947C57.7229 38.3621 58.2798 36.8926 58.5276 34.8305C58.7498 32.9857 58.1435 31.7365 57.3759 30.7978C57.6825 29.8347 57.996 28.7086 58.2749 27.3164C59.8116 27.0516 60.8901 26.8308 60.8901 26.8308L62.1599 26.5092V25.2C62.1599 23.3962 61.9431 22.0759 61.5037 21.0262C61.0643 19.9766 60.325 19.2221 59.6202 18.8278C59.161 18.5709 58.9609 18.5469 58.6949 18.4734C58.5692 15.3694 57.7376 11.8965 55.7648 8.95125C53.8876 6.14874 50.8591 3.98759 46.9415 3.48797C46.8018 1.59717 45.3733 0 43.4404 0H40.5595ZM40.5595 3.36H43.4404C43.4675 3.36 43.6799 3.47547 43.6799 3.73734V4.67906C43.6499 4.86049 43.6499 5.04561 43.6799 5.22703V15.12C43.6768 15.3426 43.7179 15.5636 43.8009 15.7702C43.8839 15.9768 44.0072 16.1648 44.1635 16.3234C44.3198 16.4819 44.5061 16.6078 44.7115 16.6937C44.9169 16.7797 45.1373 16.8239 45.3599 16.8239C45.5826 16.8239 45.803 16.7797 46.0084 16.6937C46.2138 16.6078 46.4 16.4819 46.5564 16.3234C46.7127 16.1648 46.8359 15.9768 46.9189 15.7702C47.0019 15.5636 47.0431 15.3426 47.0399 15.12V7.06781C49.6141 7.55475 51.617 8.79797 52.9724 10.8216C54.636 13.3052 55.4399 16.6127 55.4399 19.2412C55.4399 19.7416 55.6553 20.3987 56.0437 20.8097C56.432 21.2207 56.8249 21.3668 57.0904 21.4594C57.6214 21.6446 57.8443 21.6823 57.9796 21.758C58.1149 21.8337 58.2156 21.8703 58.4062 22.3256C58.5056 22.5632 58.537 23.3207 58.6129 23.8252C58.2229 23.9096 57.6035 24.0355 56.8213 24.1697C56.6736 24.1723 56.5269 24.1943 56.3849 24.2353C53.7309 24.6666 49.1339 25.2 42.0098 25.2C35.0368 25.2 30.5149 24.6879 27.8282 24.2616C27.6808 24.2203 27.5285 24.1993 27.3754 24.1992C26.4804 24.0503 25.8169 23.9173 25.3902 23.8252C25.4657 23.3325 25.4951 22.5864 25.5937 22.3519C25.7842 21.8984 25.888 21.8584 26.0301 21.7777C26.1721 21.6969 26.3994 21.6523 26.9291 21.4594C27.194 21.3629 27.5849 21.213 27.966 20.8031C28.3471 20.3932 28.5599 19.7416 28.5599 19.2412C28.5599 16.609 29.3502 13.2997 31.0045 10.8183C32.3545 8.79314 34.3596 7.54912 36.9599 7.06453V15.12C36.9568 15.3426 36.9979 15.5636 37.0809 15.7702C37.1639 15.9768 37.2872 16.1648 37.4435 16.3234C37.5998 16.4819 37.7861 16.6078 37.9915 16.6937C38.1969 16.7797 38.4173 16.8239 38.6399 16.8239C38.8626 16.8239 39.083 16.7797 39.2884 16.6937C39.4938 16.6078 39.68 16.4819 39.8364 16.3234C39.9927 16.1648 40.1159 15.9768 40.1989 15.7702C40.2819 15.5636 40.3231 15.3426 40.3199 15.12V5.24344C40.3503 5.06094 40.3503 4.87468 40.3199 4.69219V3.73734C40.3199 3.47547 40.5357 3.36 40.5595 3.36ZM54.7738 27.8283C54.5222 28.9178 54.2481 29.8038 53.9732 30.6305L53.5499 31.9003L54.6951 32.5959C54.6226 32.552 55.3619 33.0315 55.1938 34.4269C54.9961 36.0764 54.5707 36.9356 54.2685 37.3209C53.9664 37.7062 53.8056 37.6874 53.7927 37.6884L52.408 37.8L52.2604 39.1847C52.2228 39.539 52.1149 39.9355 52.0307 40.32H48.7199C48.2744 40.32 47.8471 40.4971 47.532 40.8121C47.217 41.1272 47.04 41.5544 47.0399 42V72.24H37.1305C36.685 72.24 36.2577 72.4171 35.9427 72.7321C35.6276 73.0472 35.4506 73.4744 35.4505 73.92H12.1668C12.6406 71.5349 13.5304 69.6237 14.9559 68.1811C16.7459 66.3694 19.2014 65.0476 21.8432 63.9122C24.485 62.7767 27.2836 61.8396 29.7313 60.6178C32.179 59.3961 34.4151 57.8145 35.3751 55.2333L35.4538 55.0233L35.4735 54.8002C35.7285 51.9843 35.6343 50.0077 35.6343 47.5748V46.5577L34.732 46.0852C34.8837 46.1648 34.5437 45.9316 34.2266 45.5044C33.9096 45.0772 33.5383 44.4677 33.1898 43.7719C32.4926 42.3803 31.8929 40.6232 31.7395 39.1847L31.5918 37.8L30.2071 37.6884C30.1943 37.6874 30.0335 37.7064 29.7313 37.3209C29.4295 36.9359 29.0048 36.0767 28.806 34.4302V34.4269C28.6423 33.0365 29.3804 32.5486 29.308 32.5927L30.3745 31.9462L30.0595 30.7387C29.7689 29.6186 29.5599 28.7256 29.3868 27.848C32.5433 28.2228 36.7624 28.56 42.0098 28.56C47.3398 28.56 51.6075 28.2102 54.7738 27.8283ZM50.3999 43.68H80.6399V73.3622C80.6399 76.3783 78.3009 78.7859 75.3243 78.9337C72.6546 78.7897 70.5599 76.6285 70.5599 73.92C70.5599 73.4744 70.3829 73.0472 70.0678 72.7321C69.7528 72.4171 69.3255 72.24 68.8799 72.24H50.3999V43.68ZM65.5199 47.04L53.7599 53.76V68.88H77.2799V53.76L65.5199 47.04ZM65.5199 50.9053L73.9199 55.7747V58.8H70.5599V62.16H73.9199V65.52H57.1199V62.16H60.4799V58.8H57.1199V55.7747L65.5199 50.9053ZM63.8399 58.8V62.16H67.1999V58.8H63.8399ZM39.982 75.6H67.5412C67.8072 76.8526 68.3046 77.9789 69.0637 78.96H45.3599C42.9497 78.96 41.1667 77.4882 39.982 75.6Z" fill="url(#paint0_linear_31_1095)"/>
</g>
<defs>
<linearGradient id="paint0_linear_31_1095" x1="8.29492" y1="41.16" x2="83.9999" y2="41.16" gradientUnits="userSpaceOnUse">
<stop stop-color="#BF9455"/>
<stop offset="1" stop-color="#F5F2AA"/>
</linearGradient>
<clipPath id="clip0_31_1095">
<rect width="84" height="84" fill="white"/>
</clipPath>
</defs>
</svg>
