<svg width="13" height="13" viewBox="0 0 13 13" fill="none" xmlns="http://www.w3.org/2000/svg">
<path d="M0.00278984 6.555C0.00761555 6.58356 0.0148532 6.61211 0.0220914 6.63807C0.0872345 6.94699 0.345393 7.16504 0.639742 7.15726L10.8696 7.15725L6.98997 11.3315C6.83555 11.4925 6.77041 11.7287 6.81625 11.9545C6.85727 12.2037 7.02616 12.4036 7.25054 12.4737C7.47733 12.5438 7.7186 12.4711 7.87784 12.2868L12.7225 7.05342C12.7418 7.04044 12.7611 7.02746 12.7804 7.01188L12.819 6.97035C12.8335 6.95737 12.8456 6.94439 12.8577 6.92881C12.8577 6.92102 12.8577 6.91583 12.8577 6.90805C12.8963 6.86391 12.9276 6.81459 12.9542 6.76267C12.9542 6.75489 12.9542 6.74969 12.9542 6.74191C12.9614 6.72893 12.9686 6.71335 12.9735 6.70037C12.9735 6.69258 12.9735 6.68739 12.9735 6.6796C12.9807 6.65884 12.9879 6.63807 12.9928 6.6173C13.0024 6.54721 13.0024 6.47972 12.9928 6.40963C12.9928 6.39665 12.9928 6.38107 12.9928 6.36809C12.9807 6.31098 12.9614 6.25387 12.9349 6.20195C12.8938 6.11369 12.8335 6.03581 12.7611 5.97351L7.87784 0.698588C7.63174 0.433803 7.23606 0.433803 6.98997 0.698588C6.74387 0.963372 6.74387 1.3891 6.98997 1.65389L10.8696 5.82814L0.639742 5.82814C0.461203 5.82035 0.289901 5.89823 0.169266 6.03581C0.0462189 6.17599 -0.0140992 6.3655 0.00278984 6.555Z" fill="#1A1A1A"/>
</svg>
