<svg width="18" height="19" viewBox="0 0 18 19" fill="none" xmlns="http://www.w3.org/2000/svg">
<path d="M3.0001 0.5001C1.35508 0.5001 0.000100007 1.85508 0.000100007 3.5001C-0.00177404 3.63261 0.0227073 3.76417 0.072121 3.88714C0.121535 4.01011 0.194895 4.12203 0.28794 4.2164C0.380984 4.31077 0.491857 4.38571 0.614114 4.43686C0.736371 4.488 0.867575 4.51434 1.0001 4.51434C1.13263 4.51434 1.26383 4.488 1.38609 4.43686C1.50834 4.38571 1.61922 4.31077 1.71226 4.2164C1.8053 4.12203 1.87867 4.01011 1.92808 3.88714C1.97749 3.76417 2.00197 3.63261 2.0001 3.5001C2.0001 2.93612 2.43612 2.5001 3.0001 2.5001C3.13261 2.50197 3.26417 2.47749 3.38714 2.42808C3.51011 2.37867 3.62203 2.3053 3.7164 2.21226C3.81077 2.11922 3.88571 2.00834 3.93686 1.88609C3.988 1.76383 4.01434 1.63263 4.01434 1.5001C4.01434 1.36757 3.988 1.23637 3.93686 1.11411C3.88571 0.991857 3.81077 0.880984 3.7164 0.78794C3.62203 0.694895 3.51011 0.621535 3.38714 0.572121C3.26417 0.522707 3.13261 0.498226 3.0001 0.5001ZM6.0001 0.5001C5.86759 0.498226 5.73603 0.522707 5.61306 0.572121C5.49009 0.621535 5.37817 0.694895 5.2838 0.78794C5.18943 0.880984 5.11449 0.991857 5.06334 1.11411C5.0122 1.23637 4.98586 1.36757 4.98586 1.5001C4.98586 1.63263 5.0122 1.76383 5.06334 1.88609C5.11449 2.00834 5.18943 2.11922 5.2838 2.21226C5.37817 2.3053 5.49009 2.37867 5.61306 2.42808C5.73603 2.47749 5.86759 2.50197 6.0001 2.5001H7.5001C7.63261 2.50197 7.76417 2.47749 7.88714 2.42808C8.01011 2.37867 8.12203 2.3053 8.2164 2.21226C8.31077 2.11922 8.38571 2.00834 8.43686 1.88609C8.488 1.76383 8.51434 1.63263 8.51434 1.5001C8.51434 1.36757 8.488 1.23637 8.43686 1.11411C8.38571 0.991857 8.31077 0.880984 8.2164 0.78794C8.12203 0.694895 8.01011 0.621535 7.88714 0.572121C7.76417 0.522707 7.63261 0.498226 7.5001 0.5001H6.0001ZM10.5001 0.5001C10.3676 0.498226 10.236 0.522707 10.1131 0.572121C9.99009 0.621535 9.87817 0.694895 9.7838 0.78794C9.68943 0.880984 9.61449 0.991857 9.56334 1.11411C9.5122 1.23637 9.48586 1.36757 9.48586 1.5001C9.48586 1.63263 9.5122 1.76383 9.56334 1.88609C9.61449 2.00834 9.68943 2.11922 9.7838 2.21226C9.87817 2.3053 9.99009 2.37867 10.1131 2.42808C10.236 2.47749 10.3676 2.50197 10.5001 2.5001H12.0001C12.1326 2.50197 12.2642 2.47749 12.3871 2.42808C12.5101 2.37867 12.622 2.3053 12.7164 2.21226C12.8108 2.11922 12.8857 2.00834 12.9369 1.88609C12.988 1.76383 13.0143 1.63263 13.0143 1.5001C13.0143 1.36757 12.988 1.23637 12.9369 1.11411C12.8857 0.991857 12.8108 0.880984 12.7164 0.78794C12.622 0.694895 12.5101 0.621535 12.3871 0.572121C12.2642 0.522707 12.1326 0.498226 12.0001 0.5001H10.5001ZM15.0001 0.5001C14.8676 0.498226 14.736 0.522707 14.6131 0.572121C14.4901 0.621535 14.3782 0.694895 14.2838 0.78794C14.1894 0.880984 14.1145 0.991857 14.0633 1.11411C14.0122 1.23637 13.9859 1.36757 13.9859 1.5001C13.9859 1.63263 14.0122 1.76383 14.0633 1.88609C14.1145 2.00834 14.1894 2.11922 14.2838 2.21226C14.3782 2.3053 14.4901 2.37867 14.6131 2.42808C14.736 2.47749 14.8676 2.50197 15.0001 2.5001C15.5641 2.5001 16.0001 2.93612 16.0001 3.5001C15.9982 3.63261 16.0227 3.76417 16.0721 3.88714C16.1215 4.01011 16.1949 4.12203 16.2879 4.2164C16.381 4.31077 16.4919 4.38571 16.6141 4.43686C16.7364 4.488 16.8676 4.51434 17.0001 4.51434C17.1326 4.51434 17.2638 4.488 17.3861 4.43686C17.5083 4.38571 17.6192 4.31077 17.7123 4.2164C17.8053 4.12203 17.8787 4.01011 17.9281 3.88714C17.9775 3.76417 18.002 3.63261 18.0001 3.5001C18.0001 1.85508 16.6451 0.5001 15.0001 0.5001ZM0.985452 5.48643C0.720406 5.49031 0.467744 5.59926 0.282982 5.78933C0.0982206 5.9794 -0.00352568 6.23505 0.000100007 6.5001V8.0001C-0.00177404 8.13261 0.0227073 8.26417 0.072121 8.38714C0.121535 8.51011 0.194895 8.62203 0.28794 8.7164C0.380984 8.81077 0.491857 8.88571 0.614114 8.93686C0.736371 8.988 0.867575 9.01434 1.0001 9.01434C1.13263 9.01434 1.26383 8.988 1.38609 8.93686C1.50834 8.88571 1.61922 8.81077 1.71226 8.7164C1.8053 8.62203 1.87867 8.51011 1.92808 8.38714C1.97749 8.26417 2.00197 8.13261 2.0001 8.0001V6.5001C2.00193 6.36639 1.97693 6.23368 1.92657 6.1098C1.87622 5.98593 1.80153 5.87341 1.70693 5.7789C1.61233 5.6844 1.49974 5.60982 1.37582 5.55958C1.25189 5.50935 1.11916 5.48447 0.985452 5.48643ZM16.9855 5.48643C16.7204 5.49031 16.4677 5.59926 16.283 5.78933C16.0982 5.9794 15.9965 6.23505 16.0001 6.5001V8.0001C15.9982 8.13261 16.0227 8.26417 16.0721 8.38714C16.1215 8.51011 16.1949 8.62203 16.2879 8.7164C16.381 8.81077 16.4919 8.88571 16.6141 8.93686C16.7364 8.988 16.8676 9.01434 17.0001 9.01434C17.1326 9.01434 17.2638 8.988 17.3861 8.93686C17.5083 8.88571 17.6192 8.81077 17.7123 8.7164C17.8053 8.62203 17.8787 8.51011 17.9281 8.38714C17.9775 8.26417 18.002 8.13261 18.0001 8.0001V6.5001C18.0019 6.36639 17.9769 6.23368 17.9266 6.1098C17.8762 5.98593 17.8015 5.87341 17.7069 5.7789C17.6123 5.6844 17.4997 5.60982 17.3758 5.55958C17.2519 5.50935 17.1192 5.48447 16.9855 5.48643ZM0.985452 9.98643C0.720406 9.99031 0.467744 10.0993 0.282982 10.2893C0.0982206 10.4794 -0.00352568 10.7351 0.000100007 11.0001V12.5001C-0.00177404 12.6326 0.0227073 12.7642 0.072121 12.8871C0.121535 13.0101 0.194895 13.122 0.28794 13.2164C0.380984 13.3108 0.491857 13.3857 0.614114 13.4369C0.736371 13.488 0.867575 13.5143 1.0001 13.5143C1.13263 13.5143 1.26383 13.488 1.38609 13.4369C1.50834 13.3857 1.61922 13.3108 1.71226 13.2164C1.8053 13.122 1.87867 13.0101 1.92808 12.8871C1.97749 12.7642 2.00197 12.6326 2.0001 12.5001V11.0001C2.00193 10.8664 1.97693 10.7337 1.92657 10.6098C1.87622 10.4859 1.80153 10.3734 1.70693 10.2789C1.61233 10.1844 1.49974 10.1098 1.37582 10.0596C1.25189 10.0093 1.11916 9.98447 0.985452 9.98643ZM16.9855 9.98643C16.7204 9.99031 16.4677 10.0993 16.283 10.2893C16.0982 10.4794 15.9965 10.7351 16.0001 11.0001V12.5001C15.9982 12.6326 16.0227 12.7642 16.0721 12.8871C16.1215 13.0101 16.1949 13.122 16.2879 13.2164C16.381 13.3108 16.4919 13.3857 16.6141 13.4369C16.7364 13.488 16.8676 13.5143 17.0001 13.5143C17.1326 13.5143 17.2638 13.488 17.3861 13.4369C17.5083 13.3857 17.6192 13.3108 17.7123 13.2164C17.8053 13.122 17.8787 13.0101 17.9281 12.8871C17.9775 12.7642 18.002 12.6326 18.0001 12.5001V11.0001C18.0019 10.8664 17.9769 10.7337 17.9266 10.6098C17.8762 10.4859 17.8015 10.3734 17.7069 10.2789C17.6123 10.1844 17.4997 10.1098 17.3758 10.0596C17.2519 10.0093 17.1192 9.98447 16.9855 9.98643ZM0.985452 14.4864C0.720406 14.4903 0.467744 14.5993 0.282982 14.7893C0.0982206 14.9794 -0.00352568 15.2351 0.000100007 15.5001C0.000100007 17.1451 1.35508 18.5001 3.0001 18.5001C3.13261 18.502 3.26417 18.4775 3.38714 18.4281C3.51011 18.3787 3.62203 18.3053 3.7164 18.2123C3.81077 18.1192 3.88571 18.0083 3.93686 17.8861C3.988 17.7638 4.01434 17.6326 4.01434 17.5001C4.01434 17.3676 3.988 17.2364 3.93686 17.1141C3.88571 16.9919 3.81077 16.881 3.7164 16.7879C3.62203 16.6949 3.51011 16.6215 3.38714 16.5721C3.26417 16.5227 3.13261 16.4982 3.0001 16.5001C2.43612 16.5001 2.0001 16.0641 2.0001 15.5001C2.00193 15.3664 1.97693 15.2337 1.92657 15.1098C1.87622 14.9859 1.80153 14.8734 1.70693 14.7789C1.61233 14.6844 1.49974 14.6098 1.37582 14.5596C1.25189 14.5093 1.11916 14.4845 0.985452 14.4864ZM16.9855 14.4864C16.7204 14.4903 16.4677 14.5993 16.283 14.7893C16.0982 14.9794 15.9965 15.2351 16.0001 15.5001C16.0001 16.0641 15.5641 16.5001 15.0001 16.5001C14.8676 16.4982 14.736 16.5227 14.6131 16.5721C14.4901 16.6215 14.3782 16.6949 14.2838 16.7879C14.1894 16.881 14.1145 16.9919 14.0633 17.1141C14.0122 17.2364 13.9859 17.3676 13.9859 17.5001C13.9859 17.6326 14.0122 17.7638 14.0633 17.8861C14.1145 18.0083 14.1894 18.1192 14.2838 18.2123C14.3782 18.3053 14.4901 18.3787 14.6131 18.4281C14.736 18.4775 14.8676 18.502 15.0001 18.5001C16.6451 18.5001 18.0001 17.1451 18.0001 15.5001C18.0019 15.3664 17.9769 15.2337 17.9266 15.1098C17.8762 14.9859 17.8015 14.8734 17.7069 14.7789C17.6123 14.6844 17.4997 14.6098 17.3758 14.5596C17.2519 14.5093 17.1192 14.4845 16.9855 14.4864ZM6.0001 16.5001C5.86759 16.4982 5.73603 16.5227 5.61306 16.5721C5.49009 16.6215 5.37817 16.6949 5.2838 16.7879C5.18943 16.881 5.11449 16.9919 5.06334 17.1141C5.0122 17.2364 4.98586 17.3676 4.98586 17.5001C4.98586 17.6326 5.0122 17.7638 5.06334 17.8861C5.11449 18.0083 5.18943 18.1192 5.2838 18.2123C5.37817 18.3053 5.49009 18.3787 5.61306 18.4281C5.73603 18.4775 5.86759 18.502 6.0001 18.5001H7.5001C7.63261 18.502 7.76417 18.4775 7.88714 18.4281C8.01011 18.3787 8.12203 18.3053 8.2164 18.2123C8.31077 18.1192 8.38571 18.0083 8.43686 17.8861C8.488 17.7638 8.51434 17.6326 8.51434 17.5001C8.51434 17.3676 8.488 17.2364 8.43686 17.1141C8.38571 16.9919 8.31077 16.881 8.2164 16.7879C8.12203 16.6949 8.01011 16.6215 7.88714 16.5721C7.76417 16.5227 7.63261 16.4982 7.5001 16.5001H6.0001ZM10.5001 16.5001C10.3676 16.4982 10.236 16.5227 10.1131 16.5721C9.99009 16.6215 9.87817 16.6949 9.7838 16.7879C9.68943 16.881 9.61449 16.9919 9.56334 17.1141C9.5122 17.2364 9.48586 17.3676 9.48586 17.5001C9.48586 17.6326 9.5122 17.7638 9.56334 17.8861C9.61449 18.0083 9.68943 18.1192 9.7838 18.2123C9.87817 18.3053 9.99009 18.3787 10.1131 18.4281C10.236 18.4775 10.3676 18.502 10.5001 18.5001H12.0001C12.1326 18.502 12.2642 18.4775 12.3871 18.4281C12.5101 18.3787 12.622 18.3053 12.7164 18.2123C12.8108 18.1192 12.8857 18.0083 12.9369 17.8861C12.988 17.7638 13.0143 17.6326 13.0143 17.5001C13.0143 17.3676 12.988 17.2364 12.9369 17.1141C12.8857 16.9919 12.8108 16.881 12.7164 16.7879C12.622 16.6949 12.5101 16.6215 12.3871 16.5721C12.2642 16.5227 12.1326 16.4982 12.0001 16.5001H10.5001Z" fill="#BF9455"/>
</svg>
