<svg width="74" height="79" viewBox="0 0 74 79" fill="none" xmlns="http://www.w3.org/2000/svg">
<path d="M36.9738 -0.0232326C36.5288 -0.0162767 36.1047 0.166944 35.7947 0.486218C35.4847 0.805492 35.3139 1.23473 35.32 1.67974V8.39974C35.3169 8.62236 35.358 8.84338 35.441 9.04997C35.5241 9.25656 35.6473 9.44458 35.8036 9.60312C35.9599 9.76167 36.1462 9.88756 36.3516 9.97349C36.557 10.0594 36.7774 10.1037 37 10.1037C37.2227 10.1037 37.4431 10.0594 37.6485 9.97349C37.8539 9.88756 38.0402 9.76167 38.1965 9.60312C38.3528 9.44458 38.476 9.25656 38.559 9.04997C38.6421 8.84338 38.6832 8.62236 38.68 8.39974V1.67974C38.6831 1.45497 38.6411 1.23187 38.5564 1.02365C38.4717 0.815432 38.346 0.626325 38.1869 0.467529C38.0278 0.308734 37.8385 0.183479 37.6301 0.0991808C37.4217 0.014883 37.1985 -0.0267431 36.9738 -0.0232326ZM12.0363 10.316C11.7021 10.3161 11.3755 10.4158 11.0983 10.6025C10.8211 10.7892 10.6058 11.0543 10.4801 11.3639C10.3543 11.6736 10.3237 12.0137 10.3923 12.3408C10.4608 12.6679 10.6254 12.9671 10.8649 13.2002L15.6161 17.9515C15.7709 18.1127 15.9564 18.2414 16.1615 18.3301C16.3667 18.4188 16.5875 18.4656 16.811 18.4679C17.0345 18.4701 17.2562 18.4278 17.4632 18.3433C17.6701 18.2588 17.8581 18.1339 18.0162 17.9758C18.1742 17.8178 18.2991 17.6298 18.3836 17.4229C18.4681 17.2159 18.5104 16.9942 18.5082 16.7707C18.5059 16.5472 18.4591 16.3264 18.3704 16.1212C18.2817 15.9161 18.153 15.7306 17.9918 15.5758L13.2405 10.8246C13.0839 10.6636 12.8967 10.5357 12.6899 10.4484C12.4831 10.361 12.2608 10.316 12.0363 10.316ZM61.9146 10.316C61.4781 10.329 61.0639 10.5114 60.7596 10.8246L56.0083 15.5758C55.8471 15.7306 55.7184 15.9161 55.6297 16.1212C55.541 16.3264 55.4942 16.5472 55.4919 16.7707C55.4896 16.9942 55.532 17.2159 55.6165 17.4229C55.701 17.6298 55.8259 17.8178 55.9839 17.9758C56.142 18.1339 56.33 18.2588 56.5369 18.3433C56.7438 18.4278 56.9656 18.4701 57.1891 18.4679C57.4126 18.4656 57.6334 18.4188 57.8386 18.3301C58.0437 18.2414 58.2291 18.1127 58.3839 17.9515L63.1352 13.2002C63.378 12.9642 63.5438 12.6604 63.6109 12.3286C63.678 11.9967 63.6434 11.6524 63.5114 11.3406C63.3795 11.0288 63.1564 10.7642 62.8715 10.5813C62.5865 10.3985 62.253 10.306 61.9146 10.316ZM37 13.4397C24.0298 13.4397 13.48 23.9895 13.48 36.9597C13.48 45.1786 17.1412 50.6993 20.6004 54.7605C22.3299 56.7911 24.0071 58.497 25.1711 60.0007C26.3352 61.5044 26.92 62.7141 26.92 63.8397V65.5197V70.2775C26.8901 70.459 26.8901 70.6441 26.92 70.8255V72.2397C26.92 75.0033 29.1965 77.2797 31.96 77.2797H33.2693C34.1917 78.3034 35.5134 78.9597 37 78.9597C38.4867 78.9597 39.8084 78.3034 40.7308 77.2797H42.04C44.8036 77.2797 47.08 75.0033 47.08 72.2397V70.8419C47.11 70.6605 47.11 70.4754 47.08 70.294V65.5197V63.8397C47.08 62.7141 47.6626 61.5185 48.8257 60.0269C49.9887 58.5354 51.6656 56.8453 53.3964 54.8229C56.8581 50.7781 60.52 45.2495 60.52 36.9597C60.52 23.9895 49.9703 13.4397 37 13.4397ZM37 16.7997C48.1546 16.7997 57.16 25.8052 57.16 36.9597C57.16 44.2856 54.1019 48.8304 50.8436 52.6376C49.2145 54.5411 47.5313 56.2196 46.1744 57.9597C45.182 59.2323 44.4945 60.6456 44.1072 62.1597H29.8961C29.5102 60.6419 28.8215 59.2254 27.8289 57.9433C26.473 56.1918 24.7902 54.496 23.1597 52.5818C19.8989 48.7533 16.84 44.2052 16.84 36.9597C16.84 25.8052 25.8455 16.7997 37 16.7997ZM1.72004 35.2797C1.49742 35.2766 1.27639 35.3177 1.06981 35.4007C0.863222 35.4837 0.675194 35.607 0.516653 35.7633C0.358112 35.9196 0.232219 36.1059 0.146291 36.3113C0.0603629 36.5167 0.0161133 36.7371 0.0161133 36.9597C0.0161133 37.1824 0.0603629 37.4028 0.146291 37.6082C0.232219 37.8136 0.358112 37.9999 0.516653 38.1562C0.675194 38.3125 0.863222 38.4357 1.06981 38.5187C1.27639 38.6018 1.49742 38.6429 1.72004 38.6397H8.44004C8.66266 38.6429 8.88369 38.6018 9.09027 38.5187C9.29686 38.4357 9.48489 38.3125 9.64343 38.1562C9.80197 37.9999 9.92786 37.8136 10.0138 37.6082C10.0997 37.4028 10.144 37.1824 10.144 36.9597C10.144 36.7371 10.0997 36.5167 10.0138 36.3113C9.92786 36.1059 9.80197 35.9196 9.64343 35.7633C9.48489 35.607 9.29686 35.4837 9.09027 35.4007C8.88369 35.3177 8.66266 35.2766 8.44004 35.2797H1.72004ZM65.56 35.2797C65.3374 35.2766 65.1164 35.3177 64.9098 35.4007C64.7032 35.4837 64.5152 35.607 64.3567 35.7633C64.1981 35.9196 64.0722 36.1059 63.9863 36.3113C63.9004 36.5167 63.8561 36.7371 63.8561 36.9597C63.8561 37.1824 63.9004 37.4028 63.9863 37.6082C64.0722 37.8136 64.1981 37.9999 64.3567 38.1562C64.5152 38.3125 64.7032 38.4357 64.9098 38.5187C65.1164 38.6018 65.3374 38.6429 65.56 38.6397H72.28C72.5027 38.6429 72.7237 38.6018 72.9303 38.5187C73.1369 38.4357 73.3249 38.3125 73.4834 38.1562C73.642 37.9999 73.7679 37.8136 73.8538 37.6082C73.9397 37.4028 73.984 37.1824 73.984 36.9597C73.984 36.7371 73.9397 36.5167 73.8538 36.3113C73.7679 36.1059 73.642 35.9196 73.4834 35.7633C73.3249 35.607 73.1369 35.4837 72.9303 35.4007C72.7237 35.3177 72.5027 35.2766 72.28 35.2797H65.56ZM16.7711 55.4594C16.3347 55.4724 15.9204 55.6548 15.6161 55.968L10.8649 60.7193C10.7037 60.8741 10.5749 61.0595 10.4863 61.2647C10.3976 61.4698 10.3507 61.6906 10.3485 61.9142C10.3462 62.1377 10.3885 62.3594 10.473 62.5663C10.5575 62.7732 10.6824 62.9612 10.8405 63.1193C10.9985 63.2773 11.1865 63.4023 11.3935 63.4867C11.6004 63.5712 11.8221 63.6136 12.0456 63.6113C12.2691 63.609 12.4899 63.5622 12.6951 63.4735C12.9003 63.3848 13.0857 63.2561 13.2405 63.0949L17.9918 58.3436C18.2345 58.1077 18.4003 57.8039 18.4675 57.472C18.5346 57.1402 18.4999 56.7958 18.368 56.484C18.236 56.1722 18.013 55.9076 17.728 55.7248C17.4431 55.5419 17.1095 55.4494 16.7711 55.4594ZM57.1764 55.4594C56.8425 55.4602 56.5164 55.5604 56.2397 55.7473C55.963 55.9342 55.7482 56.1994 55.6229 56.5089C55.4975 56.8184 55.4672 57.1582 55.5359 57.485C55.6045 57.8118 55.769 58.1107 56.0083 58.3436L60.7596 63.0949C60.9144 63.2561 61.0998 63.3848 61.305 63.4735C61.5101 63.5622 61.7309 63.609 61.9545 63.6113C62.178 63.6136 62.3997 63.5712 62.6066 63.4867C62.8135 63.4023 63.0015 63.2773 63.1596 63.1193C63.3176 62.9612 63.4426 62.7732 63.527 62.5663C63.6115 62.3594 63.6539 62.1377 63.6516 61.9142C63.6493 61.6906 63.6025 61.4698 63.5138 61.2647C63.4251 61.0595 63.2964 60.8741 63.1352 60.7193L58.3839 55.968C58.227 55.8067 58.0392 55.6785 57.8318 55.5912C57.6244 55.5038 57.4015 55.459 57.1764 55.4594ZM30.28 65.5197H43.72V68.8797H35.32C35.0974 68.8766 34.8764 68.9177 34.6698 69.0007C34.4632 69.0837 34.2752 69.207 34.1166 69.3633C33.9581 69.5196 33.8322 69.7059 33.7463 69.9113C33.6604 70.1167 33.6161 70.3371 33.6161 70.5597C33.6161 70.7824 33.6604 71.0028 33.7463 71.2082C33.8322 71.4136 33.9581 71.5999 34.1166 71.7562C34.2752 71.9125 34.4632 72.0357 34.6698 72.1187C34.8764 72.2018 35.0974 72.2429 35.32 72.2397H43.72C43.72 73.189 42.9893 73.9197 42.04 73.9197H31.96C31.0108 73.9197 30.28 73.189 30.28 72.2397C30.5027 72.2429 30.7237 72.2018 30.9303 72.1187C31.1369 72.0357 31.3249 71.9125 31.4834 71.7562C31.642 71.5999 31.7679 71.4136 31.8538 71.2082C31.9397 71.0028 31.984 70.7824 31.984 70.5597C31.984 70.3371 31.9397 70.1167 31.8538 69.9113C31.7679 69.7059 31.642 69.5196 31.4834 69.3633C31.3249 69.207 31.1369 69.0837 30.9303 69.0007C30.7237 68.9177 30.5027 68.8766 30.28 68.8797V65.5197Z" fill="url(#paint0_linear_31_1047)"/>
<defs>
<linearGradient id="paint0_linear_31_1047" x1="0.0161133" y1="39.4682" x2="73.984" y2="39.4682" gradientUnits="userSpaceOnUse">
<stop stop-color="#BF9455"/>
<stop offset="1" stop-color="#F5F2AA"/>
</linearGradient>
</defs>
</svg>
