<svg width="85" height="84" viewBox="0 0 85 84" fill="none" xmlns="http://www.w3.org/2000/svg">
<path d="M42.3333 5.04004C28.4357 5.04004 17.1333 16.3408 17.1333 30.24C17.1333 38.7387 20.3659 43.7882 23.4267 47.2993C24.9572 49.0548 26.4179 50.4635 27.4036 51.7486C28.3893 53.0338 28.8933 54.0856 28.8933 55.44V63.84V65.52V72.24C28.8933 75.0044 31.1689 77.28 33.9333 77.28H35.8561C36.612 80.1624 39.2251 82.32 42.3333 82.32C45.4415 82.32 48.0546 80.1624 48.8105 77.28H50.7333C53.4977 77.28 55.7733 75.0044 55.7733 72.24V65.52V63.84V55.44C55.7733 53.5423 56.332 52.2474 57.2991 50.8889C58.2662 49.5305 59.6866 48.1771 61.2071 46.5282C64.2479 43.2304 67.5333 38.5785 67.5333 30.24C67.5333 16.3408 56.2309 5.04004 42.3333 5.04004ZM42.3333 8.40004C54.4153 8.40004 64.1733 18.1564 64.1733 30.24C64.1733 37.7473 61.5787 41.1719 58.7396 44.251C57.32 45.7905 55.8004 47.2011 54.5625 48.9399C53.3247 50.6786 52.4133 52.8144 52.4133 55.44V63.84H32.2533V55.44C32.2533 53.1757 31.2873 51.2908 30.068 49.7011C28.8487 48.1115 27.3694 46.7078 25.9599 45.091C23.1407 41.8572 20.4933 37.9248 20.4933 30.24C20.4933 18.1564 30.2513 8.40004 42.3333 8.40004ZM49.0369 30.2171C48.5938 30.2275 48.1727 30.4127 47.8655 30.7322L42.3333 36.2644L36.8011 30.7322C36.6446 30.5713 36.4573 30.4434 36.2505 30.356C36.0437 30.2687 35.8214 30.2236 35.5969 30.2236C35.2627 30.2237 34.9361 30.3235 34.6589 30.5101C34.3817 30.6968 34.1664 30.9619 34.0407 31.2716C33.9149 31.5812 33.8843 31.9213 33.9529 32.2484C34.0214 32.5755 34.186 32.8748 34.4255 33.1079L40.6533 39.3357V60.48H44.0133V39.3357L50.2411 33.1079C50.4851 32.8732 50.6525 32.5704 50.7215 32.239C50.7904 31.9076 50.7577 31.5631 50.6275 31.2507C50.4973 30.9382 50.2758 30.6724 49.992 30.4879C49.7082 30.3035 49.3753 30.2091 49.0369 30.2171ZM32.2533 67.2H52.4133V72.24C52.4133 73.1717 51.6649 73.92 50.7333 73.92H47.6555C47.4741 73.8901 47.2889 73.8901 47.1075 73.92H37.5525C37.4582 73.9043 37.3627 73.8966 37.2671 73.8971C37.1857 73.8988 37.1045 73.9065 37.0242 73.92H33.9333C33.0017 73.92 32.2533 73.1717 32.2533 72.24V67.2ZM39.4294 77.28H45.2372C44.6602 78.2848 43.5889 78.96 42.3333 78.96C41.0777 78.96 40.0064 78.2848 39.4294 77.28Z" fill="url(#paint0_linear_31_658)"/>
<defs>
<linearGradient id="paint0_linear_31_658" x1="17.1333" y1="43.68" x2="67.5333" y2="43.68" gradientUnits="userSpaceOnUse">
<stop stop-color="#BF9455"/>
<stop offset="1" stop-color="#F5F2AA"/>
</linearGradient>
</defs>
</svg>
