<svg width="17" height="17" viewBox="0 0 17 17" fill="none" xmlns="http://www.w3.org/2000/svg">
<path d="M4.65806 12.3129C7.308 14.9585 10.5265 17 13.1581 17C14.3409 17 15.3771 16.5881 16.2115 15.6726C16.6974 15.1324 17 14.5008 17 13.8783C17 13.4206 16.8258 12.9812 16.3949 12.6699L13.5799 10.6742C13.1489 10.3812 12.7913 10.2348 12.4612 10.2348C12.0486 10.2348 11.6726 10.4729 11.2509 10.8848L10.5998 11.5255C10.499 11.6262 10.3706 11.6721 10.2514 11.6721C10.1138 11.6721 9.9763 11.6171 9.8846 11.5713C9.3161 11.2692 8.34415 10.4361 7.43637 9.53905C6.53778 8.6419 5.70337 7.67152 5.40994 7.10393C5.3641 7.00323 5.30908 6.87507 5.30908 6.73775C5.30908 6.61874 5.34576 6.49973 5.44661 6.39903L6.09765 5.73076C6.5011 5.30964 6.74868 4.94346 6.74868 4.52235C6.74868 4.19278 6.59279 3.83575 6.29021 3.4055L4.31879 0.631664C3.99785 0.192246 3.54855 0 3.05341 0C2.44823 0 1.82471 0.274637 1.28372 0.796442C0.394284 1.64782 0 2.7006 0 3.86323C0 6.49058 2.0081 9.67636 4.65806 12.3129Z" fill="#FBF5F6"/>
</svg>
