<svg width="84" height="84" viewBox="0 0 84 84" fill="none" xmlns="http://www.w3.org/2000/svg">
<path d="M16.7999 3.36035V6.72035H8.3999V50.4003H28.5599V47.0404H11.7599V10.0804H20.1599V6.72035H31.9199V10.0804H40.3199V16.8004H43.6799V6.72035H35.2799V3.36035H16.7999ZM15.1199 13.4404V16.8004H20.1599V13.4404H15.1199ZM23.5199 13.4404V16.8004H28.5599V13.4404H23.5199ZM31.9199 13.4404V16.8004H36.9599V13.4404H31.9199ZM15.1199 20.1604V23.5204H20.1599V20.1604H15.1199ZM23.5199 20.1604V23.5204H28.5599V20.1604H23.5199ZM40.3199 20.1604V23.5204H31.9199V80.6404H75.5999V23.5204H67.1999V20.1604H40.3199ZM43.6799 23.5204H63.8399V26.8804H72.2399V77.2803H35.2799V26.8804H43.6799V23.5204ZM15.1199 26.8804V30.2404H20.1599V26.8804H15.1199ZM23.5199 26.8804V30.2404H28.5599V26.8804H23.5199ZM38.6399 30.2404V33.6004H43.6799V30.2404H38.6399ZM47.0399 30.2404V33.6004H52.0799V30.2404H47.0399ZM55.4399 30.2404V33.6004H60.4799V30.2404H55.4399ZM63.8399 30.2404V33.6004H68.8799V30.2404H63.8399ZM15.1199 33.6004V36.9604H20.1599V33.6004H15.1199ZM23.5199 33.6004V36.9604H28.5599V33.6004H23.5199ZM38.6399 36.9604V40.3204H43.6799V36.9604H38.6399ZM47.0399 36.9604V40.3204H52.0799V36.9604H47.0399ZM55.4399 36.9604V40.3204H60.4799V36.9604H55.4399ZM63.8399 36.9604V40.3204H68.8799V36.9604H63.8399ZM15.1199 40.3204V43.6804H20.1599V40.3204H15.1199ZM23.5199 40.3204V43.6804H28.5599V40.3204H23.5199ZM38.6399 43.6804V47.0404H43.6799V43.6804H38.6399ZM47.0399 43.6804V47.0404H52.0799V43.6804H47.0399ZM55.4399 43.6804V47.0404H60.4799V43.6804H55.4399ZM63.8399 43.6804V47.0404H68.8799V43.6804H63.8399ZM38.6399 50.4003V53.7603H43.6799V50.4003H38.6399ZM47.0399 50.4003V53.7603H52.0799V50.4003H47.0399ZM55.4399 50.4003V53.7603H60.4799V50.4003H55.4399ZM63.8399 50.4003V53.7603H68.8799V50.4003H63.8399ZM38.6399 57.1203V60.4804H43.6799V57.1203H38.6399ZM47.0399 57.1203V60.4804H52.0799V57.1203H47.0399ZM55.4399 57.1203V60.4804H60.4799V57.1203H55.4399ZM63.8399 57.1203V60.4804H68.8799V57.1203H63.8399ZM38.6399 63.8404V67.2003H43.6799V63.8404H38.6399ZM47.0399 63.8404V67.2003H52.0799V63.8404H47.0399ZM55.4399 63.8404V67.2003H60.4799V63.8404H55.4399ZM63.8399 63.8404V67.2003H68.8799V63.8404H63.8399ZM38.6399 70.5603V73.9203H43.6799V70.5603H38.6399ZM47.0399 70.5603V73.9203H52.0799V70.5603H47.0399ZM55.4399 70.5603V73.9203H60.4799V70.5603H55.4399ZM63.8399 70.5603V73.9203H68.8799V70.5603H63.8399Z" fill="url(#paint0_linear_31_1261)"/>
<defs>
<linearGradient id="paint0_linear_31_1261" x1="8.3999" y1="42.0004" x2="75.5999" y2="42.0004" gradientUnits="userSpaceOnUse">
<stop stop-color="#BF9455"/>
<stop offset="1" stop-color="#F5F2AA"/>
</linearGradient>
</defs>
</svg>
