<svg width="165" height="46" viewBox="0 0 165 46" fill="none" xmlns="http://www.w3.org/2000/svg">
<g id="Vector">
<path fill-rule="evenodd" clip-rule="evenodd" d="M0.0472089 0.0930172C0.0867726 0.170953 4.80397 8.96798 14.7385 27.4905C15.7524 29.3809 16.5893 30.9269 16.5983 30.9262C16.6231 30.9241 21.775 22.5479 21.787 22.4902C21.7928 22.4625 19.7766 18.6306 17.3066 13.9749C14.8367 9.31921 12.1605 4.27402 11.3596 2.76341L9.90345 0.016846L0 0L0.0472089 0.0930172ZM29.9044 18.2857C24.4205 28.3427 19.9009 36.6325 19.8607 36.7075L19.7876 36.8439L22.2325 41.4016C23.5772 43.9084 24.6936 45.9775 24.7135 45.9998C24.7504 46.0411 27.9602 40.1466 46.082 6.75841C49.4937 0.472709 49.726 0.0430794 49.726 0.0209404C49.726 0.00952135 47.5095 0.000200148 44.8005 0.000200148H39.8749L29.9044 18.2857Z" fill="url(#paint0_linear_0_171)"/>
<path fill-rule="evenodd" clip-rule="evenodd" d="M68.6089 0.0930172C68.6484 0.170953 73.3656 8.96798 83.3002 27.4905C84.3141 29.3809 85.151 30.9269 85.16 30.9262C85.1848 30.9241 90.3366 22.5479 90.3487 22.4902C90.3544 22.4625 88.3383 18.6306 85.8683 13.9749C83.3983 9.31921 80.7222 4.27402 79.9213 2.76341L78.4651 0.016846L68.5616 0L68.6089 0.0930172ZM98.466 18.2857C92.9822 28.3427 88.4625 36.6325 88.4223 36.7075L88.3492 36.8439L90.7941 41.4016C92.1388 43.9084 93.2552 45.9775 93.2751 45.9998C93.3121 46.0411 96.5219 40.1466 114.644 6.75841C118.055 0.472709 118.288 0.0430794 118.288 0.0209404C118.288 0.00952135 116.071 0.000200148 113.362 0.000200148H108.437L98.466 18.2857Z" fill="url(#paint1_linear_0_171)"/>
<path d="M55 11.3115H64.0411V46H55V11.3115Z" fill="url(#paint2_linear_0_171)"/>
<path d="M55 0H64.0411V7.54098H55V0Z" fill="url(#paint3_linear_0_171)"/>
<path d="M150.18 1.53242C147.536 0.543216 144.656 0 141.644 0C128.745 0 118.288 9.95983 118.288 22.2459C118.288 29.6348 122.07 36.1824 127.891 40.2281L132.665 31.9399C129.848 29.5712 128.072 26.1062 128.072 22.2459C128.072 15.1065 134.148 9.31884 141.644 9.31884C142.949 9.31884 144.211 9.49424 145.405 9.82164L150.18 1.53242Z" fill="url(#paint4_linear_0_171)"/>
<path d="M138.531 34.8315C139.531 35.0548 140.573 35.173 141.644 35.173C149.14 35.173 155.216 29.3853 155.216 22.2459C155.216 18.6153 153.645 15.3343 151.114 12.9862L155.922 4.63956C161.444 8.70826 165 15.0816 165 22.2459C165 34.532 154.543 44.4918 141.644 44.4918C138.863 44.4918 136.196 44.029 133.723 43.1798L138.531 34.8315Z" fill="url(#paint5_linear_0_171)"/>
</g>
<defs>
<linearGradient id="paint0_linear_0_171" x1="0" y1="23" x2="165" y2="23" gradientUnits="userSpaceOnUse">
<stop stop-color="#BF9455"/>
<stop offset="1" stop-color="#F5F2AA"/>
</linearGradient>
<linearGradient id="paint1_linear_0_171" x1="0" y1="23" x2="165" y2="23" gradientUnits="userSpaceOnUse">
<stop stop-color="#BF9455"/>
<stop offset="1" stop-color="#F5F2AA"/>
</linearGradient>
<linearGradient id="paint2_linear_0_171" x1="0" y1="23" x2="165" y2="23" gradientUnits="userSpaceOnUse">
<stop stop-color="#BF9455"/>
<stop offset="1" stop-color="#F5F2AA"/>
</linearGradient>
<linearGradient id="paint3_linear_0_171" x1="0" y1="23" x2="165" y2="23" gradientUnits="userSpaceOnUse">
<stop stop-color="#BF9455"/>
<stop offset="1" stop-color="#F5F2AA"/>
</linearGradient>
<linearGradient id="paint4_linear_0_171" x1="0" y1="23" x2="165" y2="23" gradientUnits="userSpaceOnUse">
<stop stop-color="#BF9455"/>
<stop offset="1" stop-color="#F5F2AA"/>
</linearGradient>
<linearGradient id="paint5_linear_0_171" x1="0" y1="23" x2="165" y2="23" gradientUnits="userSpaceOnUse">
<stop stop-color="#BF9455"/>
<stop offset="1" stop-color="#F5F2AA"/>
</linearGradient>
</defs>
</svg>
