<svg width="130" height="130" viewBox="0 0 130 130" fill="none" xmlns="http://www.w3.org/2000/svg">
<g clip-path="url(#clip0_229_1430)">
<path d="M129.923 65.0003C129.923 100.854 100.853 129.923 64.9993 129.923C29.1455 129.923 0.0761719 100.854 0.0761719 65.0003C0.0761719 29.1465 29.1455 0.0771484 64.9993 0.0771484C100.853 0.0771484 129.923 29.1465 129.923 65.0003Z" fill="url(#paint0_linear_229_1430)"/>
<path opacity="0.05" d="M91.5276 39.5889L58.5076 72.6089L41.7185 55.8197C39.1833 53.2845 35.0736 53.2845 32.5384 55.8197L27.9483 60.4098C25.4131 62.945 25.4131 67.0547 27.9483 69.5899L53.9176 95.5592C56.4528 98.0945 60.5625 98.0945 63.0977 95.5592L105.298 53.3591C107.833 50.8239 107.833 46.7143 105.298 44.179L100.708 39.5889C98.1725 37.0537 94.0628 37.0537 91.5276 39.5889Z" fill="white"/>
<path d="M55.0639 94.4134L29.0947 68.4442C27.1924 66.5419 27.1924 63.4581 29.0947 61.5591L33.6847 56.969C35.587 55.0668 38.6708 55.0668 40.5698 56.969L58.5081 74.904L92.6739 40.7382C94.5762 38.836 97.66 38.836 99.559 40.7382L104.149 45.3283C106.051 47.2305 106.051 50.3144 104.149 52.2134L61.949 94.4134C60.05 96.3125 56.9662 96.3125 55.0639 94.4134Z" fill="#1A1A1A"/>
</g>
<defs>
<linearGradient id="paint0_linear_229_1430" x1="0.0761719" y1="65.0003" x2="129.923" y2="65.0003" gradientUnits="userSpaceOnUse">
<stop stop-color="#BF9455"/>
<stop offset="1" stop-color="#F5F2AA"/>
</linearGradient>
<clipPath id="clip0_229_1430">
<rect width="130" height="130" fill="white"/>
</clipPath>
</defs>
</svg>
