<svg width="84" height="84" viewBox="0 0 84 84" fill="none" xmlns="http://www.w3.org/2000/svg">
<path d="M26.3549 6.71973C23.7102 6.71973 21.2558 8.1766 19.9499 10.4997L4.35738 38.2722C3.05145 40.5888 3.05145 43.4107 4.35738 45.7272L19.9499 73.4997C21.2558 75.8229 23.7102 77.2797 26.3549 77.2797H57.6449C60.2896 77.2797 62.7439 75.8229 64.0499 73.4997L79.6424 45.7272C80.9483 43.4107 80.9483 40.5888 79.6424 38.2722L64.0499 10.4997C62.7439 8.1766 60.2896 6.71973 57.6449 6.71973H26.3549ZM26.3549 10.0797H57.6449C59.0624 10.0797 60.3814 10.8344 61.1099 12.1272L65.6249 20.1597H29.3999L28.9274 20.9997L18.7424 38.6397L13.2824 29.1897L22.8899 12.1272C23.6183 10.8344 24.9374 10.0797 26.3549 10.0797ZM31.3424 23.5197H52.6574L63.3674 41.9997L57.3299 52.4472L52.6574 60.4797H31.3424L29.3999 57.1722L25.0424 49.6122L20.6324 41.9997L31.3424 23.5197ZM56.5424 23.5197H67.5149L76.7549 39.8997C77.4833 41.1925 77.4833 42.8069 76.7549 44.0997L61.1099 71.8722C60.3814 73.165 59.0624 73.9197 57.6449 73.9197H48.8249L54.5999 63.8397L55.0724 62.9997L66.7274 42.8397L67.1999 41.9997L66.7274 41.1597L56.5424 23.5197ZM41.9999 31.9197C36.4546 31.9197 31.9199 36.4544 31.9199 41.9997C31.9199 47.545 36.4546 52.0797 41.9999 52.0797C47.5452 52.0797 52.0799 47.545 52.0799 41.9997C52.0799 36.4544 47.5452 31.9197 41.9999 31.9197ZM11.3399 32.6022L16.7999 41.9997L17.2724 42.8397L26.5124 58.8522L28.9274 62.9997L29.3999 63.8397H50.7149L44.8874 73.9197H26.3549C24.9374 73.9197 23.6183 73.165 22.8899 71.8722L7.24488 44.0997C6.51645 42.8069 6.51645 41.1925 7.24488 39.8997L11.3399 32.6022ZM41.9999 35.2797C45.7339 35.2797 48.7199 38.2657 48.7199 41.9997C48.7199 45.7338 45.7339 48.7197 41.9999 48.7197C38.2658 48.7197 35.2799 45.7338 35.2799 41.9997C35.2799 38.2657 38.2658 35.2797 41.9999 35.2797Z" fill="url(#paint0_linear_31_1087)"/>
<defs>
<linearGradient id="paint0_linear_31_1087" x1="3.37793" y1="41.9997" x2="80.6218" y2="41.9997" gradientUnits="userSpaceOnUse">
<stop stop-color="#BF9455"/>
<stop offset="1" stop-color="#F5F2AA"/>
</linearGradient>
</defs>
</svg>
