<svg width="85" height="84" viewBox="0 0 85 84" fill="none" xmlns="http://www.w3.org/2000/svg">
<g clip-path="url(#clip0_31_664)">
<path d="M58.1737 6.90357C56.4632 7.00405 54.7607 7.44687 53.1698 8.24232L43.9166 12.7672H17.6699L2.7468 9.11842C2.58289 9.07684 2.41364 9.06025 2.24477 9.0692C1.84027 9.08947 1.45671 9.25518 1.16469 9.53581C0.872664 9.81644 0.691838 10.1931 0.655495 10.5965C0.619151 10.9999 0.729736 11.4028 0.966893 11.7311C1.20405 12.0594 1.55182 12.291 1.94618 12.3833L17.2631 16.1272H37.0424L22.6082 23.1851L22.7559 23.1228C20.3591 24.0216 19.6984 27.2442 21.4696 29.0487C26.4771 34.5769 34.4301 36.4145 41.436 33.649L51.3224 29.8494L71.7187 50.2423C73.263 51.7867 73.263 54.2203 71.7187 55.7647C70.1743 57.309 67.744 57.309 66.1996 55.7647C65.8825 55.4601 65.4585 55.2921 65.0189 55.2966C64.5792 55.301 64.1588 55.4777 63.8479 55.7886C63.537 56.0995 63.3604 56.5199 63.3559 56.9596C63.3514 57.3992 63.5195 57.8231 63.824 58.1403C65.3683 59.6846 65.3683 62.115 63.824 63.6594C62.2797 65.2037 59.846 65.2037 58.3017 63.6594L57.127 62.4847C56.8098 62.1801 56.3859 62.0121 55.9462 62.0165C55.5065 62.021 55.0861 62.1976 54.7752 62.5086C54.4643 62.8195 54.2877 63.2399 54.2832 63.6796C54.2787 64.1192 54.4468 64.5431 54.7513 64.8603C56.2957 66.4046 56.2957 68.835 54.7513 70.3794C53.207 71.9237 50.7733 71.9237 49.229 70.3794L48.0543 69.2047C47.7371 68.9001 47.3132 68.7321 46.8736 68.7366C46.4339 68.741 46.0135 68.9177 45.7026 69.2286C45.3917 69.5395 45.215 69.9599 45.2106 70.3996C45.2061 70.8392 45.3742 71.2631 45.6787 71.5803C47.223 73.1246 47.223 75.555 45.6787 77.0994C44.1343 78.6437 41.704 78.6437 40.1596 77.0994L38.0727 75.0092L39.3196 73.7623C41.7796 71.3024 41.7796 67.2973 39.3196 64.8373C38.0896 63.6073 36.4708 62.99 34.8538 62.99C34.8264 62.99 34.7992 62.9962 34.7718 62.9965C34.7922 61.3532 34.1844 59.7021 32.9343 58.452C31.7043 57.222 30.0888 56.6079 28.4718 56.6079C28.3806 56.6079 28.2906 56.6303 28.1995 56.6342C28.2727 54.9272 27.681 53.1987 26.3816 51.8994C25.1517 50.6694 23.5361 50.0553 21.9191 50.0553C21.828 50.0553 21.7379 50.0776 21.6468 50.0815C21.7194 48.3754 21.1277 46.6454 19.829 45.3467C18.599 44.1167 16.9835 43.5026 15.3665 43.5026C13.7495 43.5026 12.134 44.1167 10.904 45.3467L9.35852 46.8922L2.63524 45.7208C2.52495 45.6998 2.41282 45.6899 2.30055 45.6912C1.8787 45.6951 1.47374 45.8575 1.16612 46.1462C0.858505 46.4349 0.670752 46.8288 0.640167 47.2495C0.609581 47.6703 0.7384 48.0871 1.00103 48.4173C1.26366 48.7474 1.64088 48.9667 2.05774 49.0315L7.58008 49.9897C7.07473 52.063 7.6091 54.3401 9.22399 55.955C10.5225 57.2535 12.2505 57.8451 13.9556 57.7728C13.883 59.4789 14.4747 61.2089 15.7734 62.5076C17.0727 63.807 18.8012 64.3987 20.5082 64.3255C20.4349 66.0324 21.0267 67.7609 22.326 69.0603C23.5952 70.3295 25.2745 70.9317 26.9427 70.8912C26.9028 72.5497 27.4739 74.2049 28.7113 75.4423C30.4719 77.2029 33.0197 77.6816 35.2312 76.9222L37.784 79.475C40.6077 82.2986 45.2306 82.2986 48.0543 79.475C49.4213 78.108 50.0945 76.3162 50.1379 74.5137C52.5616 75.154 55.2369 74.6451 57.127 72.755C58.494 71.388 59.1672 69.5962 59.2106 67.7937C61.6334 68.4326 64.3103 67.9243 66.1996 66.035C67.8171 64.4175 68.3975 62.2249 68.1618 60.1025C70.2842 60.3381 72.4768 59.7578 74.0943 58.1403C75.8917 56.3429 76.5342 53.8175 76.0434 51.4892L77.0638 50.4687L83.2359 49.5401C83.6549 49.4808 84.0362 49.2655 84.3034 48.9372C84.5705 48.609 84.704 48.192 84.6771 47.7696C84.6501 47.3472 84.4648 46.9506 84.158 46.6589C83.8513 46.3673 83.4458 46.2022 83.0226 46.1965C82.9269 46.1961 82.8315 46.2037 82.7371 46.2195L75.4691 47.3089L74.4618 48.3162C74.3357 48.1679 74.2342 48.0066 74.0943 47.8667L53.429 27.2047C53.3447 27.1172 53.2512 27.039 53.1501 26.9717C52.9401 26.6483 52.6254 26.4068 52.2585 26.2879C51.8917 26.1691 51.4952 26.1799 51.1354 26.3187L40.2088 30.522L40.2023 30.5253C34.4581 32.7927 27.9909 31.2837 23.924 26.765L23.8945 26.7322L23.8616 26.6994C23.6456 26.4833 23.6562 26.3749 23.9371 26.2695L24.0126 26.24L44.7173 16.114C45.1073 16.0728 45.4707 15.8963 45.7443 15.6153L54.666 11.2512L54.6726 11.2479C57.7875 9.6905 61.429 9.98053 64.2768 11.9239L65.0446 12.8459L65.2349 12.9772C68.3171 15.0961 72.0566 15.6908 75.5413 14.7228L83.3376 13.0658C83.5589 13.0255 83.77 12.9412 83.9581 12.8178C84.1463 12.6945 84.3077 12.5346 84.4329 12.3477C84.5581 12.1608 84.6445 11.9506 84.687 11.7296C84.7294 11.5087 84.727 11.2815 84.68 11.0615C84.6329 10.8414 84.5422 10.6331 84.4131 10.4488C84.2841 10.2646 84.1193 10.1081 83.9286 9.98867C83.7379 9.86927 83.5252 9.78938 83.3031 9.75375C83.0809 9.71812 82.8539 9.72746 82.6354 9.78123L74.6915 11.4711L74.6423 11.4842C72.1225 12.1841 69.5293 11.7684 67.2627 10.257L66.4949 9.33498L66.3112 9.20701C64.3818 7.85643 62.1552 7.08579 59.8832 6.9167C59.3152 6.87443 58.7438 6.87008 58.1737 6.90357ZM15.3665 46.797C16.1015 46.797 16.8354 47.1043 17.4534 47.7223C18.6894 48.9584 18.6894 50.6633 17.4534 51.8994L15.7734 53.5794C14.5373 54.8154 12.8356 54.8154 11.5996 53.5794C10.5953 52.5751 10.4207 51.2643 11.0484 50.1439C11.368 49.9385 11.6086 49.6308 11.7309 49.2711L13.2796 47.7223C13.8976 47.1043 14.6315 46.797 15.3665 46.797ZM21.9191 53.3497C22.6542 53.3497 23.388 53.657 24.006 54.275C25.2421 55.511 25.2421 57.216 24.006 58.452L22.326 60.132C21.09 61.368 19.385 61.368 18.149 60.132C16.913 58.896 16.913 57.191 18.149 55.955L19.829 54.275C20.447 53.657 21.1841 53.3497 21.9191 53.3497ZM28.4718 59.9023C29.2068 59.9023 29.9407 60.2096 30.5587 60.8276C31.5561 61.825 31.7353 63.1248 31.1231 64.2401C30.8714 64.4258 30.619 64.6096 30.3913 64.8373L28.6818 66.5436L28.6556 66.5731C28.4724 66.7745 28.3275 66.9981 28.1732 67.2162C27.0451 67.8682 25.7166 67.6996 24.7016 66.6847C23.4656 65.4486 23.4656 63.7437 24.7016 62.5076L26.3816 60.8276C26.9997 60.2096 27.7368 59.9023 28.4718 59.9023ZM34.8538 66.2844C35.5889 66.2844 36.326 66.5949 36.944 67.213C38.18 68.449 38.18 70.1507 36.944 71.3867L35.264 73.0667C34.028 74.3027 32.323 74.3027 31.087 73.0667C30.2838 72.2635 30.1286 70.6905 30.7063 69.5065C30.8905 69.3598 31.0839 69.2307 31.2543 69.0603L32.9343 67.3803C33.162 67.1526 33.346 66.9003 33.5315 66.6486C33.9553 66.4152 34.4026 66.2844 34.8538 66.2844Z" fill="url(#paint0_linear_31_664)"/>
</g>
<defs>
<linearGradient id="paint0_linear_31_664" x1="0.635742" y1="44.237" x2="84.7171" y2="44.237" gradientUnits="userSpaceOnUse">
<stop stop-color="#BF9455"/>
<stop offset="1" stop-color="#F5F2AA"/>
</linearGradient>
<clipPath id="clip0_31_664">
<rect width="84" height="84" fill="white" transform="translate(0.666504)"/>
</clipPath>
</defs>
</svg>
