<svg width="24" height="25" viewBox="0 0 24 25" fill="none" xmlns="http://www.w3.org/2000/svg">
<path d="M12 2.5C7.313 2.5 3.5 6.313 3.5 11C3.5 13.018 4.2245 14.9765 5.5465 16.524C5.6975 16.6955 9.26 20.7435 10.45 21.878C10.8845 22.2925 11.442 22.5 12 22.5C12.558 22.5 13.1155 22.2925 13.5505 21.878C14.934 20.5585 18.3125 16.6855 18.4605 16.5155C19.7755 14.9765 20.5 13.018 20.5 11C20.5 6.313 16.687 2.5 12 2.5ZM12 13.5C10.6195 13.5 9.5 12.3805 9.5 11C9.5 9.6195 10.6195 8.5 12 8.5C13.3805 8.5 14.5 9.6195 14.5 11C14.5 12.3805 13.3805 13.5 12 13.5Z" fill="#BF9455"/>
</svg>
