<svg width="160" height="44" viewBox="0 0 160 44" fill="none" xmlns="http://www.w3.org/2000/svg">
<path fill-rule="evenodd" clip-rule="evenodd" d="M26.1609 0.141344C24.5903 0.501285 23.1502 1.5913 22.515 2.90097C22.2306 3.48746 22.2062 3.62976 22.2062 4.70715C22.2062 5.81361 22.2247 5.91463 22.5511 6.58156C23.1672 7.84093 24.2185 8.49863 25.621 8.50224C26.8716 8.50553 27.7053 8.05337 28.2642 7.06852C28.8758 5.99103 28.7904 4.95768 28.0326 4.26889C27.6392 3.91129 27.5815 3.88741 27.547 4.0677C27.5255 4.18029 27.5618 4.29043 27.6276 4.31251C28.0248 4.44579 28.2093 5.85605 27.9064 6.44531C27.2113 7.79785 25.0232 7.99724 23.6542 6.83284C21.9137 5.35264 22.6414 2.59111 25.0745 1.44199C25.7464 1.1246 25.8786 1.10094 27.1628 1.06751C27.9281 1.04756 28.9764 1.09309 29.5356 1.17055L30.5375 1.30924L30.5647 7.57936C30.5914 13.7406 30.5882 13.8528 30.3802 14.0423C30.2637 14.1483 30.1684 14.2754 30.1684 14.3248C30.1684 14.3741 30.6667 14.4144 31.2757 14.4144C32.4637 14.4144 32.5337 14.3753 32.1721 13.9128C31.9668 13.6502 31.9612 13.4823 31.9612 7.60875C31.9612 4.2899 31.9862 1.57453 32.0168 1.57453C32.0474 1.57453 32.8422 1.71428 33.7832 1.88502C37.2281 2.51025 38.483 2.52468 39.7252 1.95336C40.3677 1.65783 41.1461 0.981137 41.0707 0.783551C41.0313 0.679983 40.8635 0.73633 40.4314 0.998115C39.2631 1.70601 37.6665 1.70866 34.4395 1.00798C30.0756 0.0604844 27.6306 -0.195465 26.1609 0.141344ZM34.0704 5.52826C34.0704 5.6018 34.1653 5.7216 34.2813 5.79451C34.486 5.92312 34.4923 6.04197 34.4923 9.79928C34.4923 13.5302 34.4846 13.6794 34.2813 13.8839C34.1653 14.0006 34.0704 14.1438 34.0704 14.2022C34.0704 14.2662 34.5099 14.3083 35.1777 14.3083C36.35 14.3083 36.5075 14.2287 36.0741 13.8554C35.8769 13.6855 35.8632 13.5424 35.8632 11.6565V9.63926H39.5543V11.6565C39.5543 13.5424 39.5406 13.6855 39.3434 13.8554C38.9101 14.2287 39.0675 14.3083 40.2398 14.3083C40.9077 14.3083 41.3471 14.2662 41.3471 14.2022C41.3471 14.1438 41.2522 14.0006 41.1362 13.8839C40.933 13.6794 40.9253 13.5302 40.9253 9.81488C40.9253 6.0929 40.9327 5.95145 41.1362 5.76607C41.2522 5.66048 41.3471 5.53368 41.3471 5.48433C41.3471 5.43499 40.8488 5.39466 40.2398 5.39466C39.4199 5.39466 39.1325 5.42936 39.1325 5.52826C39.1325 5.6018 39.2274 5.7216 39.3434 5.79451C39.5391 5.91749 39.5543 6.04197 39.5543 7.51781V9.10868H35.8632V7.53341C35.8632 6.0929 35.8813 5.94169 36.0741 5.76607C36.1902 5.66048 36.2851 5.53368 36.2851 5.48433C36.2851 5.43499 35.7868 5.39466 35.1777 5.39466C34.3578 5.39466 34.0704 5.42936 34.0704 5.52826ZM42.0854 5.51893C42.0854 5.58726 42.1685 5.73561 42.2699 5.84841C42.4384 6.03581 42.4545 6.38344 42.4545 9.85149C42.4545 13.3195 42.4384 13.6672 42.2699 13.8546C41.871 14.2981 41.9366 14.3083 45.1922 14.3083H48.299L48.4256 13.8832C48.4952 13.6493 48.5203 13.426 48.4814 13.3868C48.4425 13.3475 48.2267 13.4195 48.002 13.5466C47.624 13.7604 47.4499 13.7777 45.683 13.7777H43.7727V9.2148H44.8637C45.8207 9.2148 45.9781 9.2409 46.1456 9.42703C46.4993 9.8204 46.6201 9.69879 46.6201 8.94951C46.6201 8.19015 46.49 8.07237 46.0928 8.472C45.9101 8.65589 45.7413 8.68423 44.8273 8.68423H43.7727V5.92524H45.4986C47.0647 5.92524 47.2493 5.94487 47.4926 6.13747C47.64 6.2542 47.8394 6.3497 47.9357 6.3497C48.1144 6.3497 48.1065 6.25823 47.8741 5.63342L47.7855 5.39466H44.9354C42.8279 5.39466 42.0854 5.42703 42.0854 5.51893ZM21.2702 9.52901L19.5961 9.5862L16.4738 18.9623C14.3368 25.3799 13.3219 28.291 13.2575 28.1882C13.2058 28.1058 11.5416 23.9582 9.55914 18.9714L5.95484 9.90455L0.850586 9.84767V10.1945C0.850586 10.4616 0.93295 10.6073 1.20947 10.8293C1.52226 11.0805 1.5829 11.21 1.6815 11.8374C1.74699 12.2545 1.86901 17.2338 1.97141 23.6692C2.15576 35.2608 2.15892 35.1068 1.73413 35.1068C1.65419 35.1068 1.5888 35.1784 1.5888 35.266C1.5888 35.4001 1.82904 35.4252 3.11797 35.4252C4.27929 35.4252 4.64714 35.3929 4.64714 35.2911C4.64714 35.2175 4.54136 35.11 4.41207 35.0524C4.24892 34.9797 4.15506 34.8179 4.10497 34.5232C4.06542 34.2897 3.98042 30.4219 3.9163 25.9279C3.85208 21.4339 3.77129 17.1124 3.7366 16.3245C3.69368 15.3484 3.70802 14.9258 3.78152 14.9981C3.8409 15.0564 5.25237 18.4229 6.91811 22.4792C8.58384 26.5354 10.4582 31.0957 11.0832 32.6131L12.2197 35.3721L14.3268 35.4324L14.5427 34.7125C14.6615 34.3166 15.7307 30.6739 16.9188 26.6176C20.5098 14.3566 20.696 13.7263 20.74 13.6804C20.7634 13.6561 20.8144 13.6683 20.8535 13.7077C20.9275 13.7822 21.1885 27.2024 21.1985 31.4539C21.2042 33.8737 21.2015 33.9053 20.9624 34.1313C20.8293 34.257 20.5326 34.4251 20.3033 34.5047C19.931 34.6338 19.8826 34.6911 19.8534 35.0372L19.8206 35.4252H25.7391V35.0175C25.7391 34.6345 25.7138 34.6022 25.3217 34.484C25.0921 34.4148 24.8792 34.3173 24.8485 34.2673C24.8022 34.1919 24.3687 12.4178 24.3682 10.1433L24.3681 9.42703L23.6563 9.44942C23.2648 9.46183 22.191 9.49759 21.2702 9.52901ZM85.7457 10.9726C85.7457 11.1441 85.8615 11.3427 86.059 11.51C86.2313 11.6559 86.4209 11.9512 86.4802 12.1663C86.5999 12.5999 86.6392 36.2092 86.5211 36.8029C86.4624 37.0988 86.3637 37.1861 85.8007 37.4403C85.0106 37.7969 84.3955 38.3204 84.1929 38.8083C84.0542 39.1423 84.0591 39.1871 84.2554 39.3847L84.4685 39.599L84.8887 39.217C85.5729 38.5951 86.4554 38.4646 87.9855 38.7592C88.9579 38.9464 90.2178 39.4183 92.7151 40.5306C97.3493 42.5947 99.4482 43.2842 102.514 43.7494C104.126 43.9941 106.778 44.076 108.092 43.9215C111.48 43.523 113.956 41.9802 115.207 39.4876C115.529 38.8474 115.543 38.7242 115.327 38.4432C115.184 38.2573 115.159 38.254 115.066 38.4092C113.46 41.0899 110.433 42.3719 106.574 42.0045C105.878 41.9383 104.866 41.7883 104.325 41.6713C102.321 41.2379 97.1037 39.6202 95.4166 38.9088C93.8761 38.2594 91.7855 37.6523 90.5178 37.4864L89.9641 37.414V11.9458L90.3332 11.5955C90.5688 11.3719 90.7023 11.1467 90.7023 10.9728V10.7004H85.7457V10.9726ZM66.707 22.8055C65.2046 26.545 63.9452 29.6235 63.9081 29.6465C63.8712 29.6694 62.5306 26.6694 60.9289 22.9798L58.0168 16.2714L56.3178 16.2885C55.3833 16.298 54.5967 16.3277 54.5699 16.3546C54.5431 16.3816 54.5941 20.3612 54.6835 25.1981C54.7727 30.0351 54.8457 34.2552 54.8456 34.5762V35.1599L56.2486 35.0873L56.1809 31.5157C56.0233 23.2049 55.9973 19.9913 56.089 20.1446C56.1413 20.2322 57.5309 23.6125 59.1767 27.6563L62.1691 35.0088L63.7242 34.9476L66.5543 27.4829C68.1109 23.3773 69.4046 19.998 69.4291 19.9733C69.4981 19.9039 69.6021 23.9238 69.6787 29.6154L69.7482 34.7885H71.4131C72.3289 34.7885 73.1047 34.7452 73.1371 34.6923C73.1696 34.6395 73.1254 30.7596 73.039 26.0705C72.9526 21.3814 72.8813 17.1987 72.8808 16.7755L72.8796 16.0061H69.4387L66.707 22.8055ZM42.9027 16.1894C42.3371 16.2096 41.8744 16.25 41.8744 16.2793C41.8744 16.3085 40.4982 20.5376 38.8161 25.6771C37.134 30.8168 35.7578 35.0671 35.7578 35.1223C35.7578 35.1784 36.069 35.2088 36.4652 35.1913L37.1727 35.1599L38.7773 30.2786L39.3504 30.2094C39.6656 30.1713 41.4992 30.1213 43.4251 30.0983L46.9268 30.0565L47.5289 31.7063C47.86 32.6135 48.2722 33.7325 48.4448 34.1927L48.7587 35.0296L50.487 34.9768C51.4376 34.9478 52.2378 34.9015 52.2652 34.874C52.2925 34.8464 50.7787 30.6257 48.9011 25.4946L45.4873 16.1653L44.7091 16.1591C44.2811 16.1556 43.4682 16.1692 42.9027 16.1894ZM99.3126 16.2124L98.2732 16.2714L95.6475 24.2831C94.2035 28.6895 92.8132 32.9514 92.5581 33.7539L92.0944 35.2129H93.5322L94.3464 32.7458C94.7941 31.3888 95.1788 30.2576 95.2012 30.2319C95.2237 30.2062 97.0324 30.152 99.2206 30.1112C102.346 30.0532 103.222 30.0657 103.305 30.1698C103.363 30.2427 103.79 31.3587 104.254 32.6498L105.098 34.9974L106.363 34.9886C107.059 34.9837 107.871 34.9486 108.168 34.9106L108.707 34.8415L107.635 31.9234C107.045 30.3184 105.502 26.1044 104.206 22.5587L101.85 16.1123L101.101 16.1329C100.689 16.1441 99.8842 16.18 99.3126 16.2124ZM114.589 26.2963L114.523 25.2101C114.486 24.6127 114.451 22.9974 114.444 21.6205C114.437 20.2436 114.4 18.4768 114.363 17.6942L114.295 16.2714L112.649 16.3076C111.744 16.3275 110.985 16.3618 110.963 16.384C110.914 16.4315 111.132 30.2254 111.226 33.1172L111.291 35.1068H114.675L114.546 28.5013L115.569 27.2943C116.132 26.6306 116.616 26.0889 116.645 26.0907C116.674 26.0924 117.956 28.0859 119.493 30.5207L122.288 34.9476L124.133 34.9091C125.148 34.8879 125.994 34.8562 126.013 34.8387C126.051 34.804 125.576 34.0123 121.663 27.5901C120.229 25.2359 119.079 23.2542 119.108 23.1863C119.137 23.1184 119.959 22.1297 120.935 20.9892C121.911 19.8488 123.245 18.2849 123.899 17.5139L125.09 16.1123L123.237 16.1152L114.589 26.2963ZM132.533 16.2286C130.221 16.2737 128.322 16.3257 128.312 16.344C128.267 16.4262 128.621 35.0946 128.668 35.1378C128.697 35.1643 130.643 35.1474 132.992 35.0999C135.341 35.0526 137.84 35.0109 138.546 35.0073L139.829 35.0007L139.943 34.4649C140.15 33.4925 140.563 33.5791 136.063 33.652L132.069 33.7166L132.005 33.1119C131.97 32.7792 131.934 31.1222 131.924 29.4297L131.907 26.3523L137.526 26.2958V24.8622L131.832 24.9444V23.6758C131.832 22.9782 131.8 21.3252 131.762 20.0026L131.693 17.5979L133.95 17.5976C135.192 17.5973 137.023 17.5661 138.019 17.5282L139.829 17.459L139.894 17.0775C139.93 16.8676 139.985 16.5645 140.017 16.4041L140.074 16.1123L138.405 16.1295C137.487 16.1389 134.844 16.1835 132.533 16.2286ZM145.722 16.1917C143.134 16.2172 142.677 16.2452 142.625 16.3815C142.564 16.5416 142.741 28.7668 142.864 32.9049L142.929 35.1068H146.312L146.162 26.6176L147.671 26.6189C149.949 26.6208 150.827 26.9294 152.027 28.1504C152.925 29.0635 153.241 29.6388 153.602 31.0214C154.382 34.0042 155.194 34.694 158.117 34.8578L159.357 34.9272V34.5395C159.357 34.18 159.334 34.1518 159.042 34.1518C158.308 34.1518 157.628 33.6597 157.352 32.9281C157.295 32.7787 157.18 32.0975 157.095 31.4144C157.011 30.7314 156.844 29.8547 156.724 29.4663C156.351 28.2554 155.217 26.964 154.005 26.3704C153.758 26.2496 153.559 26.1246 153.562 26.0925C153.565 26.0603 153.849 25.8997 154.193 25.7355C155.075 25.3152 155.878 24.5394 156.326 23.6756C157.535 21.341 156.918 18.656 154.847 17.2384C153.605 16.3884 152.316 16.0932 150.042 16.1371C149.336 16.1508 147.392 16.1754 145.722 16.1917ZM30.0382 16.2968L29.4333 16.335L29.4881 18.4255C29.5654 21.3818 29.7469 32.1358 29.7467 33.7539L29.7466 35.1068H33.2153L33.1652 33.2763C33.0889 30.4799 32.9102 19.6623 32.9102 17.8366L32.9104 16.2184L31.7767 16.2384C31.1531 16.2495 30.3708 16.2757 30.0382 16.2968ZM75.9643 16.2966L75.4106 16.3356L75.4086 17.5238C75.4045 19.9136 75.6312 33.5906 75.6873 34.3375L75.7451 35.1068H79.1017L79.0993 34.7619C79.098 34.5722 79.0278 30.7402 78.9433 26.2462C78.859 21.7523 78.7888 17.6576 78.7876 17.1469L78.7854 16.2184L77.6517 16.238C77.0281 16.2488 76.2689 16.2752 75.9643 16.2966ZM147.828 17.5941L146.055 17.6509L146.063 20.5691C146.068 22.1741 146.101 23.8574 146.138 24.3096L146.205 25.132L148.114 25.1298C150.257 25.1274 151.051 25.0053 151.8 24.5636C153.771 23.4014 153.976 19.8544 152.163 18.2926C151.391 17.6277 150.626 17.5045 147.828 17.5941ZM41.0566 23.2822C40.18 25.9629 39.4308 28.2877 39.3917 28.4481L39.3205 28.7399L41.9949 28.7294C43.4657 28.7236 45.0576 28.6878 45.5325 28.6498L46.3959 28.5808L44.6103 23.6995C43.6281 21.0148 42.7854 18.7259 42.7375 18.6132C42.6732 18.4619 42.233 19.6848 41.0566 23.2822ZM97.3582 23.5138C96.4661 26.2422 95.7127 28.5406 95.6841 28.6214C95.6403 28.745 96.182 28.7606 99.124 28.7203C101.045 28.694 102.648 28.6406 102.686 28.6016C102.762 28.526 99.1432 18.5529 99.0407 18.5529C99.0075 18.5529 98.2503 20.7852 97.3582 23.5138Z" fill="white"/>
</svg>
