<svg width="236" height="32" viewBox="0 0 236 32" fill="none" xmlns="http://www.w3.org/2000/svg">
<path d="M225.567 0.840298C224.638 0.907314 223.441 0.971106 222.907 0.982134L221.936 1.00199V2.99533L223.38 3.0715C225.297 3.17262 225.622 3.46444 225.83 5.26471C226.011 6.83865 226.016 26.7573 225.835 27.862C225.635 29.0845 225.415 29.2228 223.542 29.3053L221.936 29.3758V31.2016H235.785V29.3816L234.166 29.2964C232.799 29.2247 232.49 29.1543 232.182 28.8445L231.816 28.4777L231.726 0.662664L229.491 0.69066C228.262 0.706099 226.496 0.773452 225.567 0.840298Z" fill="white"/>
<path fill-rule="evenodd" clip-rule="evenodd" d="M210.327 9.55916C207.105 10.3433 204.681 12.9405 203.666 16.6956C203.362 17.8182 203.299 18.5076 203.301 20.6826C203.303 23.0528 203.349 23.4627 203.763 24.8356C204.343 26.7619 204.901 27.796 206.009 29.0021C207.012 30.0927 208.395 30.8996 209.963 31.3083C211.385 31.6792 214.068 31.6707 215.517 31.2906C218.057 30.6252 220.422 28.8107 221.57 26.6482L222.124 25.6028H219.617L219.144 26.2875C218.52 27.1928 216.915 28.3877 215.845 28.7449C215.249 28.9437 214.603 29.0124 213.742 28.9687C212.689 28.9154 212.387 28.8272 211.775 28.395C210.154 27.2508 209.304 25.3749 209.143 22.5913L209.053 21.0219H222.831L222.722 19.4526C222.352 14.1324 219.853 10.6621 215.608 9.57358C214.395 9.26225 211.579 9.25461 210.327 9.55916ZM209.153 17.3318C209.333 14.4685 210.124 12.4318 211.344 11.6847C212.017 11.2722 213.461 11.2407 214.259 11.621C214.949 11.9502 215.633 12.8205 216.034 13.8816C216.37 14.7708 216.7 16.882 216.7 18.1499V18.986H209.048L209.153 17.3318Z" fill="white"/>
<path d="M180.301 9.49366C179.001 9.55949 177.804 9.62261 177.641 9.63397C177.395 9.65111 177.345 9.82298 177.345 10.6499V11.645L178.543 11.7312C180.027 11.8377 180.56 12.187 180.837 13.2335C181.077 14.1427 181.133 27.04 180.901 28.0443C180.664 29.0684 180.416 29.216 178.787 29.3019L177.345 29.3779V31.2016H189.506V29.3828L188.549 29.2836C186.808 29.103 186.896 29.4647 186.839 22.2333L186.789 15.9888L187.824 14.9617C189.101 13.6945 190.246 13.0489 191.41 12.94C193.09 12.7829 194.038 13.7333 194.393 15.9325C194.61 17.2741 194.626 27.1224 194.413 28.0443C194.198 28.9729 193.919 29.1806 192.738 29.2881L191.702 29.3825V31.2016H203.694V29.3799L202.414 29.2975C200.258 29.1583 200.418 29.7639 200.305 21.3144C200.216 14.5504 200.19 14.0882 199.842 13.0314C199.033 10.5705 197.515 9.44701 194.857 9.34046C193.652 9.29211 193.136 9.35505 192.163 9.66943C190.792 10.1122 188.931 11.3014 187.824 12.4417C187.41 12.8684 187.022 13.2175 186.962 13.2175C186.902 13.2175 186.808 12.6855 186.754 12.0354C186.7 11.385 186.503 10.507 186.317 10.0843L185.978 9.31535L184.322 9.3447C183.411 9.36099 181.602 9.42801 180.301 9.49366Z" fill="white"/>
<path d="M165.184 9.49401C163.93 9.56034 162.809 9.62362 162.693 9.63465C162.551 9.64822 162.482 9.9772 162.482 10.6484V11.6421L163.812 11.7337C165.345 11.8392 165.756 12.014 166.117 12.7148C166.342 13.1521 166.37 14.2569 166.329 20.9323C166.286 27.9948 166.257 28.6697 165.989 28.9396C165.763 29.1661 165.322 29.251 164.088 29.3053L162.482 29.3758V31.2016H175.994V29.3353L174.939 29.3343C173.484 29.3331 172.714 29.092 172.474 28.5633C172.333 28.2527 172.278 25.4954 172.278 18.7235V9.31535L169.871 9.34436C168.548 9.36048 166.439 9.42784 165.184 9.49401Z" fill="white"/>
<path d="M167.661 0.698804C165.63 1.24443 164.956 3.98428 166.476 5.51122C168.305 7.34899 171.337 6.06194 171.337 3.44747C171.337 1.53387 169.544 0.193046 167.661 0.698804Z" fill="white"/>
<path d="M153.102 2.65618C152.665 5.26997 151.749 7.35967 150.496 8.59853C149.513 9.57052 148.489 10.1126 147.164 10.3622C146.624 10.464 146.088 10.573 145.972 10.6046C145.835 10.6418 145.761 10.9935 145.761 11.6005V12.5389H149.275L149.347 19.8767C149.415 26.8097 149.439 27.2754 149.781 28.3173C150.424 30.2789 151.501 31.1995 153.539 31.5292C155.633 31.8678 158.874 31.0292 160.835 29.6409C161.253 29.3453 161.3 29.2109 161.3 28.3058C161.3 27.7522 161.268 27.2994 161.229 27.2994C161.19 27.2994 160.791 27.4836 160.342 27.7086C158.418 28.6738 156.762 28.8611 156.019 28.1974C155.246 27.5062 155.219 27.2162 155.219 19.6701V12.5389H160.962V10.1637H155.219V2.01995H153.208L153.102 2.65618Z" fill="white"/>
<path d="M124.563 9.49366C123.263 9.55949 122.066 9.62261 121.903 9.63397C121.658 9.65111 121.608 9.82298 121.608 10.6494V11.6441L122.663 11.7325C123.244 11.7812 123.924 11.9168 124.175 12.0338C125.134 12.481 125.155 12.6612 125.155 20.7427C125.155 25.9835 125.098 28.2571 124.959 28.5633C124.723 29.083 123.952 29.3331 122.579 29.3343L121.608 29.3353V31.2016H133.6V29.3828L132.629 29.2822C130.989 29.1127 131.066 29.4654 131.066 22.121V15.7925L132.146 14.7986C133.447 13.6017 134.57 13.0078 135.708 12.9162C136.813 12.8273 137.576 13.3175 138.16 14.4902L138.582 15.3383L138.634 21.6846C138.671 26.2554 138.63 28.1653 138.488 28.5109C138.27 29.0391 137.536 29.3327 136.429 29.3343L135.795 29.3353V31.2016H147.788V29.3799L146.491 29.2963C144.488 29.1672 144.633 29.7384 144.531 21.5786C144.44 14.2611 144.378 13.6317 143.579 11.9753C143.076 10.93 141.875 9.88745 140.807 9.56899C138.081 8.75581 134.983 9.71592 132.171 12.2452L131.083 13.2238L130.999 12.6694C130.953 12.3643 130.872 11.7892 130.819 11.3911C130.767 10.993 130.602 10.3632 130.454 9.99145L130.185 9.31535L128.556 9.3447C127.661 9.36099 125.864 9.42801 124.563 9.49366Z" fill="white"/>
<path fill-rule="evenodd" clip-rule="evenodd" d="M108.648 9.55916C104.123 10.6606 101.274 14.925 101.274 20.5978C101.274 26.2229 103.854 30.1531 108.311 31.3154C109.694 31.6759 112.404 31.6702 113.826 31.3034C116.254 30.6775 118.139 29.3502 119.481 27.3226C120.659 25.5419 120.669 25.6021 119.219 25.6063L117.976 25.6101L117.488 26.303C116.853 27.204 115.247 28.3842 114.163 28.7459C112.858 29.1812 111.058 29.0442 110.149 28.4402C108.59 27.4034 107.629 25.3111 107.465 22.5913L107.37 21.0219H121.152L121.047 19.3677C120.719 14.1715 118.102 10.5501 113.967 9.57086C112.689 9.26836 109.869 9.26208 108.648 9.55916ZM107.481 17.4051C107.681 14.5492 108.361 12.6695 109.495 11.845C110.068 11.428 110.333 11.3513 111.206 11.3513C112.032 11.3513 112.365 11.4371 112.864 11.7775C114.094 12.6168 114.806 14.4676 114.969 17.247L115.071 18.986H107.37L107.481 17.4051Z" fill="white"/>
<path d="M86.2288 1.00962C82.9004 1.53455 80.3125 3.22844 79.1126 5.66714C77.6067 8.72782 78.0696 12.3341 80.2539 14.5572C81.3337 15.6561 82.8131 16.5622 86.572 18.427C91.5487 20.8959 92.9526 21.9866 93.4894 23.8023C93.8064 24.8748 93.8032 25.3525 93.4728 26.3265C92.8876 28.052 91.0472 29.3942 88.9128 29.6524C84.3835 30.2001 81.1631 27.2836 80.368 21.9142L80.1856 20.6826H77.7521L77.8213 24.3727C77.8595 26.4022 77.9413 28.552 78.0031 29.1497L78.1154 30.2367L79.0178 30.5445C80.6991 31.1179 83.6794 31.697 86.0055 31.9023C93.4132 32.5556 98.6397 29.8991 99.6602 24.9613C99.945 23.584 99.7791 21.1712 99.3158 19.949C98.7991 18.5859 97.5932 17.0556 96.1879 15.9794C95.058 15.1142 93.7137 14.3975 89.3014 12.309C86.8561 11.1514 85.4459 10.1764 84.7999 9.19676C83.5214 7.25822 84.1765 4.84616 86.3072 3.64598C87.1635 3.16363 87.3614 3.12274 88.8407 3.12274C90.3426 3.12274 90.529 3.16295 91.7537 3.75032C94.1778 4.91317 95.5083 6.76315 96.0494 9.72406L96.3159 11.1816H98.6806L98.5791 10.0364C98.5232 9.40663 98.4266 7.56683 98.3642 5.9481L98.2511 3.00517L97.4728 2.66958C94.4822 1.38016 89.0055 0.571559 86.2288 1.00962Z" fill="white"/>
<path d="M53.4557 9.49366C52.1552 9.55949 50.882 9.62261 50.6266 9.63397C50.1751 9.65416 50.1621 9.6825 50.1621 10.648V11.6416L51.2324 11.742C51.8211 11.7971 52.5016 11.9332 52.7444 12.0445C53.6864 12.4756 53.709 12.6792 53.709 20.7427C53.709 25.9041 53.6511 28.2595 53.5168 28.5554C53.2702 29.099 52.5789 29.3353 51.2348 29.3353H50.1621V31.3712H62.1542V29.3828L61.183 29.2822C59.5436 29.1127 59.6206 29.4656 59.6206 22.1201V15.791L60.6318 14.8717C61.9427 13.6802 63.1215 13.0448 64.2269 12.9342C65.367 12.82 66.1163 13.2888 66.7145 14.4902L67.1368 15.3383L67.1868 21.6889C67.2221 26.1642 67.18 28.1775 67.0442 28.5067C66.8199 29.0506 66.1467 29.3353 65.0848 29.3353H64.3499V31.3712H76.3419V29.3799L75.0451 29.2963C73.0396 29.167 73.1845 29.7376 73.086 21.5772C73.0227 16.3206 72.9441 14.4323 72.7587 13.7124C71.9848 10.7081 70.2571 9.31535 67.3042 9.31535C65.0642 9.31535 62.9255 10.2661 60.7367 12.2349L59.66 13.2033L59.5559 12.6802C59.4985 12.3925 59.4517 11.9405 59.4517 11.6758C59.4517 11.411 59.2943 10.7715 59.1018 10.2549L58.7518 9.31535L57.2861 9.3447C56.4799 9.36099 54.7562 9.42801 53.4557 9.49366Z" fill="white"/>
<path d="M25.5869 9.4918C24.4721 9.5561 23.3509 9.61905 23.0955 9.6316C22.6431 9.65417 22.6311 9.6808 22.6311 10.6726V11.6906L23.3489 11.7001C24.3593 11.7137 25.1583 12.0348 25.571 12.5934C25.9118 13.0547 25.9282 13.3176 26.0226 19.8039C26.1245 26.7948 26.2013 27.5651 26.9411 29.0019C27.5868 30.256 29.0504 31.2575 30.6799 31.5601C32.8939 31.9711 35.9326 30.802 38.2153 28.6606L39.4728 27.4811L39.5779 28.7294C39.6356 29.4162 39.8199 30.3487 39.9874 30.8018C40.3452 31.7699 39.8076 31.7005 45.2217 31.4788L48.8109 31.3317V29.1656H47.789C47.2271 29.1656 46.5579 29.0569 46.3018 28.9239C45.3497 28.4293 45.3584 28.5199 45.2971 18.494L45.2405 9.26428L41.5785 9.37795C39.5645 9.44039 37.3657 9.5388 36.6922 9.59648L35.4676 9.7015V11.6421L36.7766 11.7337C37.4965 11.7841 38.2797 11.9149 38.517 12.0245C39.4274 12.4449 39.4329 12.4851 39.487 19.0062L39.537 25.0492L38.4079 26.0885C36.9695 27.4125 35.7507 28.0265 34.5608 28.0265C32.9686 28.0265 32.2112 27.1233 31.9209 24.8787C31.8335 24.2037 31.7599 20.4261 31.757 16.4835L31.7518 9.31535L29.6827 9.34504C28.5447 9.3615 26.7016 9.4275 25.5869 9.4918Z" fill="white"/>
<path d="M9.2878 0.943281C3.81976 1.67333 0.52212 5.24689 0.888469 10.0452C1.06176 12.3134 1.911 13.8468 3.8679 15.4243C4.47021 15.9099 6.55412 17.0902 9.06873 18.3701C13.7076 20.731 14.9595 21.6027 15.7532 23.0243C16.7036 24.727 16.3445 26.8915 14.9001 28.1655C12.982 29.8572 9.78454 30.204 7.31148 28.9887C4.95124 27.8287 3.34363 25.1347 2.93708 21.6582L2.82307 20.6826H0.356934L0.451181 25.3059C0.514181 28.3964 0.608767 29.9927 0.736288 30.1212C1.27677 30.6651 5.55304 31.6288 8.62722 31.8994C17.0635 32.6418 22.4622 29.1692 22.4622 23.0003C22.4622 20.7764 21.5523 18.6319 19.9227 17.0151C18.3384 15.443 17.6412 15.0305 11.9902 12.3222C8.91115 10.8465 7.82139 10.0425 7.19814 8.78635C5.47501 5.31272 9.11028 2.07458 13.2987 3.35263C16.244 4.25116 18.2367 6.62742 18.6603 9.74629C18.863 11.2378 18.807 11.1816 20.093 11.1816H21.2479L21.1721 9.86675C21.1304 9.14365 21.0349 7.30369 20.9601 5.77827C20.8581 3.6984 20.7649 2.96767 20.5875 2.85672C20.097 2.55014 17.0779 1.66298 15.4527 1.34809C13.7505 1.01827 10.3825 0.797034 9.2878 0.943281Z" fill="white"/>
<path fill-rule="evenodd" clip-rule="evenodd" d="M73.9286 0.271427C73.8309 0.438034 72.2883 5.18361 72.2883 5.31781C72.2883 5.37023 72.508 5.41316 72.7767 5.41316C73.1568 5.41316 73.2885 5.31917 73.3711 4.98901C73.4691 4.59641 73.5513 4.56486 74.4756 4.56486C75.3822 4.56486 75.4788 4.59981 75.5278 4.94659C75.5692 5.23926 75.7101 5.34071 76.1308 5.38143C76.4328 5.41078 76.6792 5.37261 76.6786 5.2966C76.6777 5.22076 76.3073 4.05163 75.8551 2.69859C75.052 0.295519 75.0211 0.237325 74.521 0.186597C74.2394 0.157924 73.9729 0.196098 73.9286 0.271427ZM73.8395 3.54689L74.1096 2.69859C74.258 2.23202 74.405 1.85029 74.436 1.85029C74.5073 1.85029 74.7868 2.58424 74.9231 3.13021C75.0189 3.51347 74.9797 3.54689 74.4333 3.54689H73.8395Z" fill="white"/>
<path fill-rule="evenodd" clip-rule="evenodd" d="M67.7279 5.41316L68.868 5.40366C71.1048 5.38483 71.8449 4.73333 71.8449 2.78342C71.8449 0.833512 71.1048 0.182016 68.868 0.163183L67.7279 0.153682V5.41316ZM69.5762 4.3952H68.9102V1.17165H69.5014C70.3858 1.17165 70.7682 1.6467 70.7682 2.74559C70.7682 3.95153 70.4476 4.3952 69.5762 4.3952Z" fill="white"/>
<path d="M65.7011 0.153682V5.41316H66.8834V0.153682H65.7011Z" fill="white"/>
<path fill-rule="evenodd" clip-rule="evenodd" d="M61.3096 5.41316H61.8163C62.3043 5.41316 62.3231 5.38483 62.3231 4.64969C62.3231 3.99768 62.3727 3.88621 62.6631 3.88621C62.8987 3.88621 63.1164 4.12052 63.3723 4.64969C63.6996 5.32629 63.8052 5.41316 64.3014 5.41316H64.8611L64.5902 4.77693C64.4411 4.42709 64.2784 4.04145 64.2288 3.91998C64.179 3.79867 64.3144 3.51092 64.5299 3.28052C65.1197 2.64973 65.086 1.32502 64.4641 0.700326C64.0575 0.291953 63.8567 0.233932 62.6582 0.179301L61.3096 0.117713V5.41316ZM62.8804 2.86825C62.3242 2.86825 62.3231 2.86655 62.3231 2.01995C62.3231 1.17334 62.3242 1.17165 62.8804 1.17165C63.5518 1.17165 63.8432 1.42851 63.8432 2.01995C63.8432 2.61138 63.5518 2.86825 62.8804 2.86825Z" fill="white"/>
<path fill-rule="evenodd" clip-rule="evenodd" d="M57.1413 0.257685C56.4152 0.617366 56.0137 1.51674 56.0137 2.78342C56.0137 4.99444 57.3869 6.09961 59.1926 5.34173C60.0191 4.99478 60.3717 4.22961 60.3717 2.78342C60.3717 1.33723 60.0191 0.572064 59.1926 0.225108C58.4532 -0.0852013 57.813 -0.0750189 57.1413 0.257685ZM57.0871 2.90422C57.0871 2.01435 57.293 1.3788 57.6614 1.13178C58.0047 0.901379 58.6045 0.999271 58.945 1.34131C59.211 1.60852 59.2828 1.90679 59.2828 2.74559C59.2828 4.08116 58.991 4.56486 58.185 4.56486C57.4129 4.56486 57.0871 4.07216 57.0871 2.90422Z" fill="white"/>
<path d="M52.5267 0.153682V5.41316H55.7359V4.3952H53.709V0.153682H52.5267Z" fill="white"/>
<path d="M49.8243 3.54689H50.7533C51.6728 3.54689 51.6822 3.5418 51.6822 3.03791C51.6822 2.53402 51.6728 2.52893 50.7533 2.52893H49.8243V1.17165H51.8511V0.153682H48.642V5.41316H49.8243V3.54689Z" fill="white"/>
<path d="M42.3926 0.153682V5.41316H43.5749V3.20757H45.4328V5.41316H46.6152V0.153682H45.4328V2.18961H43.5749V0.153682H42.3926Z" fill="white"/>
<path d="M38.1701 0.662664C38.1701 1.14331 38.2076 1.17165 38.8457 1.17165H39.5213V5.41316H40.7036V1.17165H41.3792C42.0173 1.17165 42.0548 1.14331 42.0548 0.662664V0.153682H38.1701V0.662664Z" fill="white"/>
<path d="M33.4418 1.8927C33.4428 3.92863 33.644 4.80781 34.1914 5.168C35.1888 5.82441 36.7992 5.59283 37.244 4.72875C37.4247 4.37789 37.4944 3.67278 37.4944 2.19809V0.153682H36.481V2.15567C36.481 4.36618 36.4022 4.56486 35.5242 4.56486C34.7473 4.56486 34.6231 4.21587 34.6231 2.03115V0.153682H33.4408L33.4418 1.8927Z" fill="white"/>
<path fill-rule="evenodd" clip-rule="evenodd" d="M29.6103 0.257685C28.8842 0.617366 28.4827 1.51674 28.4827 2.78342C28.4827 4.99444 29.8559 6.09961 31.6616 5.34173C32.488 4.99478 32.8407 4.22961 32.8407 2.78342C32.8407 1.33723 32.488 0.572064 31.6616 0.225108C30.9221 -0.0852013 30.282 -0.0750189 29.6103 0.257685ZM29.5561 2.90422C29.5561 2.01435 29.7619 1.3788 30.1303 1.13178C30.4737 0.901379 31.0735 0.999271 31.414 1.34131C31.68 1.60852 31.7518 1.90679 31.7518 2.74559C31.7518 4.08116 31.4599 4.56486 30.6539 4.56486C29.8819 4.56486 29.5561 4.07216 29.5561 2.90422Z" fill="white"/>
<path d="M24.8781 0.304683C24.2258 0.717806 23.9995 1.5695 24.3471 2.30243C24.5162 2.65872 24.8509 2.89099 25.638 3.19807C26.5917 3.57031 26.6957 3.65734 26.6506 4.04637C26.6092 4.40232 26.4984 4.48986 26.0312 4.53466C25.7184 4.56469 25.2404 4.49699 24.969 4.38417C24.5397 4.20551 24.4446 4.22028 24.2345 4.49903C23.9031 4.93862 23.9174 4.98969 24.4388 5.2284C25.8843 5.88991 27.4929 5.48001 27.7632 4.38128C28.0062 3.39335 27.6421 2.86113 26.3881 2.37183C25.509 2.02877 25.3335 1.89372 25.3335 1.56068C25.3335 1.0483 25.7274 0.901715 26.527 1.116C27.1166 1.27412 27.1759 1.25597 27.3537 0.863882C27.6098 0.299252 27.424 0.151479 26.3287 0.0486646C25.6059 -0.0193693 25.3065 0.0335652 24.8781 0.304683Z" fill="white"/>
</svg>
