<svg width="160" height="44" viewBox="0 0 160 44" fill="none" xmlns="http://www.w3.org/2000/svg">
<path fill-rule="evenodd" clip-rule="evenodd" d="M26.0955 0.141344C24.5249 0.501285 23.0847 1.5913 22.4495 2.90097C22.1651 3.48746 22.1408 3.62976 22.1408 4.70715C22.1408 5.81361 22.1593 5.91463 22.4857 6.58156C23.1018 7.84093 24.153 8.49863 25.5555 8.50224C26.8062 8.50553 27.6399 8.05337 28.1988 7.06852C28.8104 5.99103 28.7249 4.95768 27.9672 4.26889C27.5737 3.91129 27.516 3.88741 27.4816 4.0677C27.46 4.18029 27.4963 4.29043 27.5621 4.31251C27.9594 4.44579 28.1438 5.85605 27.841 6.44531C27.1459 7.79785 24.9578 7.99724 23.5887 6.83284C21.8483 5.35264 22.576 2.59111 25.0091 1.44199C25.6809 1.1246 25.8132 1.10094 27.0974 1.06751C27.8627 1.04756 28.911 1.09309 29.4702 1.17055L30.4721 1.30924L30.4993 7.57936C30.526 13.7406 30.5228 13.8528 30.3147 14.0423C30.1983 14.1483 30.103 14.2754 30.103 14.3248C30.103 14.3741 30.6013 14.4144 31.2103 14.4144C32.3983 14.4144 32.4682 14.3753 32.1067 13.9128C31.9014 13.6502 31.8958 13.4823 31.8958 7.60875C31.8958 4.2899 31.9208 1.57453 31.9514 1.57453C31.9819 1.57453 32.7768 1.71428 33.7178 1.88502C37.1627 2.51025 38.4175 2.52468 39.6597 1.95336C40.3023 1.65783 41.0807 0.981137 41.0053 0.783551C40.9659 0.679983 40.7981 0.73633 40.366 0.998115C39.1977 1.70601 37.6011 1.70866 34.3741 1.00798C30.0102 0.0604844 27.5652 -0.195465 26.0955 0.141344ZM34.005 5.52826C34.005 5.6018 34.0999 5.7216 34.2159 5.79451C34.4206 5.92312 34.4268 6.04197 34.4268 9.79928C34.4268 13.5302 34.4191 13.6794 34.2159 13.8839C34.0999 14.0006 34.005 14.1438 34.005 14.2022C34.005 14.2662 34.4444 14.3083 35.1123 14.3083C36.2846 14.3083 36.4421 14.2287 36.0087 13.8554C35.8115 13.6855 35.7978 13.5424 35.7978 11.6565V9.63926H39.4889V11.6565C39.4889 13.5424 39.4752 13.6855 39.278 13.8554C38.8446 14.2287 39.0021 14.3083 40.1744 14.3083C40.8423 14.3083 41.2817 14.2662 41.2817 14.2022C41.2817 14.1438 41.1868 14.0006 41.0708 13.8839C40.8676 13.6794 40.8599 13.5302 40.8599 9.81488C40.8599 6.0929 40.8672 5.95145 41.0708 5.76607C41.1868 5.66048 41.2817 5.53368 41.2817 5.48433C41.2817 5.43499 40.7834 5.39466 40.1744 5.39466C39.3544 5.39466 39.0671 5.42936 39.0671 5.52826C39.0671 5.6018 39.162 5.7216 39.278 5.79451C39.4737 5.91749 39.4889 6.04197 39.4889 7.51781V9.10868H35.7978V7.53341C35.7978 6.0929 35.8158 5.94169 36.0087 5.76607C36.1247 5.66048 36.2196 5.53368 36.2196 5.48433C36.2196 5.43499 35.7213 5.39466 35.1123 5.39466C34.2924 5.39466 34.005 5.42936 34.005 5.52826ZM42.0199 5.51893C42.0199 5.58726 42.103 5.73561 42.2045 5.84841C42.373 6.03581 42.389 6.38344 42.389 9.85149C42.389 13.3195 42.373 13.6672 42.2045 13.8546C41.8055 14.2981 41.8711 14.3083 45.1268 14.3083H48.2336L48.3602 13.8832C48.4298 13.6493 48.4549 13.426 48.416 13.3868C48.377 13.3475 48.1613 13.4195 47.9365 13.5466C47.5586 13.7604 47.3845 13.7777 45.6176 13.7777H43.7073V9.2148H44.7983C45.7553 9.2148 45.9127 9.2409 46.0801 9.42703C46.4338 9.8204 46.5547 9.69879 46.5547 8.94951C46.5547 8.19015 46.4246 8.07237 46.0274 8.472C45.8446 8.65589 45.6759 8.68423 44.7619 8.68423H43.7073V5.92524H45.4331C46.9993 5.92524 47.1839 5.94487 47.4272 6.13747C47.5746 6.2542 47.774 6.3497 47.8703 6.3497C48.049 6.3497 48.041 6.25823 47.8087 5.63342L47.72 5.39466H44.87C42.7625 5.39466 42.0199 5.42703 42.0199 5.51893ZM21.2048 9.52901L19.5306 9.5862L16.4084 18.9623C14.2714 25.3799 13.2565 28.291 13.1921 28.1882C13.1404 28.1058 11.4761 23.9582 9.49371 18.9714L5.88941 9.90455L0.785156 9.84767V10.1945C0.785156 10.4616 0.86752 10.6073 1.14404 10.8293C1.45683 11.0805 1.51747 11.21 1.61607 11.8374C1.68156 12.2545 1.80358 17.2338 1.90598 23.6692C2.09033 35.2608 2.09349 35.1068 1.6687 35.1068C1.58876 35.1068 1.52337 35.1784 1.52337 35.266C1.52337 35.4001 1.76361 35.4252 3.05254 35.4252C4.21386 35.4252 4.58171 35.3929 4.58171 35.2911C4.58171 35.2175 4.47593 35.11 4.34664 35.0524C4.18349 34.9797 4.08963 34.8179 4.03954 34.5232C3.99999 34.2897 3.91499 30.4219 3.85087 25.9279C3.78665 21.4339 3.70586 17.1124 3.67117 16.3245C3.62825 15.3484 3.64259 14.9258 3.71609 14.9981C3.77547 15.0564 5.18694 18.4229 6.85268 22.4792C8.51841 26.5354 10.3928 31.0957 11.0178 32.6131L12.1542 35.3721L14.2613 35.4324L14.4773 34.7125C14.5961 34.3166 15.6653 30.6739 16.8533 26.6176C20.4443 14.3566 20.6306 13.7263 20.6745 13.6804C20.698 13.6561 20.749 13.6683 20.788 13.7077C20.8621 13.7822 21.1231 27.2024 21.1331 31.4539C21.1388 33.8737 21.136 33.9053 20.897 34.1313C20.7639 34.257 20.4672 34.4251 20.2378 34.5047C19.8656 34.6338 19.8172 34.6911 19.788 35.0372L19.7552 35.4252H25.6737V35.0175C25.6737 34.6345 25.6483 34.6022 25.2563 34.484C25.0267 34.4148 24.8137 34.3173 24.7831 34.2673C24.7368 34.1919 24.3033 12.4178 24.3028 10.1433L24.3027 9.42703L23.5908 9.44942C23.1994 9.46183 22.1256 9.49759 21.2048 9.52901ZM85.6803 10.9726C85.6803 11.1441 85.7961 11.3427 85.9936 11.51C86.1659 11.6559 86.3554 11.9512 86.4148 12.1663C86.5345 12.5999 86.5737 36.2092 86.4557 36.8029C86.397 37.0988 86.2983 37.1861 85.7353 37.4403C84.9452 37.7969 84.3301 38.3204 84.1275 38.8083C83.9888 39.1423 83.9937 39.1871 84.19 39.3847L84.403 39.599L84.8233 39.217C85.5074 38.5951 86.39 38.4646 87.92 38.7592C88.8925 38.9464 90.1524 39.4183 92.6497 40.5306C97.2839 42.5947 99.3828 43.2842 102.448 43.7494C104.06 43.9941 106.713 44.076 108.026 43.9215C111.415 43.523 113.891 41.9802 115.142 39.4876C115.463 38.8474 115.478 38.7242 115.262 38.4432C115.119 38.2573 115.093 38.254 115 38.4092C113.395 41.0899 110.367 42.3719 106.509 42.0045C105.813 41.9383 104.8 41.7883 104.26 41.6713C102.255 41.2379 97.0383 39.6202 95.3511 38.9088C93.8107 38.2594 91.7201 37.6523 90.4523 37.4864L89.8987 37.414V11.9458L90.2678 11.5955C90.5034 11.3719 90.6369 11.1467 90.6369 10.9728V10.7004H85.6803V10.9726ZM66.6416 22.8055C65.1391 26.545 63.8797 29.6235 63.8427 29.6465C63.8058 29.6694 62.4652 26.6694 60.8635 22.9798L57.9514 16.2714L56.2523 16.2885C55.3179 16.298 54.5312 16.3277 54.5045 16.3546C54.4777 16.3816 54.5287 20.3612 54.618 25.1981C54.7073 30.0351 54.7802 34.2552 54.7801 34.5762V35.1599L56.1832 35.0873L56.1155 31.5157C55.9579 23.2049 55.9319 19.9913 56.0236 20.1446C56.0759 20.2322 57.4655 23.6125 59.1113 27.6563L62.1037 35.0088L63.6588 34.9476L66.4889 27.4829C68.0455 23.3773 69.3392 19.998 69.3636 19.9733C69.4327 19.9039 69.5367 23.9238 69.6133 29.6154L69.6828 34.7885H71.3476C72.2635 34.7885 73.0392 34.7452 73.0717 34.6923C73.1042 34.6395 73.06 30.7596 72.9735 26.0705C72.8872 21.3814 72.8159 17.1987 72.8153 16.7755L72.8142 16.0061H69.3732L66.6416 22.8055ZM42.8372 16.1894C42.2717 16.2096 41.809 16.25 41.809 16.2793C41.809 16.3085 40.4328 20.5376 38.7507 25.6771C37.0686 30.8168 35.6923 35.0671 35.6923 35.1223C35.6923 35.1784 36.0036 35.2088 36.3998 35.1913L37.1073 35.1599L38.7119 30.2786L39.2849 30.2094C39.6002 30.1713 41.4338 30.1213 43.3597 30.0983L46.8614 30.0565L47.4634 31.7063C47.7946 32.6135 48.2067 33.7325 48.3794 34.1927L48.6933 35.0296L50.4216 34.9768C51.3722 34.9478 52.1723 34.9015 52.1997 34.874C52.2271 34.8464 50.7133 30.6257 48.8357 25.4946L45.4218 16.1653L44.6437 16.1591C44.2157 16.1556 43.4028 16.1692 42.8372 16.1894ZM99.2471 16.2124L98.2077 16.2714L95.5821 24.2831C94.138 28.6895 92.7478 32.9514 92.4927 33.7539L92.0289 35.2129H93.4668L94.2809 32.7458C94.7287 31.3888 95.1133 30.2576 95.1358 30.2319C95.1582 30.2062 96.967 30.152 99.1552 30.1112C102.28 30.0532 103.157 30.0657 103.239 30.1698C103.297 30.2427 103.724 31.3587 104.188 32.6498L105.032 34.9974L106.298 34.9886C106.994 34.9837 107.806 34.9486 108.103 34.9106L108.642 34.8415L107.569 31.9234C106.979 30.3184 105.436 26.1044 104.14 22.5587L101.784 16.1123L101.035 16.1329C100.623 16.1441 99.8187 16.18 99.2471 16.2124ZM114.524 26.2963L114.457 25.2101C114.421 24.6127 114.385 22.9974 114.378 21.6205C114.371 20.2436 114.335 18.4768 114.298 17.6942L114.23 16.2714L112.584 16.3076C111.679 16.3275 110.92 16.3618 110.897 16.384C110.849 16.4315 111.067 30.2254 111.161 33.1172L111.226 35.1068H114.61L114.48 28.5013L115.504 27.2943C116.067 26.6306 116.551 26.0889 116.58 26.0907C116.609 26.0924 117.89 28.0859 119.427 30.5207L122.222 34.9476L124.068 34.9091C125.083 34.8879 125.929 34.8562 125.948 34.8387C125.986 34.804 125.511 34.0123 121.598 27.5901C120.164 25.2359 119.014 23.2542 119.043 23.1863C119.072 23.1184 119.894 22.1297 120.87 20.9892C121.845 19.8488 123.179 18.2849 123.834 17.5139L125.024 16.1123L123.171 16.1152L114.524 26.2963ZM132.467 16.2286C130.156 16.2737 128.256 16.3257 128.246 16.344C128.202 16.4262 128.555 35.0946 128.602 35.1378C128.631 35.1643 130.577 35.1474 132.926 35.0999C135.275 35.0526 137.775 35.0109 138.48 35.0073L139.764 35.0007L139.878 34.4649C140.085 33.4925 140.498 33.5791 135.998 33.652L132.003 33.7166L131.94 33.1119C131.905 32.7792 131.869 31.1222 131.859 29.4297L131.841 26.3523L137.461 26.2958V24.8622L131.766 24.9444V23.6758C131.766 22.9782 131.735 21.3252 131.697 20.0026L131.627 17.5979L133.885 17.5976C135.127 17.5973 136.957 17.5661 137.953 17.5282L139.764 17.459L139.829 17.0775C139.865 16.8676 139.92 16.5645 139.951 16.4041L140.009 16.1123L138.339 16.1295C137.421 16.1389 134.779 16.1835 132.467 16.2286ZM145.657 16.1917C143.069 16.2172 142.612 16.2452 142.56 16.3815C142.499 16.5416 142.675 28.7668 142.798 32.9049L142.864 35.1068H146.247L146.097 26.6176L147.606 26.6189C149.884 26.6208 150.761 26.9294 151.962 28.1504C152.86 29.0635 153.175 29.6388 153.537 31.0214C154.317 34.0042 155.129 34.694 158.052 34.8578L159.291 34.9272V34.5395C159.291 34.18 159.268 34.1518 158.977 34.1518C158.242 34.1518 157.563 33.6597 157.286 32.9281C157.23 32.7787 157.114 32.0975 157.03 31.4144C156.946 30.7314 156.779 29.8547 156.659 29.4663C156.286 28.2554 155.151 26.964 153.939 26.3704C153.693 26.2496 153.493 26.1246 153.496 26.0925C153.499 26.0603 153.783 25.8997 154.128 25.7355C155.009 25.3152 155.812 24.5394 156.26 23.6756C157.47 21.341 156.853 18.656 154.781 17.2384C153.539 16.3884 152.251 16.0932 149.977 16.1371C149.27 16.1508 147.326 16.1754 145.657 16.1917ZM29.9727 16.2968L29.3679 16.335L29.4227 18.4255C29.5 21.3818 29.6814 32.1358 29.6812 33.7539L29.6811 35.1068H33.1499L33.0998 33.2763C33.0235 30.4799 32.8448 19.6623 32.8448 17.8366L32.8449 16.2184L31.7112 16.2384C31.0876 16.2495 30.3053 16.2757 29.9727 16.2968ZM75.8989 16.2966L75.3452 16.3356L75.3432 17.5238C75.3391 19.9136 75.5657 33.5906 75.6218 34.3375L75.6796 35.1068H79.0363L79.0339 34.7619C79.0326 34.5722 78.9624 30.7402 78.8779 26.2462C78.7935 21.7523 78.7234 17.6576 78.7221 17.1469L78.7199 16.2184L77.5862 16.238C76.9626 16.2488 76.2034 16.2752 75.8989 16.2966ZM147.763 17.5941L145.99 17.6509L145.998 20.5691C146.003 22.1741 146.036 23.8574 146.073 24.3096L146.139 25.132L148.049 25.1298C150.191 25.1274 150.985 25.0053 151.735 24.5636C153.705 23.4014 153.91 19.8544 152.097 18.2926C151.325 17.6277 150.56 17.5045 147.763 17.5941ZM40.9912 23.2822C40.1146 25.9629 39.3654 28.2877 39.3263 28.4481L39.2551 28.7399L41.9294 28.7294C43.4003 28.7236 44.9922 28.6878 45.4671 28.6498L46.3305 28.5808L44.5448 23.6995C43.5627 21.0148 42.72 18.7259 42.6721 18.6132C42.6078 18.4619 42.1676 19.6848 40.9912 23.2822ZM97.2928 23.5138C96.4007 26.2422 95.6473 28.5406 95.6187 28.6214C95.5748 28.745 96.1166 28.7606 99.0586 28.7203C100.979 28.694 102.582 28.6406 102.621 28.6016C102.696 28.526 99.0778 18.5529 98.9753 18.5529C98.942 18.5529 98.1848 20.7852 97.2928 23.5138Z" fill="white"/>
</svg>
