<svg width="236" height="32" viewBox="0 0 236 32" fill="none" xmlns="http://www.w3.org/2000/svg">
<path d="M225.21 0.840298C224.281 0.907314 223.084 0.971106 222.55 0.982134L221.579 1.00199V2.99533L223.023 3.0715C224.94 3.17262 225.266 3.46444 225.473 5.26471C225.655 6.83865 225.659 26.7573 225.478 27.862C225.278 29.0845 225.058 29.2228 223.185 29.3053L221.579 29.3758V31.2016H235.429V29.3816L233.809 29.2964C232.442 29.2247 232.133 29.1543 231.825 28.8445L231.459 28.4777L231.369 0.662664L229.134 0.69066C227.905 0.706099 226.139 0.773452 225.21 0.840298Z" fill="white"/>
<path fill-rule="evenodd" clip-rule="evenodd" d="M209.97 9.55916C206.748 10.3433 204.324 12.9405 203.309 16.6956C203.005 17.8182 202.942 18.5076 202.944 20.6826C202.946 23.0528 202.992 23.4627 203.406 24.8356C203.986 26.7619 204.544 27.796 205.652 29.0021C206.655 30.0927 208.038 30.8996 209.606 31.3083C211.028 31.6792 213.711 31.6707 215.16 31.2906C217.7 30.6252 220.065 28.8107 221.213 26.6482L221.767 25.6028H219.26L218.787 26.2875C218.163 27.1928 216.558 28.3877 215.488 28.7449C214.892 28.9437 214.246 29.0124 213.385 28.9687C212.333 28.9154 212.03 28.8272 211.418 28.395C209.797 27.2508 208.947 25.3749 208.786 22.5913L208.696 21.0219H222.474L222.365 19.4526C221.995 14.1324 219.497 10.6621 215.252 9.57358C214.038 9.26225 211.222 9.25461 209.97 9.55916ZM208.796 17.3318C208.976 14.4685 209.767 12.4318 210.987 11.6847C211.66 11.2722 213.104 11.2407 213.902 11.621C214.592 11.9502 215.276 12.8205 215.677 13.8816C216.013 14.7708 216.343 16.882 216.343 18.1499V18.986H208.691L208.796 17.3318Z" fill="white"/>
<path d="M179.944 9.49366C178.644 9.55949 177.447 9.62261 177.284 9.63397C177.038 9.65111 176.988 9.82298 176.988 10.6499V11.645L178.186 11.7312C179.67 11.8377 180.203 12.187 180.48 13.2335C180.72 14.1427 180.776 27.04 180.544 28.0443C180.307 29.0684 180.059 29.216 178.43 29.3019L176.988 29.3779V31.2016H189.149V29.3828L188.192 29.2835C186.452 29.103 186.539 29.4647 186.482 22.2333L186.432 15.9888L187.467 14.9617C188.744 13.6945 189.889 13.0489 191.053 12.94C192.733 12.7829 193.681 13.7333 194.036 15.9325C194.253 17.2741 194.269 27.1224 194.056 28.0443C193.841 28.9729 193.562 29.1806 192.381 29.2881L191.345 29.3825V31.2016H203.337V29.3799L202.057 29.2975C199.901 29.1583 200.061 29.7639 199.948 21.3144C199.859 14.5504 199.833 14.0882 199.485 13.0314C198.676 10.5705 197.158 9.44701 194.5 9.34046C193.295 9.29211 192.779 9.35505 191.806 9.66943C190.435 10.1122 188.574 11.3014 187.467 12.4417C187.053 12.8684 186.665 13.2175 186.605 13.2175C186.545 13.2175 186.452 12.6855 186.397 12.0354C186.343 11.385 186.146 10.507 185.96 10.0843L185.621 9.31535L183.965 9.3447C183.054 9.36099 181.245 9.42801 179.944 9.49366Z" fill="white"/>
<path d="M164.827 9.49401C163.573 9.56034 162.452 9.62362 162.336 9.63465C162.194 9.64822 162.125 9.9772 162.125 10.6484V11.6421L163.455 11.7337C164.988 11.8392 165.399 12.014 165.76 12.7148C165.985 13.1521 166.013 14.2569 165.972 20.9323C165.929 27.9948 165.901 28.6697 165.632 28.9396C165.406 29.1661 164.965 29.251 163.731 29.3053L162.125 29.3758V31.2016H175.637V29.3353L174.582 29.3343C173.127 29.3331 172.357 29.092 172.117 28.5633C171.976 28.2527 171.921 25.4954 171.921 18.7235V9.31535L169.515 9.34436C168.191 9.36048 166.082 9.42784 164.827 9.49401Z" fill="white"/>
<path d="M167.304 0.698804C165.274 1.24443 164.599 3.98428 166.119 5.51122C167.948 7.34899 170.98 6.06194 170.98 3.44747C170.98 1.53387 169.187 0.193046 167.304 0.698804Z" fill="white"/>
<path d="M152.745 2.65618C152.308 5.26997 151.392 7.35967 150.139 8.59853C149.156 9.57052 148.132 10.1126 146.807 10.3622C146.268 10.464 145.731 10.573 145.615 10.6046C145.478 10.6418 145.404 10.9935 145.404 11.6005V12.5389H148.918L148.99 19.8767C149.058 26.8097 149.082 27.2754 149.424 28.3173C150.067 30.2789 151.144 31.1995 153.182 31.5292C155.276 31.8678 158.517 31.0292 160.478 29.6409C160.896 29.3453 160.943 29.2109 160.943 28.3058C160.943 27.7522 160.911 27.2994 160.872 27.2994C160.833 27.2994 160.434 27.4836 159.985 27.7086C158.061 28.6738 156.405 28.8611 155.663 28.1974C154.889 27.5062 154.862 27.2162 154.862 19.6701V12.5389H160.605V10.1637H154.862V2.01995H152.851L152.745 2.65618Z" fill="white"/>
<path d="M124.207 9.49366C122.906 9.55949 121.709 9.62261 121.546 9.63397C121.301 9.65111 121.251 9.82298 121.251 10.6494V11.6441L122.306 11.7325C122.887 11.7812 123.567 11.9168 123.818 12.0338C124.777 12.481 124.798 12.6612 124.798 20.7427C124.798 25.9835 124.741 28.2571 124.602 28.5633C124.366 29.083 123.595 29.3331 122.222 29.3343L121.251 29.3353V31.2016H133.243V29.3828L132.272 29.2822C130.632 29.1127 130.709 29.4654 130.709 22.121V15.7925L131.789 14.7986C133.09 13.6017 134.213 13.0078 135.351 12.9162C136.456 12.8273 137.219 13.3175 137.803 14.4902L138.225 15.3383L138.277 21.6846C138.314 26.2554 138.274 28.1653 138.131 28.5109C137.913 29.0391 137.179 29.3327 136.072 29.3343L135.439 29.3353V31.2016H147.431V29.3799L146.134 29.2963C144.131 29.1672 144.276 29.7384 144.174 21.5786C144.083 14.2611 144.021 13.6317 143.223 11.9753C142.719 10.93 141.518 9.88745 140.45 9.56899C137.724 8.75581 134.626 9.71592 131.814 12.2452L130.726 13.2238L130.642 12.6694C130.596 12.3643 130.515 11.7892 130.462 11.3911C130.41 10.993 130.245 10.3632 130.097 9.99145L129.828 9.31535L128.2 9.3447C127.304 9.36099 125.507 9.42801 124.207 9.49366Z" fill="white"/>
<path fill-rule="evenodd" clip-rule="evenodd" d="M108.291 9.55916C103.766 10.6606 100.917 14.925 100.917 20.5978C100.917 26.2229 103.497 30.1531 107.954 31.3154C109.337 31.6759 112.047 31.6702 113.469 31.3034C115.897 30.6775 117.782 29.3502 119.124 27.3226C120.303 25.5419 120.312 25.6021 118.862 25.6063L117.619 25.6101L117.131 26.303C116.496 27.204 114.89 28.3842 113.806 28.7459C112.501 29.1812 110.701 29.0442 109.792 28.4402C108.233 27.4034 107.272 25.3111 107.108 22.5913L107.013 21.0219H120.795L120.69 19.3677C120.362 14.1715 117.745 10.5501 113.61 9.57086C112.332 9.26836 109.512 9.26208 108.291 9.55916ZM107.124 17.4051C107.324 14.5492 108.004 12.6695 109.138 11.845C109.711 11.428 109.976 11.3513 110.849 11.3513C111.675 11.3513 112.008 11.4371 112.507 11.7775C113.737 12.6168 114.449 14.4676 114.612 17.247L114.714 18.986H107.013L107.124 17.4051Z" fill="white"/>
<path d="M85.8718 1.00962C82.5435 1.53455 79.9555 3.22844 78.7557 5.66714C77.2497 8.72782 77.7127 12.3341 79.8969 14.5572C80.9767 15.6561 82.4561 16.5622 86.2151 18.427C91.1918 20.8959 92.5957 21.9866 93.1324 23.8023C93.4495 24.8747 93.4463 25.3525 93.1159 26.3265C92.5306 28.052 90.6903 29.3942 88.5559 29.6524C84.0266 30.2001 80.8061 27.2836 80.0111 21.9142L79.8287 20.6826H77.3952L77.4644 24.3727C77.5026 26.4022 77.5843 28.552 77.6462 29.1497L77.7585 30.2367L78.6609 30.5445C80.3422 31.1179 83.3224 31.697 85.6486 31.9023C93.0563 32.5556 98.2828 29.8991 99.3033 24.9613C99.588 23.584 99.4222 21.1712 98.9589 19.949C98.4422 18.5859 97.2363 17.0556 95.831 15.9794C94.701 15.1142 93.3567 14.3975 88.9445 12.309C86.4991 11.1514 85.089 10.1764 84.4429 9.19676C83.1645 7.25822 83.8195 4.84616 85.9502 3.64598C86.8066 3.16363 87.0045 3.12274 88.4837 3.12274C89.9856 3.12274 90.1721 3.16295 91.3968 3.75032C93.8209 4.91317 95.1513 6.76315 95.6925 9.72406L95.959 11.1816H98.3236L98.2221 10.0364C98.1662 9.40663 98.0696 7.56683 98.0073 5.9481L97.8941 3.00517L97.1158 2.66958C94.1252 1.38016 88.6486 0.571559 85.8718 1.00962Z" fill="white"/>
<path d="M53.0988 9.49366C51.7982 9.55949 50.525 9.62261 50.2697 9.63397C49.8182 9.65416 49.8052 9.6825 49.8052 10.648V11.6416L50.8755 11.742C51.4641 11.7971 52.1446 11.9332 52.3875 12.0445C53.3295 12.4756 53.3521 12.6792 53.3521 20.7427C53.3521 25.9041 53.2942 28.2595 53.1599 28.5554C52.9133 29.099 52.222 29.3353 50.8779 29.3353H49.8052V31.3712H61.7972V29.3828L60.826 29.2822C59.1867 29.1127 59.2637 29.4656 59.2637 22.1201V15.791L60.2749 14.8717C61.5858 13.6802 62.7645 13.0448 63.87 12.9342C65.0101 12.82 65.7593 13.2888 66.3576 14.4902L66.7798 15.3383L66.8298 21.6889C66.8651 26.1642 66.8231 28.1775 66.6873 28.5067C66.463 29.0506 65.7897 29.3353 64.7278 29.3353H63.9929V31.3712H75.985V29.3799L74.6882 29.2963C72.6826 29.167 72.8275 29.7376 72.7291 21.5772C72.6657 16.3206 72.5872 14.4323 72.4017 13.7124C71.6278 10.7081 69.9001 9.31535 66.9472 9.31535C64.7072 9.31535 62.5686 10.2661 60.3798 12.2349L59.303 13.2033L59.199 12.6802C59.1416 12.3925 59.0948 11.9405 59.0948 11.6758C59.0948 11.411 58.9374 10.7715 58.7448 10.2549L58.3949 9.31535L56.9291 9.3447C56.123 9.36099 54.3993 9.42801 53.0988 9.49366Z" fill="white"/>
<path d="M25.2299 9.4918C24.1152 9.5561 22.994 9.61905 22.7386 9.6316C22.2861 9.65417 22.2741 9.6808 22.2741 10.6726V11.6906L22.992 11.7001C24.0023 11.7137 24.8014 12.0348 25.214 12.5934C25.5549 13.0547 25.5713 13.3176 25.6657 19.8039C25.7675 26.7948 25.8444 27.5651 26.5842 29.0019C27.2299 30.256 28.6934 31.2576 30.323 31.5601C32.537 31.9711 35.5757 30.802 37.8584 28.6606L39.1159 27.4811L39.2209 28.7294C39.2787 29.4162 39.463 30.3487 39.6305 30.8018C39.9882 31.7699 39.4506 31.7005 44.8648 31.4788L48.454 31.3317V29.1656H47.4321C46.8702 29.1656 46.201 29.0569 45.9449 28.9239C44.9928 28.4293 45.0014 28.5199 44.9401 18.494L44.8835 9.26428L41.2216 9.37795C39.2076 9.44039 37.0088 9.5388 36.3352 9.59648L35.1107 9.7015V11.6421L36.4197 11.7337C37.1395 11.7841 37.9227 11.9149 38.16 12.0245C39.0704 12.4449 39.076 12.4851 39.1301 19.0062L39.18 25.0492L38.0509 26.0885C36.6126 27.4125 35.3938 28.0265 34.2039 28.0265C32.6116 28.0265 31.8543 27.1233 31.5639 24.8787C31.4766 24.2037 31.403 20.4261 31.4001 16.4835L31.3948 9.31535L29.3258 9.34504C28.1877 9.3615 26.3447 9.4275 25.2299 9.4918Z" fill="white"/>
<path d="M8.93087 0.943281C3.46283 1.67333 0.165187 5.24689 0.531535 10.0452C0.704829 12.3134 1.55407 13.8468 3.51097 15.4243C4.11327 15.9099 6.19719 17.0902 8.7118 18.3701C13.3507 20.731 14.6026 21.6027 15.3963 23.0243C16.3467 24.727 15.9876 26.8915 14.5431 28.1655C12.6251 29.8572 9.42761 30.204 6.95454 28.9887C4.5943 27.8287 2.98669 25.1347 2.58015 21.6582L2.46614 20.6826H0L0.0942471 25.3059C0.157248 28.3964 0.251833 29.9927 0.379354 30.1212C0.919841 30.6651 5.1961 31.6288 8.27029 31.8994C16.7066 32.6418 22.1052 29.1692 22.1052 23.0003C22.1052 20.7764 21.1954 18.6319 19.5658 17.0151C17.9815 15.443 17.2843 15.0305 11.6333 12.3222C8.55421 10.8465 7.46446 10.0425 6.84121 8.78635C5.11807 5.31272 8.75335 2.07458 12.9418 3.35263C15.8871 4.25116 17.8798 6.62742 18.3034 9.74629C18.5061 11.2378 18.45 11.1816 19.736 11.1816H20.891L20.8152 9.86675C20.7734 9.14365 20.678 7.30369 20.6032 5.77827C20.5012 3.6984 20.4079 2.96767 20.2306 2.85672C19.7401 2.55014 16.721 1.66298 15.0958 1.34809C13.3936 1.01827 10.0255 0.797034 8.93087 0.943281Z" fill="white"/>
<path fill-rule="evenodd" clip-rule="evenodd" d="M73.5717 0.271427C73.4739 0.438034 71.9313 5.18361 71.9313 5.31781C71.9313 5.37023 72.1511 5.41316 72.4198 5.41316C72.7998 5.41316 72.9316 5.31917 73.0142 4.98901C73.1121 4.59641 73.1944 4.56486 74.1186 4.56486C75.0253 4.56486 75.1219 4.59981 75.1709 4.94659C75.2123 5.23926 75.3531 5.34071 75.7739 5.38143C76.0759 5.41078 76.3223 5.37261 76.3216 5.2966C76.3208 5.22076 75.9504 4.05163 75.4982 2.69859C74.6951 0.295519 74.6642 0.237325 74.1641 0.186597C73.8825 0.157924 73.616 0.196098 73.5717 0.271427ZM73.4825 3.54689L73.7526 2.69859C73.9011 2.23202 74.048 1.85029 74.0791 1.85029C74.1504 1.85029 74.4299 2.58424 74.5662 3.13021C74.662 3.51347 74.6228 3.54689 74.0764 3.54689H73.4825Z" fill="white"/>
<path fill-rule="evenodd" clip-rule="evenodd" d="M67.371 5.41316L68.5111 5.40366C70.7478 5.38483 71.488 4.73333 71.488 2.78342C71.488 0.833512 70.7478 0.182016 68.5111 0.163183L67.371 0.153682V5.41316ZM69.2193 4.3952H68.5533V1.17165H69.1445C70.0288 1.17165 70.4112 1.6467 70.4112 2.74559C70.4112 3.95153 70.0906 4.3952 69.2193 4.3952Z" fill="white"/>
<path d="M65.3442 0.153682V5.41316H66.5265V0.153682H65.3442Z" fill="white"/>
<path fill-rule="evenodd" clip-rule="evenodd" d="M60.9527 5.41316H61.4594C61.9474 5.41316 61.9661 5.38483 61.9661 4.64969C61.9661 3.99768 62.0158 3.88621 62.3061 3.88621C62.5417 3.88621 62.7595 4.12052 63.0153 4.64969C63.3427 5.32629 63.4482 5.41316 63.9445 5.41316H64.5042L64.2333 4.77693C64.0842 4.42709 63.9215 4.04145 63.8718 3.91998C63.822 3.79867 63.9575 3.51092 64.173 3.28052C64.7628 2.64973 64.729 1.32502 64.1071 0.700326C63.7006 0.291953 63.4998 0.233932 62.3012 0.179301L60.9527 0.117713V5.41316ZM62.5235 2.86825C61.9673 2.86825 61.9661 2.86655 61.9661 2.01995C61.9661 1.17334 61.9673 1.17165 62.5235 1.17165C63.1949 1.17165 63.4862 1.42851 63.4862 2.01995C63.4862 2.61138 63.1949 2.86825 62.5235 2.86825Z" fill="white"/>
<path fill-rule="evenodd" clip-rule="evenodd" d="M56.7844 0.257685C56.0583 0.617366 55.6568 1.51674 55.6568 2.78342C55.6568 4.99444 57.03 6.09961 58.8357 5.34173C59.6621 4.99478 60.0148 4.22961 60.0148 2.78342C60.0148 1.33723 59.6621 0.572064 58.8357 0.225108C58.0962 -0.0852013 57.4561 -0.0750189 56.7844 0.257685ZM56.7302 2.90422C56.7302 2.01435 56.936 1.3788 57.3044 1.13178C57.6478 0.901379 58.2476 0.999271 58.5881 1.34131C58.8541 1.60852 58.9259 1.90679 58.9259 2.74559C58.9259 4.08116 58.634 4.56486 57.828 4.56486C57.056 4.56486 56.7302 4.07216 56.7302 2.90422Z" fill="white"/>
<path d="M52.1698 0.153682V5.41316H55.3789V4.3952H53.3521V0.153682H52.1698Z" fill="white"/>
<path d="M49.4674 3.54689H50.3963C51.3158 3.54689 51.3253 3.5418 51.3253 3.03791C51.3253 2.53402 51.3158 2.52893 50.3963 2.52893H49.4674V1.17165H51.4942V0.153682H48.2851V5.41316H49.4674V3.54689Z" fill="white"/>
<path d="M42.0357 0.153682V5.41316H43.218V3.20757H45.0759V5.41316H46.2582V0.153682H45.0759V2.18961H43.218V0.153682H42.0357Z" fill="white"/>
<path d="M37.8131 0.662664C37.8131 1.14331 37.8506 1.17165 38.4887 1.17165H39.1643V5.41316H40.3467V1.17165H41.0223C41.6604 1.17165 41.6979 1.14331 41.6979 0.662664V0.153682H37.8131V0.662664Z" fill="white"/>
<path d="M33.0849 1.8927C33.0859 3.92863 33.2871 4.80781 33.8345 5.168C34.8318 5.82441 36.4423 5.59283 36.887 4.72875C37.0678 4.37789 37.1375 3.67278 37.1375 2.19809V0.153682H36.1241V2.15567C36.1241 4.36618 36.0452 4.56486 35.1673 4.56486C34.3903 4.56486 34.2662 4.21587 34.2662 2.03115V0.153682H33.0839L33.0849 1.8927Z" fill="white"/>
<path fill-rule="evenodd" clip-rule="evenodd" d="M29.2533 0.257685C28.5272 0.617366 28.1257 1.51674 28.1257 2.78342C28.1257 4.99444 29.4989 6.09961 31.3047 5.34173C32.1311 4.99478 32.4838 4.22961 32.4838 2.78342C32.4838 1.33723 32.1311 0.572064 31.3047 0.225108C30.5652 -0.0852013 29.9251 -0.0750189 29.2533 0.257685ZM29.1991 2.90422C29.1991 2.01435 29.405 1.3788 29.7734 1.13178C30.1168 0.901379 30.7165 0.999271 31.057 1.34131C31.3231 1.60852 31.3948 1.90679 31.3948 2.74559C31.3948 4.08116 31.103 4.56486 30.297 4.56486C29.5249 4.56486 29.1991 4.07216 29.1991 2.90422Z" fill="white"/>
<path d="M24.5212 0.304683C23.8689 0.717806 23.6426 1.5695 23.9902 2.30243C24.1592 2.65872 24.494 2.89099 25.2811 3.19807C26.2347 3.57031 26.3388 3.65734 26.2937 4.04637C26.2523 4.40232 26.1415 4.48986 25.6743 4.53466C25.3615 4.56469 24.8835 4.49699 24.6121 4.38417C24.1827 4.20551 24.0876 4.22028 23.8775 4.49903C23.5461 4.93862 23.5605 4.98969 24.0819 5.2284C25.5274 5.88991 27.136 5.48001 27.4062 4.38128C27.6493 3.39335 27.2851 2.86113 26.0312 2.37183C25.1521 2.02877 24.9766 1.89372 24.9766 1.56068C24.9766 1.0483 25.3704 0.901715 26.17 1.116C26.7597 1.27412 26.8189 1.25597 26.9968 0.863882C27.2529 0.299252 27.0671 0.151479 25.9717 0.0486646C25.249 -0.0193693 24.9495 0.0335652 24.5212 0.304683Z" fill="white"/>
</svg>
