<svg width="81" height="44" viewBox="0 0 81 44" fill="none" xmlns="http://www.w3.org/2000/svg">
<path fill-rule="evenodd" clip-rule="evenodd" d="M-143.72 6.32085H-136.262V34.2446H-128.885V6.32085H-121.508V0H-143.72V6.32085ZM-79.0899 17.0823C-79.0899 26.4775 -79.0629 34.1661 -79.0298 34.1679C-78.9967 34.1697 -77.3459 34.173 -75.3613 34.1754L-71.7529 34.1797L-71.6727 20.2827L-69.628 20.2588C-68.3273 20.2436 -67.4091 20.2682 -67.1048 20.3262C-65.8582 20.5643 -65.054 21.4009 -64.8249 22.6979C-64.7798 22.9538 -64.7261 24.8373 -64.7055 26.8836C-64.6689 30.5395 -64.6647 30.6177 -64.4662 31.3856C-64.355 31.8153 -64.1651 32.3485 -64.0441 32.5703C-63.754 33.102 -63.136 33.7197 -62.6463 33.9673C-61.8645 34.3626 -61.4303 34.4087 -58.7053 34.3857L-56.1968 34.3646L-56.1521 32.3428L-56.5221 31.9136C-56.7256 31.6774 -56.9831 31.3067 -57.0944 31.0898C-57.5666 30.1691 -57.5484 30.3452 -57.6035 26.1635C-57.6476 22.8122 -57.6739 22.2121 -57.7962 21.7629C-58.1278 20.5447 -58.9527 19.2847 -59.8686 18.5978C-60.3454 18.2401 -61.2987 17.7504 -61.7096 17.652C-62.0405 17.5729 -61.9793 17.4818 -61.4691 17.2946C-59.3577 16.5199 -58.1244 14.9636 -57.8409 12.7163C-57.6942 11.5531 -57.7721 7.12999 -57.955 6.24084C-58.1291 5.39416 -58.4887 4.45132 -58.9163 3.7205C-59.2752 3.10698 -60.3764 1.94386 -60.9937 1.5262C-62.0545 0.808428 -63.7091 0.236431 -65.1777 0.0797702C-65.5782 0.0370445 -68.8341 0.00216015 -72.4946 0.00136005L-79.0899 0V17.0823ZM2.05821 34.2446H8.21295C13.1582 34.2446 14.5647 34.2212 15.3696 34.1256C20.166 33.5559 23.2357 30.9965 24.2002 26.7636C24.3824 25.9641 24.3825 25.9571 24.4091 17.7727C24.4382 8.84822 24.4277 8.57923 23.9888 7.08095C23.0767 3.96693 20.8777 1.68078 17.8081 0.655367C15.942 0.0320038 15.4776 0 8.29474 0H2.05821V34.2446ZM-71.6737 5.8547C-71.696 5.91303 -71.7049 8.01307 -71.6936 10.5214L-71.6727 15.082L-69.3589 15.1033C-67.1541 15.1235 -67.0227 15.1163 -66.5666 14.9504C-66.0012 14.7447 -65.4386 14.2386 -65.2153 13.735C-64.9418 13.1181 -64.8809 12.3502 -64.9136 9.93453C-64.9409 7.92034 -64.9629 7.59718 -65.0947 7.28097C-65.3678 6.62545 -65.6259 6.33445 -66.178 6.05945L-66.6973 5.80078L-69.1651 5.77469C-71.1596 5.75357 -71.6408 5.76893 -71.6737 5.8547ZM9.4353 28.1002L11.7006 28.0651C13.7091 28.0341 14.0223 28.0115 14.4641 27.8662C15.754 27.4418 16.5406 26.5849 16.8515 25.2649C17.0288 24.5125 17.03 9.72546 16.8528 8.9804C16.5966 7.90306 15.943 7.01462 15.1062 6.60608C14.3501 6.23691 13.7554 6.1637 11.5001 6.16218L9.4353 6.16082V28.1002ZM-121.268 34.2446H-115.254V23.1231H-108.358V34.2446H-102.263L-102.304 6.44086L-108.358 6.39894V17.9224H-115.254V6.40086H-121.268V34.2446ZM-98.6986 6.50087C-98.7197 6.55592 -98.7276 12.8117 -98.7162 20.4027L-98.6954 34.2046L-83.1794 34.2454V28.9639H-92.6413V22.083H-86.1493L-86.1052 21.9029C-86.0809 21.8039 -86.0712 20.7868 -86.0836 19.6426L-86.1062 17.5623L-92.6413 17.5206V11.5215H-83.1794V6.40086H-90.9198C-97.0383 6.40086 -98.6683 6.42182 -98.6986 6.50087ZM-54.2322 6.4675C-54.2854 6.48519 -54.3125 11.1846 -54.3125 20.3698V34.2454L-38.7965 34.2046L-38.7821 31.7242C-38.7741 30.3601 -38.7856 29.1809 -38.8076 29.1039C-38.8449 28.9726 -39.1411 28.9639 -43.5729 28.9639H-48.2985V22.0974L-47.637 22.0432C-47.2732 22.0135 -45.8102 22.0013 -44.3859 22.0161C-41.8515 22.0424 -41.7955 22.0395 -41.7574 21.8829C-41.7359 21.7949 -41.7284 20.7868 -41.7408 19.6426L-41.7634 17.5623L-48.2985 17.5206V11.5215H-43.6174C-39.7004 11.5215 -38.9212 11.5032 -38.8432 11.4094C-38.7077 11.2465 -38.7323 6.56512 -38.8689 6.51279C-38.9786 6.47079 -54.1079 6.42622 -54.2322 6.4675ZM-30.912 6.46446C-30.9897 6.47935 -31.0713 6.65545 -31.1347 6.94453C-31.1897 7.1956 -31.3373 7.83305 -31.4626 8.36112C-31.7878 9.7309 -31.9404 10.3796 -32.5725 13.0817C-33.5017 17.0533 -34.0206 19.2644 -34.2237 20.1158C-34.3294 20.5596 -34.6552 21.9489 -34.9476 23.2031C-35.24 24.4573 -35.5992 25.9875 -35.7458 26.6036C-36.6207 30.2798 -37.3913 33.6046 -37.4426 33.9245L-37.4943 34.2467L-31.9005 34.2046L-31.8083 33.7645C-31.7576 33.5225 -31.585 32.7124 -31.4248 31.9643C-31.2645 31.2162 -31.0627 30.262 -30.9764 29.844C-30.8899 29.4259 -30.8003 29.0028 -30.777 28.9039L-30.7348 28.7238H-27.8944C-26.2946 28.7238 -25.0346 28.7554 -25.0094 28.7959C-24.9698 28.8599 -24.3599 31.6773 -24.0378 33.2845C-23.9716 33.6145 -23.8833 33.9656 -23.8414 34.0646L-23.7651 34.2446H-20.8413C-19.2332 34.2446 -17.8993 34.2152 -17.8771 34.1793C-17.8549 34.1434 -17.9029 33.8464 -17.9838 33.5192C-18.0648 33.192 -18.2088 32.5824 -18.3037 32.1643C-18.3987 31.7462 -18.5444 31.1162 -18.6277 30.7641C-18.9292 29.489 -19.4206 27.3877 -19.5821 26.6836C-19.7486 25.9578 -20.2724 23.7078 -20.5508 22.523C-20.6335 22.171 -20.7802 21.5409 -20.8768 21.1228C-20.9733 20.7048 -21.1548 19.9307 -21.2801 19.4026C-21.4052 18.8745 -21.6201 17.9564 -21.7576 17.3623C-22.0228 16.2168 -22.4091 14.5613 -22.9619 12.2016C-23.2853 10.8211 -23.4532 10.1014 -23.8724 8.30111C-23.9774 7.85009 -24.1112 7.25601 -24.1696 6.98093C-24.228 6.70594 -24.3135 6.48023 -24.3595 6.47951C-25.5433 6.45966 -30.8243 6.44758 -30.912 6.46446ZM-16.0641 6.4675C-16.1167 6.48511 -16.144 11.2276 -16.144 20.3698V34.2454L-1.02895 34.2046V29.0839L-10.1301 29.0425V17.7617C-10.1301 11.5572 -10.1572 6.48071 -10.1902 6.48055C-10.2232 6.48031 -11.5404 6.47135 -13.1173 6.46054C-14.6942 6.44974 -16.0202 6.45286 -16.0641 6.4675ZM27.5573 34.2446H43.1134V28.9639H33.5713V22.083H40.1465V17.5223H33.5713V11.5215H43.1134V6.40086H27.5573V34.2446ZM50.8547 6.50087C50.8372 6.55592 50.7103 7.08695 50.5727 7.68103C50.3484 8.64892 50.032 9.99686 48.5163 16.4422C48.2783 17.4543 47.9585 18.8225 47.8058 19.4826C47.653 20.1427 47.3821 21.2948 47.2038 22.0429C47.0256 22.791 46.6444 24.4113 46.3567 25.6434C46.069 26.8756 45.727 28.3338 45.5965 28.8839C44.8638 31.9731 44.3963 34.0134 44.3963 34.1217C44.3963 34.2299 44.7313 34.2446 47.1948 34.2446H49.9933L50.1218 33.6645C50.2994 32.8624 50.5944 31.4773 50.9056 29.984L51.1682 28.7238H54.0368C55.6145 28.7238 56.9054 28.7508 56.9054 28.7839C56.9055 28.8169 57.1578 30.032 57.4661 31.4842C57.7743 32.9364 58.0268 34.1515 58.0272 34.1846C58.0276 34.2176 59.3811 34.2446 61.0349 34.2446C63.684 34.2446 64.0419 34.2299 64.0419 34.1218C64.0419 34.0543 63.8456 33.1632 63.6057 32.1416C63.3658 31.1199 63.1109 30.032 63.0392 29.724C62.9676 29.4159 62.6613 28.1018 62.3586 26.8036C62.056 25.5054 61.3892 22.643 60.877 20.4427C59.9602 16.5054 59.5474 14.7389 58.2716 9.2942C57.9175 7.78312 57.6074 6.51391 57.5825 6.47383C57.5565 6.43174 56.1275 6.40086 54.2119 6.40086C51.6218 6.40086 50.8794 6.42294 50.8547 6.50087ZM65.7258 34.2446H80.9611V29.0439H71.7397V6.40086H65.7258V34.2446ZM53.5435 17.2276C52.7471 21.01 52.5336 22.0254 52.2897 23.1908C52.176 23.7341 52.0981 24.1938 52.1167 24.2124C52.1353 24.2309 53.0326 24.2364 54.1107 24.2247L56.0709 24.2032L55.3775 20.6428C54.9962 18.6845 54.5703 16.4909 54.431 15.7681C54.2917 15.0454 54.1684 14.4447 54.1569 14.4332C54.1455 14.4218 53.8694 15.6792 53.5435 17.2276ZM-27.7927 14.602C-27.8568 14.8051 -28.1639 16.2139 -28.5252 17.9624C-28.6798 18.7105 -28.9365 19.9347 -29.0958 20.6828C-29.2551 21.4309 -29.485 22.529 -29.6066 23.1231L-29.8278 24.2032L-27.8653 24.2247C-26.7859 24.2364 -25.8836 24.2269 -25.8601 24.2036C-25.8367 24.1801 -25.8611 23.9365 -25.9142 23.662C-25.9675 23.3876 -26.1546 22.425 -26.33 21.5229C-26.5054 20.6208 -26.8657 18.7665 -27.1306 17.4023C-27.3955 16.0381 -27.6414 14.814 -27.6771 14.682C-27.7337 14.4731 -27.7486 14.4627 -27.7927 14.602ZM-88.205 39.289C-89.0698 39.4591 -89.5179 40.0389 -89.3519 40.7731C-89.2335 41.2971 -88.8631 41.5712 -87.9504 41.81C-87.5094 41.9254 -87.0658 42.0725 -86.9646 42.1369C-86.6882 42.3129 -86.6066 42.6011 -86.7419 42.9242C-87.047 43.653 -88.4249 43.6246 -88.8784 42.8803C-89.05 42.5987 -89.1008 42.566 -89.3078 42.6041C-89.6348 42.6643 -89.6473 42.695 -89.4757 43.013C-89.23 43.4682 -88.7821 43.8176 -88.3167 43.9172C-87.8027 44.0273 -87.6979 44.0274 -87.1903 43.9188C-86.4968 43.7703 -86.0561 43.264 -86.0461 42.6043C-86.035 41.8722 -86.4717 41.51 -87.7315 41.2061C-88.3029 41.0683 -88.5114 40.9802 -88.6335 40.8253C-89.0341 40.3173 -88.6031 39.7653 -87.806 39.7653C-87.3991 39.7653 -86.9642 40.0148 -86.8087 40.3375C-86.7299 40.5009 -86.6663 40.5353 -86.5014 40.5039C-86.2037 40.4471 -86.1784 40.2856 -86.4123 39.933C-86.7473 39.428 -87.5129 39.1529 -88.205 39.289ZM-83.4199 39.2804C-84.3564 39.4682 -84.9545 40.3641 -84.9622 41.5908C-84.9697 42.7803 -84.46 43.6458 -83.6063 43.8934C-82.6635 44.1669 -81.8499 43.7507 -81.4019 42.7657C-81.2546 42.4418 -81.2195 42.2211 -81.2174 41.6056C-81.2151 40.9498 -81.2435 40.7851 -81.4234 40.4054C-81.8417 39.523 -82.5735 39.1106 -83.4199 39.2804ZM-55.8761 39.2813C-56.5194 39.4342 -57.0187 39.9123 -57.2562 40.6029C-57.4498 41.1658 -57.4349 42.2391 -57.2263 42.7508C-56.8596 43.6506 -56.0135 44.1231 -55.1207 43.9269C-53.8314 43.6436 -53.1835 41.6676 -53.9135 40.2454C-54.2753 39.5405 -55.153 39.1094 -55.8761 39.2813ZM-11.3729 39.2811C-12.3251 39.4413 -12.8013 40.1378 -12.4989 40.9279C-12.3174 41.4021 -12.0677 41.5612 -11.0924 41.8242C-10.1654 42.0743 -9.8895 42.263 -9.8895 42.6471C-9.8895 43.1751 -10.2501 43.4467 -10.9479 43.4445C-11.4788 43.4429 -11.9656 43.1895 -12.1347 42.827C-12.2583 42.5619 -12.4619 42.4958 -12.696 42.6447C-12.8002 42.7108 -12.7909 42.7691 -12.6274 43.0784C-12.2875 43.7215 -11.508 44.0693 -10.6473 43.962C-9.83569 43.8607 -9.3326 43.4162 -9.26781 42.7429C-9.18954 41.9307 -9.5592 41.5711 -10.8116 41.2411C-11.7577 40.9919 -11.9931 40.8214 -11.958 40.4104C-11.8905 39.6178 -10.3638 39.5343 -10.032 40.3052C-9.97986 40.4263 -9.93231 40.5346 -9.92638 40.5458C-9.90874 40.5788 -9.40837 40.3932 -9.40837 40.3536C-9.40837 40.3337 -9.46065 40.2166 -9.52457 40.0933C-9.7041 39.7468 -10.1742 39.3786 -10.5092 39.3222C-10.6756 39.2942 -10.8658 39.2613 -10.9319 39.2492C-10.9981 39.2371 -11.1965 39.2514 -11.3729 39.2811ZM25.1396 39.3145C24.3361 39.5343 24.0509 39.9265 24.0968 40.7486C24.1045 40.8854 24.2256 41.0936 24.41 41.2868C24.6755 41.5651 24.8118 41.629 25.5745 41.833C26.0495 41.96 26.5096 42.1284 26.5968 42.2072C26.7713 42.3648 26.8101 42.7944 26.6729 43.0502C26.3414 43.6682 24.8563 43.5196 24.5293 42.8357C24.4439 42.6567 24.3445 42.5661 24.2348 42.5669C23.7765 42.5703 23.7824 42.8613 24.2513 43.3792C24.7163 43.8928 25.4343 44.096 26.2032 43.9314C27.305 43.6956 27.7844 42.6204 27.1478 41.8129C26.9433 41.5534 26.6862 41.4439 25.7316 41.2094C24.9585 41.0195 24.6706 40.8187 24.6706 40.4693C24.6706 39.6533 26.2524 39.5031 26.6096 40.2852C26.6998 40.4827 26.8617 40.5318 27.1097 40.4369C27.2862 40.3692 27.2691 40.2609 27.0271 39.9125C26.6595 39.3831 25.839 39.1232 25.1396 39.3145ZM-79.8918 40.8815C-79.8918 42.75 -79.8165 43.2169 -79.4574 43.5752C-79.1162 43.9156 -78.4364 44.0645 -77.8356 43.9303C-77.3301 43.8175 -77.0537 43.6146 -76.8425 43.2014C-76.6989 42.9206 -76.6843 42.7257 -76.6843 41.0887V39.2853H-77.1545L-77.2055 42.8829L-77.4587 43.1354C-77.9202 43.5956 -78.8807 43.4991 -79.1477 42.9657C-79.2185 42.8244 -79.2483 42.2549 -79.2491 41.0255L-79.2503 39.2853H-79.8918V40.8815ZM-75.6111 39.4006C-75.6355 39.464 -75.643 39.5811 -75.6278 39.6607C-75.6041 39.7839 -75.5023 39.8088 -74.9394 39.8285L-74.2788 39.8518V43.9356L-73.6774 43.8859L-73.6345 39.8453H-72.3543V39.2853H-73.9605C-75.2854 39.2853 -75.5746 39.3055 -75.6111 39.4006ZM-71.3119 43.9259H-70.6704V41.7656H-68.5856V43.9259H-67.9416L-67.9842 39.3253L-68.5856 39.2756V41.2055H-70.6704V39.2853H-71.3119V43.9259ZM-64.4961 43.9259H-63.8546V41.7656H-62.0103V41.2855H-63.8546V39.8498L-61.6495 39.8053V39.3253L-64.4961 39.2816V43.9259ZM-60.8075 43.9296L-58.0411 43.8859V43.4058L-60.166 43.3612V39.2853H-60.8075V43.9296ZM-52.3078 43.9356L-51.7064 43.8859L-51.6614 41.9256H-50.4872L-49.638 43.9259H-49.3237C-48.9519 43.9259 -48.9403 44.0065 -49.4984 42.7163C-49.8504 41.9029 -49.8775 41.8001 -49.7526 41.7539C-49.5118 41.665 -49.1241 41.1569 -49.0676 40.856C-48.9424 40.1903 -49.3575 39.5407 -50.0135 39.3759C-50.2118 39.3261 -50.8092 39.2853 -51.341 39.2853H-52.3078V43.9356ZM-47.657 43.9259H-47.0222L-47.0556 39.3253L-47.657 39.2756V43.9259ZM-45.492 43.9259L-44.5097 43.9254C-43.3458 43.9249 -43.0176 43.8479 -42.6093 43.4798C-42.1188 43.0377 -41.9257 42.5091 -41.9247 41.6056C-41.9237 40.7449 -42.0666 40.3269 -42.5216 39.8581C-42.9374 39.4297 -43.2415 39.3409 -44.4296 39.3017L-45.492 39.2667V43.9259ZM-40.4722 41.5037C-40.8647 42.7259 -41.2015 43.7709 -41.2207 43.8259C-41.2441 43.8931 -41.1662 43.9259 -40.9832 43.9259C-40.7118 43.9259 -40.7101 43.9234 -40.5275 43.2931C-40.4045 42.8681 -40.3008 42.6512 -40.2119 42.6329C-40.1391 42.6178 -39.7522 42.6169 -39.3523 42.6309L-38.6251 42.6563L-38.4257 43.2711C-38.2281 43.8804 -38.2236 43.8861 -37.9301 43.9107C-37.7166 43.9286 -37.6338 43.904 -37.6338 43.8225C-37.6338 43.7603 -37.9066 42.867 -38.24 41.8374C-38.5733 40.8078 -38.8919 39.8213 -38.9479 39.6453C-39.0445 39.3412 -39.0672 39.3241 -39.4041 39.3034L-39.7587 39.2817L-40.4722 41.5037ZM-34.4264 43.9356L-33.825 43.8859L-33.8114 43.0058C-33.8039 42.5217 -33.7949 42.0807 -33.7914 42.0256C-33.7868 41.9553 -33.6101 41.9256 -33.1954 41.9256H-32.6058L-31.7566 43.9259H-31.4423C-31.0705 43.9259 -31.059 44.0061 -31.6156 42.7195L-32.0082 41.812L-31.7745 41.699C-31.2108 41.4267 -30.998 40.5009 -31.3633 39.911C-31.66 39.4322 -31.9743 39.332 -33.2837 39.299L-34.4264 39.2702V43.9356ZM-29.8073 39.3519C-29.83 39.3885 -29.8413 40.4236 -29.8322 41.6522L-29.8157 43.8859L-26.8087 43.9294V43.3658H-29.2143V41.7656H-27.37V41.2855H-29.2143V39.8453H-26.8889V39.2853H-28.3275C-29.1188 39.2853 -29.7847 39.3153 -29.8073 39.3519ZM-25.3496 41.5556C-25.7551 42.8044 -26.087 43.8508 -26.087 43.8811C-26.087 43.9113 -25.9723 43.9248 -25.832 43.9109C-25.589 43.8871 -25.5684 43.8572 -25.3904 43.2715L-25.2036 42.657L-24.4763 42.6314C-24.0764 42.6172 -23.6874 42.6287 -23.612 42.6568C-23.5287 42.688 -23.3977 42.9461 -23.2776 43.3156L-23.0801 43.9233L-22.7794 43.9246C-22.6139 43.9253 -22.4787 43.8973 -22.4787 43.8623C-22.4787 43.8026 -23.1126 41.8034 -23.6827 40.0654L-23.9385 39.2853H-24.6121L-25.3496 41.5556ZM-21.3971 39.4653C-21.4213 39.5643 -21.431 40.5994 -21.4187 41.7656L-21.3962 43.8859L-18.6298 43.9296V43.3658H-20.7948V39.2853H-21.0739C-21.2968 39.2853 -21.3619 39.3215 -21.3971 39.4653ZM-16.6251 43.9259H-15.1464C-14.1941 43.9259 -13.6491 43.8958 -13.6153 43.8413C-13.5865 43.7948 -13.5851 43.6688 -13.6121 43.5613L-13.6613 43.3658H-15.9836V41.7656H-14.1393V41.2855H-15.9836V39.8453H-13.6582V39.2853H-16.6251V43.9259ZM-8.56642 39.8053L-7.32626 39.8521L-7.28345 43.8859L-6.68205 43.9356V39.8518L-5.35898 39.8053V39.3253L-8.61694 39.2819L-8.56642 39.8053ZM-4.1805 41.5556C-4.58607 42.8044 -4.91797 43.8508 -4.91797 43.8811C-4.91797 43.9113 -4.80321 43.9248 -4.66296 43.9109C-4.41992 43.8871 -4.39932 43.8572 -4.22131 43.2715L-4.03456 42.657L-3.30727 42.6314C-2.9073 42.6172 -2.51833 42.6287 -2.44295 42.6568C-2.35963 42.688 -2.22861 42.9461 -2.10849 43.3156L-1.911 43.9233L-1.61029 43.9246C-1.44487 43.9253 -1.3096 43.8973 -1.3096 43.8623C-1.3096 43.8026 -1.94354 41.8034 -2.5136 40.0654L-2.76947 39.2853H-3.44302L-4.1805 41.5556ZM-1.22942 39.8453H0.050827L0.0936584 43.8859L0.695053 43.9356V39.8518L2.01811 39.8053V39.3253L-1.22942 39.282V39.8453ZM3.10063 43.9259H6.0675V43.3658H3.75278L3.70203 41.7653L5.58638 41.7656V41.2855H4.61557C3.76328 41.2855 3.6507 41.2701 3.69344 41.159C3.72021 41.0893 3.74211 40.7663 3.74211 40.4411V39.8497L6.0274 39.8053V39.3253L3.10063 39.2817V43.9259ZM9.03438 43.936L9.55559 43.8859V41.9931C9.55559 40.9522 9.57756 40.1141 9.60451 40.1307C9.64604 40.1564 10.439 41.4815 10.5579 41.7238C10.58 41.7688 10.8832 42.2845 11.2318 42.8698L11.8655 43.934L12.4423 43.8859V39.3253L11.9241 39.2753L11.881 42.9257L11.6003 42.431C11.446 42.1589 10.9769 41.3406 10.5579 40.6125L9.79614 39.2886L9.03438 39.2853V43.936ZM13.9257 43.9259H16.983L16.9327 43.4058L14.5672 43.3616V41.7656H16.4115V41.2855H14.5672V39.8453H16.8926V39.2853H13.9257V43.9259ZM17.6945 39.3829C17.6945 39.4685 18.3462 42.1012 18.7448 43.6258C18.818 43.906 18.8434 43.9259 19.1271 43.9259H19.4308L19.8569 42.3057C20.0913 41.4145 20.3077 40.6574 20.338 40.6233C20.3683 40.5891 20.6037 41.3182 20.8612 42.2435L21.3294 43.9259H21.6353C21.8863 43.9259 21.949 43.8936 21.9844 43.7459C22.0082 43.6469 22.2554 42.6207 22.5339 41.4655C22.8123 40.3104 23.0222 39.3473 23.0001 39.3253C22.9781 39.3033 22.8613 39.2853 22.7406 39.2853C22.5264 39.2853 22.5163 39.3071 22.3043 40.2254C22.1849 40.7424 21.9919 41.573 21.8754 42.0711L21.6637 42.9767L20.6317 39.2773L20.1401 39.3253L19.1821 43.0058L18.2862 39.3253L17.9903 39.3005C17.7839 39.2831 17.6945 39.3081 17.6945 39.3829ZM-83.6239 39.9144C-84.0884 40.1971 -84.303 40.7203 -84.3111 41.59C-84.3216 42.7081 -83.9254 43.3562 -83.1883 43.4268C-82.6704 43.4765 -82.3173 43.269 -82.0663 42.7676C-81.7017 42.0391 -81.7739 40.7242 -82.2075 40.1953C-82.5506 39.7768 -83.1896 39.6501 -83.6239 39.9144ZM-56.0847 39.9454C-56.5278 40.2384 -56.7504 40.7887 -56.7546 41.6021C-56.7606 42.7582 -56.2983 43.4458 -55.5153 43.4458C-55.0366 43.4458 -54.7418 43.2396 -54.4922 42.7305C-54.3109 42.3608 -54.2781 42.1889 -54.2781 41.6076C-54.2781 41.0392 -54.3121 40.8531 -54.4757 40.5235C-54.7118 40.0481 -55.0995 39.7653 -55.5153 39.7653C-55.6892 39.7653 -55.9252 39.84 -56.0847 39.9454ZM-51.681 40.5054C-51.7216 41.5001 -51.7654 41.4455 -50.9273 41.4455C-50.215 41.4455 -50.2039 41.4425 -49.9343 41.1735C-49.5709 40.8109 -49.5571 40.4174 -49.8961 40.0792C-50.1223 39.8536 -50.1572 39.8453 -50.8923 39.8453H-51.6541L-51.681 40.5054ZM-44.8505 43.3658H-44.2058C-43.3321 43.3658 -42.9874 43.193 -42.7206 42.6211C-42.3713 41.8726 -42.4792 40.762 -42.95 40.2589C-43.2551 39.9328 -43.5204 39.8453 -44.205 39.8453H-44.8505V43.3658ZM-33.7849 41.461L-33.0165 41.4333C-32.2644 41.4061 -32.243 41.3999 -32.0141 41.1442C-31.6945 40.7871 -31.6947 40.3984 -32.0146 40.0792C-32.2411 39.8532 -32.2751 39.8453 -33.0169 39.8453H-33.7849V41.461ZM-39.5079 40.1654C-39.6189 40.4382 -40.1099 42.0419 -40.0888 42.063C-40.0473 42.1044 -38.9087 42.1042 -38.8672 42.0628C-38.8448 42.0405 -38.9689 41.5775 -39.1428 41.0338C-39.3228 40.4713 -39.4801 40.097 -39.5079 40.1654ZM-24.6347 40.9486C-24.7832 41.4199 -24.9215 41.8658 -24.9422 41.9393C-24.9747 42.0548 -24.8916 42.0765 -24.3305 42.0993C-23.9733 42.1138 -23.6811 42.1133 -23.6813 42.0982C-23.6819 42.0135 -24.2718 40.1959 -24.3141 40.1485C-24.342 40.1172 -24.4863 40.4773 -24.6347 40.9486ZM-3.46564 40.9486C-3.61414 41.4199 -3.75246 41.8658 -3.77315 41.9393C-3.80563 42.0548 -3.72255 42.0765 -3.16141 42.0993C-2.80426 42.1138 -2.51207 42.1133 -2.51224 42.0982C-2.51279 42.0135 -3.10272 40.1959 -3.14505 40.1485C-3.17296 40.1172 -3.31721 40.4773 -3.46564 40.9486Z" fill="white"/>
</svg>
