<svg width="193" height="44" viewBox="0 0 193 44" fill="none" xmlns="http://www.w3.org/2000/svg">
<path fill-rule="evenodd" clip-rule="evenodd" d="M172.047 24.1247C171.974 24.2654 171.84 24.9435 171.75 25.6316C171.348 28.6853 171.227 29.5093 171.158 29.669C171.118 29.7628 170.993 30.5049 170.881 31.318C170.664 32.8901 170.247 35.3879 170.152 35.6879C170.121 35.7869 170.045 36.3029 169.983 36.8344C169.784 38.5575 169.523 40.2871 169.355 40.985C169.048 42.2697 168.923 43.4263 169.073 43.607C169.27 43.8444 172.618 43.8469 172.855 43.61C172.944 43.5212 173.052 43.1246 173.094 42.7286C173.136 42.3326 173.235 41.4968 173.312 40.8713L173.454 39.734L176.414 39.6709L176.671 41.4084C176.813 42.364 176.927 43.2337 176.925 43.3409C176.919 43.6979 177.323 43.7714 179.296 43.7714C181.164 43.7714 181.234 43.7631 181.307 43.5316C181.397 43.2493 181.303 42.3052 181.082 41.2693C180.905 40.4383 180.57 38.4411 180.223 36.1515C180.096 35.3071 179.938 34.3522 179.873 34.0295C179.808 33.7068 179.706 32.9647 179.646 32.3804C179.586 31.7962 179.484 31.1573 179.419 30.9609C179.355 30.7645 179.231 30.0992 179.143 29.4824C178.743 26.6659 178.628 25.9137 178.466 25.0782C178.371 24.5861 178.234 24.1127 178.162 24.0262C178.057 23.8996 177.458 23.8688 175.106 23.8688C172.186 23.8688 172.179 23.8693 172.047 24.1247ZM174.696 30.2988C174.793 29.5506 174.874 28.8597 174.876 28.7635C174.879 28.6258 174.916 28.6357 175.047 28.8093C175.166 28.9659 175.216 29.3461 175.221 30.1172C175.225 30.7152 175.274 31.4602 175.331 31.773C175.388 32.0857 175.514 32.9813 175.612 33.7632C175.709 34.5451 175.846 35.4475 175.915 35.7686C175.984 36.0897 176.007 36.4074 175.965 36.4747C175.905 36.5724 174.612 36.5935 174.048 36.506C173.908 36.4842 173.95 35.697 174.141 34.7868C174.239 34.3176 174.365 33.422 174.42 32.7965C174.474 32.171 174.599 31.047 174.696 30.2988Z" fill="white"/>
<path d="M183.21 23.9441C183.098 23.9893 183.068 26.0708 183.068 33.8163V43.6312L183.324 43.6997C183.464 43.7374 185.435 43.769 187.702 43.7698C191.661 43.7713 191.828 43.7627 191.941 43.5514C192.131 43.1977 192.094 40.6435 191.897 40.4802C191.787 40.3891 191.059 40.3386 189.649 40.324L187.563 40.3026L187.534 32.2386C187.513 26.5116 187.468 24.1302 187.378 24.0216C187.28 23.9038 186.804 23.8708 185.302 23.8778C184.229 23.8826 183.288 23.9126 183.21 23.9441Z" fill="white"/>
<path d="M155.463 24.0597C155.286 24.2368 155.277 24.9544 155.346 33.8639C155.398 40.4428 155.46 43.5235 155.543 43.6242C155.724 43.8414 158.801 43.8248 159.092 43.6051C159.292 43.4535 159.3 43.1828 159.262 37.8654C159.241 34.796 159.261 32.2847 159.308 32.2847C159.355 32.2847 159.394 32.3896 159.394 32.5179C159.394 32.6461 159.475 32.9077 159.574 33.0994C159.673 33.291 159.829 33.7363 159.921 34.0888C160.013 34.4414 160.137 34.7786 160.196 34.838C160.256 34.8974 160.304 35.0405 160.304 35.1559C160.304 35.3734 160.792 36.9741 161.042 37.5731C161.12 37.7608 161.35 38.4261 161.553 39.0516C161.756 39.6771 161.965 40.3169 162.017 40.4732C162.068 40.6296 162.301 41.3634 162.534 42.1039C162.768 42.8444 163.031 43.5224 163.119 43.6108C163.244 43.7352 163.676 43.7714 165.043 43.7714C166.041 43.7714 166.902 43.7203 167.027 43.6537C167.242 43.5387 167.247 43.3088 167.247 33.7714C167.247 24.9723 167.229 24 167.067 23.9378C166.726 23.807 163.51 23.8605 163.424 23.9984C163.38 24.0697 163.354 26.2448 163.366 28.8319C163.383 32.6795 163.36 33.5358 163.236 33.5358C163.146 33.5358 163.033 33.2953 162.957 32.9387C162.696 31.7215 162.447 30.8561 162.289 30.6112C162.199 30.4727 162.125 30.269 162.125 30.1586C162.125 30.048 162.028 29.7008 161.909 29.3868C161.79 29.0729 161.58 28.4322 161.444 27.963C161.308 27.4939 161.123 26.9309 161.035 26.712C160.946 26.4931 160.719 25.8043 160.529 25.1816C160.34 24.5588 160.122 24.0093 160.045 23.9607C159.969 23.9121 158.949 23.8715 157.78 23.8705C155.94 23.869 155.628 23.8945 155.463 24.0597Z" fill="white"/>
<path fill-rule="evenodd" clip-rule="evenodd" d="M141.943 23.9626C141.744 24.0447 141.735 24.4631 141.739 33.7657C141.742 42.8526 141.755 43.4923 141.94 43.6272C142.08 43.7296 142.672 43.7714 143.985 43.7714C145.549 43.7714 145.862 43.7426 146.021 43.5841C146.188 43.4164 146.205 42.993 146.18 39.5432C146.151 35.4242 146.18 35.1806 146.656 35.6562C146.795 35.7945 147.007 36.3311 147.173 36.9597C147.327 37.5473 147.559 38.4119 147.688 38.881C147.816 39.3502 147.995 40.0604 148.085 40.4594C148.174 40.8583 148.29 41.2677 148.342 41.3692C148.394 41.4706 148.503 41.8351 148.583 42.1792C148.664 42.5232 148.822 43.0222 148.936 43.288L149.142 43.7714H153.357L153.427 43.4931C153.493 43.2311 153.319 42.4866 153.134 42.236C153.087 42.1735 153.014 41.9176 152.97 41.6674C152.927 41.4172 152.798 40.931 152.685 40.587C152.349 39.5681 152.147 38.8815 151.883 37.8575C151.746 37.3258 151.581 36.7628 151.515 36.6064C151.45 36.4501 151.302 36.0173 151.187 35.645L150.978 34.9677L151.606 34.4084C151.985 34.0709 152.378 33.5729 152.598 33.1523L152.963 32.4553L152.961 27.2238L152.597 26.4841C152.005 25.2809 151.099 24.5828 149.549 24.1362C148.984 23.9734 148.285 23.9341 145.508 23.9081C143.661 23.891 142.057 23.9155 141.943 23.9626ZM146.17 30.0102C146.176 28.6028 146.183 27.4385 146.186 27.4228C146.189 27.4071 146.592 27.3944 147.082 27.3944C147.86 27.3944 148.002 27.4266 148.206 27.6503C148.645 28.1321 148.695 28.3711 148.695 29.9852C148.695 32.2863 148.446 32.6633 146.969 32.6024L146.16 32.5691L146.17 30.0102Z" fill="white"/>
<path d="M127.691 23.9894C127.65 24.0559 127.623 27.5697 127.631 31.798C127.646 40.1046 127.658 40.2785 128.273 41.4968C128.553 42.0515 129.537 43.061 130.086 43.3557C130.996 43.8445 131.8 43.9988 133.437 43.9988C134.767 43.9988 135.16 43.9576 135.803 43.7499C137.583 43.1751 138.581 42.0458 139.127 39.9886C139.353 39.1402 139.362 38.8171 139.362 31.666C139.362 25.0542 139.342 24.2063 139.183 24.0474C139.035 23.8996 138.687 23.869 137.163 23.8704C136.15 23.8712 135.206 23.9028 135.065 23.9404L134.809 24.009V31.677C134.809 39.0236 134.8 39.363 134.59 39.7746C134.267 40.4066 134.118 40.4896 133.372 40.4507C132.743 40.418 132.698 40.3952 132.381 39.9427L132.048 39.469L132.069 31.9778C132.083 27.0496 132.05 24.3809 131.973 24.1777L131.856 23.8688H129.811C128.492 23.8688 127.74 23.9116 127.691 23.9894Z" fill="white"/>
<path fill-rule="evenodd" clip-rule="evenodd" d="M118.363 23.6603C115.698 24.1562 114.584 24.8766 113.677 26.6936L113.241 27.565L113.21 33.6495C113.178 39.6986 113.179 39.738 113.431 40.4164C113.571 40.7917 113.785 41.2779 113.908 41.4968C114.284 42.1679 115.214 43.0425 115.84 43.3144C116.164 43.4545 116.607 43.6512 116.826 43.7514C117.119 43.885 117.685 43.9447 118.958 43.9762C120.513 44.0148 120.77 43.9932 121.462 43.7659C122.637 43.3797 123.042 43.138 123.77 42.3868C124.475 41.6608 124.768 41.1438 125.173 39.9137C125.412 39.1888 125.419 38.9962 125.419 33.7632V28.3611L125.05 27.3609C124.547 26.0005 124.426 25.7891 123.8 25.1793C123 24.4007 122.031 23.9809 120.468 23.7362C119.749 23.6233 119.108 23.5363 119.046 23.5428C118.983 23.5492 118.676 23.6021 118.363 23.6603ZM117.894 27.9304C118.012 27.6935 118.242 27.4239 118.406 27.3314C118.598 27.2229 118.918 27.1772 119.304 27.203C120.013 27.2502 120.515 27.6448 120.696 28.2977C120.85 28.8522 120.846 38.8045 120.691 39.3609C120.626 39.5934 120.443 39.9389 120.283 40.1285C120.013 40.4497 119.94 40.4732 119.224 40.4732C118.366 40.4732 118.276 40.4147 117.861 39.5901C117.62 39.1117 117.617 39.0309 117.648 33.7331C117.678 28.7392 117.695 28.3307 117.894 27.9304Z" fill="white"/>
<path d="M106.44 23.9916C106.254 24.1002 106.241 24.5839 106.241 31.591C106.241 36.6341 106.201 39.1889 106.119 39.4252C105.92 39.9959 105.555 40.1547 104.471 40.143C103.92 40.1371 103.492 40.1828 103.449 40.2522C103.391 40.3455 103.353 42.3 103.39 43.3181C103.408 43.8277 105.827 44.2014 107.022 43.879C108.132 43.5792 108.899 43.1469 109.514 42.4738C109.842 42.114 110.111 41.7599 110.112 41.6866C110.112 41.6135 110.196 41.4001 110.298 41.2125C110.709 40.4563 110.783 38.9841 110.789 31.4683C110.793 25.0314 110.774 24.2063 110.615 24.0474C110.467 23.899 110.115 23.8693 108.538 23.8722C107.461 23.8742 106.553 23.9259 106.44 23.9916Z" fill="white"/>
<path d="M91.0818 23.7265C90.2145 23.8999 89.2826 24.2208 89.2826 24.3462C89.2826 24.3964 89.21 24.4374 89.1213 24.4374C88.8484 24.4374 87.8685 25.516 87.5567 26.1596C87.0574 27.19 86.859 28.2163 86.9451 29.3237C87.146 31.9115 88.1648 33.4915 90.7053 35.1551C92.0849 36.0585 92.3394 36.2489 92.8497 36.7593C93.4521 37.3618 93.6077 37.799 93.6077 38.8883C93.6077 39.9971 93.4239 40.3856 92.7767 40.6443C92.3659 40.8085 92.3012 40.8066 91.9231 40.6192C91.3395 40.3298 91.1199 39.8559 91.0802 38.8003L91.0468 37.9143L89.013 37.8832C86.7319 37.8484 86.6017 37.8834 86.7178 38.5017C86.7565 38.7078 86.8346 39.2829 86.8912 39.7799C87.1136 41.728 88.2347 43.0887 90.1652 43.7536C90.7535 43.9563 91.1386 43.9991 92.3846 44C93.7393 44.001 93.9834 43.9693 94.7909 43.6872C96.4259 43.1161 97.469 41.8804 97.84 40.0752C98.0328 39.1365 97.888 36.5581 97.5981 35.77C97.0167 34.1889 96.026 33.1839 93.3231 31.433C91.6878 30.3736 91.3313 29.8508 91.3313 28.5113C91.3313 27.5189 91.4659 27.2716 92.1236 27.0547C92.5516 26.9135 92.6167 26.9198 92.9001 27.1301C93.3333 27.4514 93.4902 27.8129 93.4921 28.4939C93.495 29.4926 93.3852 29.4415 95.533 29.4415C98.0281 29.4415 97.9236 29.5176 97.6609 27.8923C97.413 26.3596 97.0885 25.6624 96.2255 24.8086C95.2744 23.8678 92.8874 23.3656 91.0818 23.7265Z" fill="white"/>
<path d="M78.3737 23.711C76.3102 24.0919 75.1465 25.006 74.4989 26.7544C74.2952 27.3046 74.248 27.6958 74.2314 28.9721C74.2134 30.3533 74.2387 30.5823 74.4627 31.0766C74.601 31.3817 74.7142 31.6888 74.7143 31.759C74.7148 31.9828 75.7439 33.4645 76.1759 33.863C76.4047 34.0743 76.9762 34.504 77.4457 34.8179C78.7843 35.7131 79.8685 36.5173 80.1596 36.8308C80.6444 37.3533 80.855 37.9648 80.8577 38.8583C80.8606 39.8172 80.6762 40.2723 80.1811 40.5282C79.1018 41.0859 78.2424 40.2956 78.2424 38.7453C78.2424 38.277 78.1894 37.9621 78.1002 37.8998C78.022 37.8453 77.0616 37.8262 75.9661 37.8575L73.9743 37.9143L73.9986 38.7599C74.037 40.1044 74.3046 40.9858 75.0435 42.2023C75.3171 42.6526 75.9701 43.1333 76.9866 43.6326C77.5948 43.9314 77.6809 43.942 79.4944 43.942C81.0768 43.942 81.4709 43.9066 81.9984 43.7175C83.2032 43.2854 84.0053 42.6 84.5564 41.5315C85.0423 40.5894 85.1824 39.8685 85.1839 38.3039C85.1854 36.7963 85.0062 35.9967 84.4024 34.814C84.0153 34.0558 82.8544 32.9719 81.3806 31.9927C80.6339 31.4965 79.7279 30.8192 79.3672 30.4876C78.7913 29.9581 78.6952 29.8069 78.579 29.2474C78.3412 28.1031 78.6115 27.236 79.267 27.0397C80.0979 26.7909 80.7464 27.4384 80.7464 28.5168C80.7464 29.489 80.6412 29.4415 82.7934 29.4415C84.3611 29.4415 84.7277 29.4107 84.8455 29.2689C84.9899 29.095 84.9629 28.5346 84.7468 27.2238C84.3229 24.6516 81.552 23.1243 78.3737 23.711Z" fill="white"/>
<path d="M62.9531 23.9446C62.8222 24.0754 62.8633 43.3055 62.995 43.5514C63.1083 43.7631 63.2795 43.7714 67.5412 43.7714H71.9697L72.1468 43.5186C72.3717 43.1978 72.405 40.7134 72.1874 40.496C72.0902 40.3989 71.3883 40.3595 69.7525 40.3595C67.7617 40.3595 67.445 40.3354 67.3851 40.1796C67.3018 39.9626 67.2917 35.324 67.374 35.1089C67.4195 34.9899 67.7876 34.9653 69.0878 34.9943C70.1638 35.0183 70.7957 34.9881 70.8924 34.9079C71.0965 34.7386 71.2493 32.2745 71.0757 31.9506C70.9569 31.7287 70.8519 31.7161 69.1331 31.7161H67.316V27.3944H69.6371C71.6486 27.3944 71.9674 27.3704 72.0273 27.2145C72.0653 27.1155 72.0963 26.4032 72.0963 25.6316C72.0963 24.8599 72.0653 24.1476 72.0273 24.0487C71.9659 23.8889 71.4596 23.8688 67.4936 23.8688C65.038 23.8688 62.9948 23.9029 62.9531 23.9446Z" fill="white"/>
<path fill-rule="evenodd" clip-rule="evenodd" d="M159.465 0.582727C159.428 0.723523 159.396 0.997271 159.395 1.19129C159.394 1.3852 159.343 1.69227 159.282 1.87367C159.221 2.05495 159.123 2.56161 159.064 2.99947C158.953 3.8322 158.685 5.39938 158.423 6.75253C158.126 8.28913 157.922 9.42449 157.455 12.1547C157.386 12.5613 157.232 13.3545 157.114 13.9175C156.996 14.4804 156.87 15.1969 156.834 15.5097C156.798 15.8224 156.717 16.3598 156.654 16.7038C156.592 17.0479 156.497 17.6186 156.444 17.9719C156.391 18.3254 156.258 18.8495 156.149 19.1364C155.862 19.887 155.993 20.002 157.134 20.002C157.961 20.002 158.041 19.9814 158.133 19.7461C158.315 19.2808 158.597 17.8729 158.597 17.4268C158.597 16.8382 158.888 15.4803 159.057 15.2759C159.167 15.1444 159.584 15.1116 161.149 15.1116C163.275 15.1116 163.375 15.1396 163.38 15.7315C163.381 15.9223 163.478 16.4366 163.594 16.8744C163.71 17.3123 163.843 18.0986 163.889 18.6218C164.003 19.9218 164.11 20.0217 165.345 19.9781L166.28 19.9451L166.258 19.6039C166.233 19.2013 165.948 17.6107 165.787 16.9772C165.724 16.7331 165.639 16.185 165.597 15.7594C165.555 15.3337 165.47 14.822 165.409 14.6221C165.306 14.2849 165.199 13.6706 164.857 11.4723C164.784 11.0032 164.646 10.2867 164.549 9.88009C164.453 9.47351 164.333 8.7122 164.283 8.18825C164.232 7.6643 164.136 7.18061 164.069 7.11351C164.001 7.0463 163.946 6.75856 163.945 6.4739C163.944 6.18935 163.841 5.55098 163.716 5.05535C163.591 4.55972 163.458 3.86882 163.421 3.52001C163.384 3.1712 163.282 2.63338 163.195 2.32483C163.107 2.0164 163.036 1.53964 163.036 1.26544C163.036 0.334 163.022 0.326836 161.167 0.326836C159.57 0.326836 159.533 0.332409 159.465 0.582727ZM160.823 4.17202C160.861 3.65228 160.912 3.16301 160.936 3.08477C161.041 2.74665 161.189 3.00254 161.364 3.82401C161.468 4.30872 161.587 5.08924 161.629 5.55838C161.671 6.02751 161.8 6.68805 161.915 7.02628C162.031 7.3644 162.126 7.87618 162.127 8.16357C162.128 8.45085 162.201 8.993 162.29 9.36831C162.378 9.74361 162.511 10.5113 162.585 11.0742C162.659 11.6372 162.794 12.3189 162.885 12.5892C163.144 13.3589 163.052 13.4059 161.286 13.4041C159.484 13.4023 159.233 13.353 159.335 13.0204C159.376 12.8883 159.452 12.4219 159.504 11.9841C159.556 11.5462 159.681 10.8136 159.781 10.356C159.881 9.8984 159.963 9.35454 159.963 9.14733C159.963 8.94012 160.034 8.59802 160.121 8.38705C160.208 8.17608 160.317 7.61972 160.363 7.15059C160.409 6.68145 160.515 6.03206 160.6 5.70736C160.684 5.38278 160.784 4.69187 160.823 4.17202Z" fill="white"/>
<path fill-rule="evenodd" clip-rule="evenodd" d="M144.225 0.395984C144.179 0.441362 144.142 4.84018 144.142 10.1712C144.142 18.9047 144.16 19.8707 144.322 19.933C144.421 19.9709 145.671 20.002 147.099 20.002C149.419 20.002 149.778 19.9764 150.476 19.7618C151.848 19.3394 152.828 18.6037 153.327 17.6207C153.44 17.3979 153.568 17.1996 153.611 17.1799C153.654 17.1602 153.748 16.8532 153.819 16.4975C153.891 16.1419 153.996 15.6363 154.054 15.374C154.111 15.1117 154.158 12.8087 154.158 10.2562C154.157 5.05808 154.068 4.11686 153.465 2.92271C152.879 1.76221 152.439 1.39327 150.687 0.591938C150.29 0.41054 149.85 0.379153 147.269 0.348559C145.64 0.329226 144.27 0.350606 144.225 0.395984ZM146.419 10.1125C146.419 5.75206 146.453 2.15026 146.495 2.10863C146.536 2.06689 147.164 2.03255 147.889 2.0322C148.855 2.03175 149.359 2.08498 149.776 2.23123C150.525 2.49372 151.366 3.31825 151.531 3.95195C151.599 4.21 151.705 4.61897 151.768 4.86076C151.836 5.122 151.88 7.30241 151.878 10.2345C151.876 14.6914 151.855 15.2437 151.663 15.9462C151.395 16.9245 150.968 17.4606 150.107 17.898C149.48 18.2162 149.343 18.2404 148.069 18.2574C147.269 18.2681 146.644 18.227 146.561 18.1582C146.45 18.0663 146.419 16.3167 146.419 10.1125Z" fill="white"/>
<path d="M139.419 0.297265L138.508 0.335138L138.534 10.0749C138.548 15.4318 138.604 19.859 138.659 19.9133C138.713 19.9674 139.188 19.9968 139.714 19.9784L140.671 19.9451L140.7 10.1715C140.729 0.459218 140.718 0.113252 140.386 0.238013C140.355 0.249727 139.92 0.276453 139.419 0.297265Z" fill="white"/>
<path fill-rule="evenodd" clip-rule="evenodd" d="M126.387 10.0954C126.387 18.8981 126.405 19.8707 126.567 19.933C126.834 20.0354 128.355 20.0132 128.527 19.9044C128.645 19.83 128.68 18.8709 128.698 15.3285L128.72 10.8468L129.419 10.8132C130.105 10.7804 130.122 10.7866 130.358 11.1678C130.49 11.3813 130.598 11.6429 130.598 11.749C130.598 11.8551 130.696 12.1817 130.816 12.4748C130.936 12.7679 131.164 13.4171 131.323 13.9175C131.482 14.4179 131.763 15.2367 131.946 15.7371C132.319 16.7531 132.514 17.337 132.954 18.751C133.119 19.2826 133.31 19.78 133.378 19.8562C133.506 19.9996 135.554 20.0914 135.686 19.9596C135.757 19.8892 135.612 19.4145 135.092 18.0117C134.929 17.5739 134.623 16.7038 134.412 16.0783C134.201 15.4528 133.893 14.5828 133.727 14.1449C133.561 13.7071 133.376 13.1697 133.315 12.9508C133.255 12.7318 133.163 12.4504 133.111 12.3253C132.468 10.7747 132.425 10.6351 132.548 10.4879C132.618 10.4038 132.774 10.335 132.896 10.335C133.498 10.335 134.603 9.36012 134.895 8.5722C135.582 6.72217 135.546 3.64295 134.822 2.3171C134.557 1.83181 133.491 0.781753 133.264 0.781753C133.188 0.781753 132.904 0.680534 132.631 0.556797C132.179 0.351971 131.878 0.331613 129.261 0.329339L126.387 0.326836V10.0954ZM128.663 5.56065C128.663 3.70368 128.697 2.15026 128.739 2.10863C128.891 1.95726 131.355 2.02765 131.755 2.19484C132.786 2.6253 133.102 3.39024 133.102 5.45625C133.102 7.43116 132.965 7.97296 132.335 8.5001C131.679 9.04873 131.449 9.09786 129.944 9.01085L128.663 8.93682V5.56065Z" fill="white"/>
<path fill-rule="evenodd" clip-rule="evenodd" d="M116.826 0.161927C116.545 0.242561 116.196 0.312622 116.052 0.317739C115.441 0.339007 113.926 1.48335 113.555 2.20337C113.459 2.39102 113.347 2.57014 113.307 2.60142C113.267 2.6327 113.107 3.06691 112.953 3.5663L112.672 4.47431V15.9646L112.981 16.7854C113.841 19.069 115.125 20.0263 117.701 20.3061C118.375 20.3792 120.018 20.0049 120.691 19.6249C121.235 19.318 122.13 18.3548 122.454 17.7274C122.6 17.4459 122.827 16.8648 122.959 16.436C123.19 15.6877 123.2 15.4341 123.2 10.1218C123.2 4.87657 123.188 4.54278 122.965 3.73871C122.571 2.31767 121.878 1.3852 120.647 0.616844C120.276 0.385064 118.355 -0.021516 117.737 0.000888658C117.518 0.0088497 117.108 0.0812935 116.826 0.161927ZM115.319 3.41367C115.751 2.5698 116.08 2.27365 116.874 2.01549C118.438 1.50723 119.852 2.07212 120.545 3.4818L120.867 4.13676L120.924 9.5389C120.955 12.5101 120.94 15.2206 120.89 15.5622C120.684 16.9737 119.796 18.0696 118.67 18.3032C117.115 18.6257 116.016 18.1045 115.271 16.6913L114.948 16.0783V4.13676L115.319 3.41367Z" fill="white"/>
<path d="M103.532 0.305797C103.413 0.385179 103.385 2.26865 103.388 10.0966C103.39 15.4276 103.421 19.8371 103.457 19.8956C103.496 19.958 105.02 20.002 107.145 20.002C110.226 20.002 110.787 19.9765 110.908 19.8312C111.096 19.605 111.001 18.4271 110.784 18.2816C110.692 18.2202 109.593 18.1882 108.214 18.2068C106.889 18.2246 105.772 18.2063 105.732 18.1662C105.692 18.1259 105.663 14.0957 105.669 9.20999C105.677 2.07008 105.65 0.326041 105.533 0.322515C105.453 0.32024 105.004 0.293287 104.534 0.262808C104.065 0.232329 103.614 0.251661 103.532 0.305797Z" fill="white"/>
<path d="M92.9238 0.439087C92.9233 0.502434 92.9223 4.91717 92.9215 10.2497L92.9202 19.9451L93.8042 19.9789C95.3049 20.0361 95.1486 20.558 95.1151 15.6C95.0973 12.9708 95.1288 11.2355 95.1962 11.1311C95.2853 10.9929 95.7133 10.9497 97.4447 10.9036L99.583 10.8468L99.6166 10.1492C99.6681 9.07886 99.6557 9.07295 97.3797 9.0883C96.338 9.09535 95.4088 9.07102 95.3149 9.0344C95.1681 8.97696 95.1461 8.49964 95.158 5.62696C95.1655 3.78955 95.2069 2.22919 95.2501 2.15947C95.3039 2.07235 96.1443 2.03277 97.943 2.03277C100.916 2.03277 100.712 2.10783 100.718 1.00921L100.721 0.383701L96.823 0.35379C94.2471 0.334001 92.9244 0.362888 92.9238 0.439087Z" fill="white"/>
<path d="M76.6089 0.326836L75.7152 0.383701L75.7174 10.0747C75.7186 15.4047 75.7525 19.8189 75.7926 19.8838C75.9097 20.073 77.7322 20.0346 77.8942 19.8396C77.9939 19.7196 78.0231 18.5534 78.0063 15.3757L77.9834 11.0742L80.3608 11.0152C81.7527 10.9808 82.7995 11.0002 82.8862 11.0623C83.0036 11.1465 83.0303 12.0569 83.0158 15.4816C83.0049 18.0852 83.0406 19.8379 83.1059 19.9032C83.1655 19.9626 83.6627 19.9964 84.211 19.9782L85.2077 19.9451L85.2081 10.1818C85.2084 4.81198 85.165 0.380289 85.1116 0.333774C85.0582 0.287145 84.5578 0.279296 83.9994 0.316372L82.9844 0.383701L82.9658 9.02712L80.7342 9.05794C79.5068 9.07488 78.3844 9.04497 78.2398 8.99152L77.977 8.8944L77.9674 4.6523C77.9564 -0.249203 78.1073 0.231531 76.6089 0.326836Z" fill="white"/>
<path d="M64.2578 0.365844C64.1703 0.471271 64.1305 0.804384 64.1519 1.25521L64.1861 1.97591L65.7748 2.00775C66.8695 2.02959 67.3917 2.0827 67.4539 2.17835C67.5034 2.25466 67.5408 6.24496 67.5371 11.0457C67.5332 15.8464 67.5618 19.8255 67.6005 19.8881C67.7128 20.0697 69.5396 20.032 69.6949 19.8449C69.7906 19.7297 69.8232 17.363 69.8171 10.9568C69.8127 6.15478 69.8508 2.18392 69.9021 2.13274C69.9533 2.08156 70.6856 2.02538 71.5294 2.00787L73.0638 1.97591L73.1291 1.29353C73.1651 0.918228 73.1725 0.547243 73.1455 0.468998C73.1074 0.358794 72.1704 0.326494 68.9827 0.325243C66.7201 0.324447 64.763 0.295332 64.6334 0.260531C64.4962 0.223683 64.3394 0.267696 64.2578 0.365844Z" fill="white"/>
<path d="M52.15 0.299997C51.9626 0.340939 51.9508 0.803021 51.9508 8.05326C51.9508 12.3488 51.9978 16.0108 52.057 16.3225C52.3718 17.9814 53.1591 19.1209 54.3978 19.7113C56.0222 20.4853 57.7896 20.5026 59.3617 19.7596C60.1212 19.4007 60.4118 19.13 60.9935 18.2392C61.8255 16.9652 61.8504 16.6467 61.7958 8.00356C61.7696 3.87519 61.7462 0.457169 61.7437 0.408038C61.7411 0.358793 61.2469 0.333204 60.6452 0.351173L59.5516 0.383701L59.5196 16.4195L59.1935 17.0625C58.7286 17.9792 58.1273 18.296 56.8523 18.296C55.7987 18.296 55.4624 18.1681 54.9331 17.5657C54.2835 16.8263 54.2942 16.971 54.2553 8.40877C54.2308 2.97115 54.1814 0.465586 54.0967 0.363685C53.9813 0.224708 52.6887 0.182401 52.15 0.299997Z" fill="white"/>
<path d="M48.7355 23.9916C48.5482 24.1006 48.5363 24.6883 48.5363 33.7847C48.5363 42.8678 48.5485 43.4712 48.7355 43.6131C48.8796 43.7224 49.3974 43.7651 50.6095 43.7677C52.1892 43.7712 52.2914 43.758 52.4105 43.5356C52.4985 43.3713 52.5314 41.6931 52.5191 37.9913C52.5094 35.0717 52.5056 32.5932 52.5107 32.4838C52.5275 32.1186 52.7362 32.279 52.8066 32.7112C52.908 33.335 54.0773 37.056 54.4114 37.8178C54.4979 38.0149 54.5686 38.2281 54.5686 38.2917C54.5686 38.3553 54.742 38.9361 54.954 39.5824C55.166 40.2287 55.5019 41.2655 55.7004 41.8862C56.0786 43.0688 56.2172 43.3879 56.4564 43.6268C56.6552 43.8255 60.1525 43.8327 60.3505 43.6349C60.5484 43.4371 60.5484 24.203 60.3505 24.0053C60.1974 23.8523 57.0005 23.8095 56.7678 23.9574C56.6092 24.0582 56.5124 32.2606 56.6606 33.0524C56.7232 33.387 56.7119 33.5358 56.6238 33.5358C56.5536 33.5358 56.4686 33.4461 56.4347 33.3367C56.4008 33.2273 56.2916 32.9586 56.1922 32.7397C56.0927 32.5207 55.9717 32.1113 55.9234 31.8298C55.8751 31.5483 55.499 30.3457 55.0877 29.1572C54.3761 27.1014 54.0113 25.9468 53.7615 24.9606C53.6998 24.7166 53.5452 24.3711 53.4182 24.1929L53.1873 23.8688L51.061 23.8722C49.8295 23.8742 48.8509 23.9245 48.7355 23.9916Z" fill="white"/>
<path fill-rule="evenodd" clip-rule="evenodd" d="M42.504 0.156242C42.2849 0.240516 41.9641 0.313417 41.7909 0.318194C41.0877 0.337528 39.5467 1.51861 39.1825 2.31733C39.1112 2.47359 39.0156 2.60142 38.9701 2.60142C38.9245 2.60142 38.8513 2.79339 38.8075 3.0279C38.7635 3.26253 38.6683 3.52615 38.5957 3.61395C38.4989 3.73075 38.4635 5.42452 38.4635 9.92592C38.4635 15.6347 38.479 16.1276 38.6779 16.7607C38.7959 17.136 38.9624 17.5238 39.0479 17.6227C39.1333 17.7214 39.2033 17.8651 39.2033 17.9422C39.2033 18.1649 40.3506 19.3165 40.8521 19.5971C41.1034 19.7377 41.5394 19.9153 41.8211 19.992C42.1028 20.0685 42.4906 20.1788 42.6828 20.2372C42.875 20.2954 43.2444 20.3432 43.5035 20.3432C44.205 20.3432 45.909 19.9156 46.435 19.6073C47.5306 18.9658 48.2793 17.8345 48.7231 16.15L49.0037 15.0843L48.9623 9.72428C48.9221 4.52629 48.9131 4.34193 48.6662 3.62555C47.965 1.59241 46.8928 0.60024 44.9671 0.203212C43.7607 -0.0456275 43.0631 -0.0589332 42.504 0.156242ZM40.9488 3.55254C41.3697 2.64236 41.8352 2.20587 42.6178 1.98728C43.3299 1.78848 44.3025 1.82601 44.8985 2.07531C45.7048 2.41263 46.1588 3.02654 46.4876 4.22422C46.7134 5.04671 46.7224 5.31727 46.6911 10.354C46.6588 15.5515 46.6547 15.6336 46.3913 16.3756C46.0586 17.3129 45.5834 17.85 44.8007 18.1739C44.3399 18.3646 42.8138 18.3553 42.3333 18.1589C41.792 17.9377 41.2938 17.417 40.9577 16.7215L40.6471 16.0783L40.626 4.25049L40.9488 3.55254Z" fill="white"/>
<path d="M41.6187 24.0027C41.4185 24.2028 41.4161 43.435 41.6162 43.6349C41.8235 43.842 45.618 43.8256 45.7914 43.6168C45.885 43.5041 45.9119 40.8166 45.8907 33.694L45.8616 23.9256L43.8097 23.8947C42.3097 23.8722 41.7204 23.9012 41.6187 24.0027Z" fill="white"/>
<path d="M32.1362 23.8121C30.2549 24.1868 28.9138 25.5534 28.4894 27.5284C28.2956 28.4303 28.4332 30.4918 28.7432 31.3285C29.3432 32.9479 30.4331 34.0962 32.7516 35.5515C33.5482 36.0516 34.6165 37.0067 34.8208 37.4014C35.0577 37.8592 35.1593 39.1776 35.0021 39.7567C34.7856 40.5549 34.0849 40.8932 33.2728 40.5917C32.7314 40.3908 32.4266 39.6232 32.5219 38.7007C32.5943 38.0001 32.4053 37.6781 31.9875 37.7903C31.8559 37.8255 30.9682 37.8551 30.0148 37.8559L28.2813 37.8575L28.2116 38.1347C28.1118 38.5322 28.3802 40.4365 28.6228 41.0525C29.1028 42.2708 29.843 43.0158 31.1223 43.5677C31.9385 43.9198 32.0509 43.9377 33.6832 43.9738C35.2892 44.0094 35.4334 43.9946 36.114 43.7246C36.9103 43.4087 37.836 42.8975 37.8401 42.7715C37.8416 42.7272 38.0285 42.4862 38.2555 42.236C38.4824 41.9858 38.8013 41.4996 38.9642 41.1556C39.2498 40.5522 39.2602 40.456 39.2602 38.4261C39.2602 36.5078 39.2374 36.2633 39.0011 35.6559C38.7227 34.9399 38.3055 34.2916 37.7029 33.6383C37.3334 33.2378 35.5449 31.8962 34.9885 31.6021C34.4705 31.3285 33.4425 30.487 33.1368 30.0866C32.7935 29.6369 32.64 28.7506 32.7632 27.9296C32.8318 27.4726 32.8912 27.3934 33.3445 27.153C33.8461 26.8871 33.8522 26.8868 34.2441 27.0977C34.7456 27.3675 35.0105 27.9189 34.9783 28.6254C34.9646 28.9267 34.9906 29.2334 35.0364 29.3073C35.1244 29.4496 38.671 29.5076 39.0233 29.3725C39.4305 29.2163 39.049 26.847 38.4528 25.8306C38.0837 25.2012 37.7518 24.8753 36.96 24.3641C35.9163 23.6904 33.9037 23.4601 32.1362 23.8121Z" fill="white"/>
<path fill-rule="evenodd" clip-rule="evenodd" d="M1.10321 23.9384C0.990985 23.9882 0.960938 26.0614 0.960938 33.7534V43.5055L1.22488 43.6466C1.53309 43.8115 7.37211 43.75 8.52974 43.5697C10.1038 43.3245 11.2781 42.5354 11.9316 41.2832C12.3476 40.4864 12.5535 38.2688 12.344 36.8445C12.0807 35.0552 11.4431 34.2544 9.62409 33.4285C9.36607 33.3113 9.46236 33.1425 9.8301 33.0673C10.4395 32.9428 10.9737 32.5003 11.5297 31.6592C11.8296 31.2056 11.8304 31.1981 11.8304 28.9297V26.6551L11.4464 26.0296C11.0774 25.4286 10.4652 24.7929 10.246 24.7833C10.1883 24.7807 10.0602 24.7109 9.96144 24.6283C9.86254 24.5455 9.55125 24.4116 9.26955 24.3306C8.98785 24.2497 8.60372 24.1298 8.41593 24.0642C8.05991 23.9397 1.36009 23.8245 1.10321 23.9384ZM5.28597 29.4984C5.25171 28.1287 5.27254 27.1624 5.33844 27.0696C5.47559 26.876 6.44986 26.9405 6.92607 27.1747C7.59053 27.5014 7.72768 27.8441 7.77366 29.2929C7.8111 30.4711 7.7888 30.6643 7.55843 31.1556C7.31065 31.6844 7.28083 31.7064 6.72051 31.7763C6.40103 31.8161 5.96033 31.8316 5.74124 31.8108L5.34288 31.773L5.28597 29.4984ZM5.26332 37.829C5.24272 36.1687 5.27311 35.0091 5.33958 34.9154C5.5185 34.6634 6.79415 34.8134 7.2806 35.1436C7.91149 35.5717 8.0475 36.088 8.0005 37.8753C7.94029 40.1687 7.64721 40.5656 6.00313 40.5806L5.29746 40.587L5.26332 37.829Z" fill="white"/>
<path d="M14.6417 24.0053C14.5381 24.1087 14.5058 25.9593 14.5081 31.6535C14.5107 38.4981 14.5294 39.2462 14.7178 40.0752C14.9719 41.1927 15.2865 41.8234 15.9349 42.5162C16.9308 43.58 18.1808 43.9955 20.3916 43.9975C21.6784 43.9986 22.0186 43.9589 22.7425 43.7228C23.707 43.4082 24.3109 43.0523 24.8117 42.5033C25.2883 41.9807 25.7674 41.0877 25.9007 40.4732C25.9618 40.1918 26.0582 39.7567 26.115 39.5065C26.1718 39.2563 26.2205 35.693 26.2232 31.5878C26.2274 25.3739 26.2019 24.1023 26.071 23.9938C25.9626 23.9038 25.2837 23.8731 23.8801 23.8945L21.8463 23.9256L21.7894 31.6024C21.7394 38.3384 21.7101 39.3284 21.5491 39.6817C21.2554 40.3264 21.0438 40.4732 20.408 40.4732C19.659 40.4732 19.4286 40.3331 19.1641 39.7166C18.9539 39.2264 18.944 38.8654 18.944 31.6725C18.944 25.9669 18.9108 24.1086 18.8074 24.0053C18.6155 23.8135 14.8336 23.8135 14.6417 24.0053Z" fill="white"/>
<path d="M29.9215 0.201508C28.9599 0.449324 28.7369 0.561688 28.1442 1.09667C27.142 2.0015 26.7267 3.54446 26.9847 5.40644C27.069 6.015 27.1894 6.56431 27.2521 6.62698C27.3149 6.68976 27.3664 6.82521 27.3664 6.92802C27.3664 7.03083 27.617 7.46834 27.9234 7.9004C28.4639 8.66273 29.0521 9.23035 30.4874 10.3749C32.2982 11.8191 33.0657 12.7324 33.4023 13.844C33.83 15.2562 33.5603 17.0508 32.7981 17.8634C31.8782 18.844 29.9748 18.6405 29.2252 17.4813C28.9443 17.047 28.9014 16.8594 28.865 15.9077C28.8424 15.3135 28.7713 14.7634 28.7072 14.6851C28.6319 14.5934 28.2739 14.543 27.6979 14.543C26.6077 14.543 26.5317 14.6299 26.6292 15.7642C26.6975 16.5583 27.1229 18.0686 27.2784 18.0686C27.3268 18.0686 27.3664 18.1465 27.3664 18.2417C27.3664 18.5723 28.5821 19.6309 29.2474 19.8796C29.5947 20.0095 29.963 20.1157 30.0658 20.1157C30.1684 20.1157 30.422 20.177 30.6293 20.2519C31.1114 20.4261 32.5168 20.2134 33.3431 19.8413C34.0007 19.5452 34.7976 18.7825 35.1327 18.1284C35.6669 17.0856 35.8316 14.9608 35.5003 13.3869C35.1831 11.88 34.2047 10.4937 32.602 9.28017C30.1544 7.42706 29.4157 6.59843 29.1358 5.39256C28.9096 4.41801 28.9133 3.81582 29.1496 3.17382C29.4005 2.49167 29.6665 2.21178 30.2899 1.97386C31.2444 1.60959 32.5493 1.98273 33.0026 2.74961C33.1477 2.99515 33.2218 3.38092 33.2443 4.00848C33.2621 4.50616 33.317 4.95106 33.3661 4.99712C33.4153 5.0433 33.8531 5.10323 34.3391 5.13053C34.9954 5.16726 35.2559 5.14008 35.3517 5.02476C35.5746 4.75636 35.3955 2.97525 35.072 2.24442C34.3036 0.508461 32.1089 -0.362134 29.9215 0.201508Z" fill="white"/>
</svg>
