<svg width="225" height="44" viewBox="0 0 225 44" fill="none" xmlns="http://www.w3.org/2000/svg">
<path fill-rule="evenodd" clip-rule="evenodd" d="M0.0654297 6.32085H7.52272V34.2446H14.8998V6.32085H22.2769V0H0.0654297V6.32085ZM64.6953 17.0823C64.6953 26.4775 64.7223 34.1661 64.7554 34.1679C64.7885 34.1697 66.4393 34.173 68.4239 34.1754L72.0323 34.1797L72.1124 20.2827L74.1572 20.2588C75.4579 20.2436 76.376 20.2682 76.6804 20.3262C77.927 20.5643 78.7312 21.4009 78.9602 22.6979C79.0054 22.9538 79.0591 24.8373 79.0796 26.8836C79.1163 30.5395 79.1205 30.6177 79.319 31.3856C79.4301 31.8153 79.6201 32.3485 79.7411 32.5703C80.0311 33.102 80.6491 33.7197 81.1388 33.9673C81.9206 34.3626 82.3548 34.4087 85.0799 34.3857L87.5883 34.3646L87.6331 32.3428L87.2631 31.9136C87.0596 31.6774 86.8021 31.3067 86.6908 31.0898C86.2186 30.1691 86.2368 30.3452 86.1817 26.1635C86.1375 22.8122 86.1112 22.2121 85.9889 21.7629C85.6574 20.5447 84.8324 19.2847 83.9165 18.5978C83.4397 18.2401 82.4864 17.7504 82.0755 17.652C81.7446 17.5729 81.8059 17.4818 82.3161 17.2946C84.4275 16.5199 85.6607 14.9636 85.9443 12.7163C86.091 11.5531 86.0131 7.12999 85.8302 6.24084C85.6561 5.39416 85.2965 4.45132 84.8689 3.7205C84.51 3.10698 83.4088 1.94386 82.7914 1.5262C81.7307 0.808428 80.0761 0.236431 78.6075 0.0797702C78.207 0.0370445 74.9511 0.00216015 71.2905 0.00136005L64.6953 0V17.0823ZM145.843 34.2446H151.998C156.943 34.2446 158.35 34.2212 159.155 34.1256C163.951 33.5559 167.021 30.9965 167.985 26.7636C168.168 25.9641 168.168 25.9571 168.194 17.7727C168.223 8.84822 168.213 8.57923 167.774 7.08095C166.862 3.96693 164.663 1.68078 161.593 0.655367C159.727 0.0320038 159.263 0 152.08 0H145.843V34.2446ZM72.1115 5.8547C72.0891 5.91303 72.0802 8.01307 72.0916 10.5214L72.1124 15.082L74.4262 15.1033C76.6311 15.1235 76.7624 15.1163 77.2186 14.9504C77.784 14.7447 78.3466 14.2386 78.5698 13.735C78.8433 13.1181 78.9043 12.3502 78.8716 9.93453C78.8443 7.92034 78.8222 7.59718 78.6905 7.28097C78.4174 6.62545 78.1593 6.33445 77.6071 6.05945L77.0879 5.80078L74.62 5.77469C72.6255 5.75357 72.1444 5.76893 72.1115 5.8547ZM153.22 28.1002L155.486 28.0651C157.494 28.0341 157.807 28.0115 158.249 27.8662C159.539 27.4418 160.326 26.5849 160.637 25.2649C160.814 24.5125 160.815 9.72546 160.638 8.9804C160.382 7.90306 159.728 7.01462 158.891 6.60608C158.135 6.23691 157.541 6.1637 155.285 6.16218L153.22 6.16082V28.1002ZM22.5175 34.2446H28.5314V23.1231H35.4274V34.2446H41.522L41.4814 6.44086L35.4274 6.39894V17.9224H28.5314V6.40086H22.5175V34.2446ZM45.0865 6.50087C45.0654 6.55592 45.0576 12.8117 45.069 20.4027L45.0898 34.2046L60.6058 34.2454V28.9639H51.1438V22.083H57.6358L57.68 21.9029C57.7042 21.8039 57.7139 20.7868 57.7015 19.6426L57.679 17.5623L51.1438 17.5206V11.5215H60.6058V6.40086H52.8653C46.7468 6.40086 45.1168 6.42182 45.0865 6.50087ZM89.553 6.4675C89.4998 6.48519 89.4727 11.1846 89.4727 20.3698V34.2454L104.989 34.2046L105.003 31.7242C105.011 30.3601 105 29.1809 104.978 29.1039C104.94 28.9726 104.644 28.9639 100.212 28.9639H95.4866V22.0974L96.1482 22.0432C96.512 22.0135 97.975 22.0013 99.3992 22.0161C101.934 22.0424 101.99 22.0395 102.028 21.8829C102.049 21.7949 102.057 20.7868 102.044 19.6426L102.022 17.5623L95.4866 17.5206V11.5215H100.168C104.085 11.5215 104.864 11.5032 104.942 11.4094C105.077 11.2465 105.053 6.56512 104.916 6.51279C104.807 6.47079 89.6772 6.42622 89.553 6.4675ZM112.873 6.46446C112.795 6.47935 112.714 6.65545 112.65 6.94453C112.595 7.1956 112.448 7.83305 112.323 8.36112C111.997 9.7309 111.845 10.3796 111.213 13.0817C110.283 17.0533 109.765 19.2644 109.561 20.1158C109.456 20.5596 109.13 21.9489 108.838 23.2031C108.545 24.4573 108.186 25.9875 108.039 26.6036C107.164 30.2798 106.394 33.6046 106.343 33.9245L106.291 34.2467L111.885 34.2046L111.977 33.7645C112.028 33.5225 112.2 32.7124 112.36 31.9643C112.521 31.2162 112.722 30.262 112.809 29.844C112.895 29.4259 112.985 29.0028 113.008 28.9039L113.05 28.7238H115.891C117.491 28.7238 118.751 28.7554 118.776 28.7959C118.815 28.8599 119.425 31.6773 119.747 33.2845C119.814 33.6145 119.902 33.9656 119.944 34.0646L120.02 34.2446H122.944C124.552 34.2446 125.886 34.2152 125.908 34.1793C125.93 34.1434 125.882 33.8464 125.801 33.5192C125.72 33.192 125.576 32.5824 125.481 32.1643C125.387 31.7462 125.241 31.1162 125.157 30.7641C124.856 29.489 124.365 27.3877 124.203 26.6836C124.037 25.9578 123.513 23.7078 123.234 22.523C123.152 22.171 123.005 21.5409 122.908 21.1228C122.812 20.7048 122.63 19.9307 122.505 19.4026C122.38 18.8745 122.165 17.9564 122.028 17.3623C121.762 16.2168 121.376 14.5613 120.823 12.2016C120.5 10.8211 120.332 10.1014 119.913 8.30111C119.808 7.85009 119.674 7.25601 119.616 6.98093C119.557 6.70594 119.472 6.48023 119.426 6.47951C118.242 6.45966 112.961 6.44758 112.873 6.46446ZM127.721 6.4675C127.668 6.48511 127.641 11.2276 127.641 20.3698V34.2454L142.756 34.2046V29.0839L133.655 29.0425V17.7617C133.655 11.5572 133.628 6.48071 133.595 6.48055C133.562 6.48031 132.245 6.47135 130.668 6.46054C129.091 6.44974 127.765 6.45286 127.721 6.4675ZM171.342 34.2446H186.899V28.9639H177.356V22.083H183.932V17.5223H177.356V11.5215H186.899V6.40086H171.342V34.2446ZM194.64 6.50087C194.622 6.55592 194.495 7.08695 194.358 7.68103C194.134 8.64892 193.817 9.99686 192.301 16.4422C192.063 17.4543 191.744 18.8225 191.591 19.4826C191.438 20.1427 191.167 21.2948 190.989 22.0429C190.811 22.791 190.43 24.4113 190.142 25.6434C189.854 26.8756 189.512 28.3338 189.382 28.8839C188.649 31.9731 188.182 34.0134 188.182 34.1217C188.182 34.2299 188.516 34.2446 190.98 34.2446H193.778L193.907 33.6645C194.085 32.8624 194.38 31.4773 194.691 29.984L194.953 28.7238H197.822C199.4 28.7238 200.691 28.7508 200.691 28.7839C200.691 28.8169 200.943 30.032 201.251 31.4842C201.559 32.9364 201.812 34.1515 201.812 34.1846C201.813 34.2176 203.166 34.2446 204.82 34.2446C207.469 34.2446 207.827 34.2299 207.827 34.1218C207.827 34.0543 207.631 33.1632 207.391 32.1416C207.151 31.1199 206.896 30.032 206.824 29.724C206.753 29.4159 206.446 28.1018 206.144 26.8036C205.841 25.5054 205.174 22.643 204.662 20.4427C203.745 16.5054 203.333 14.7389 202.057 9.2942C201.703 7.78312 201.393 6.51391 201.368 6.47383C201.342 6.43174 199.913 6.40086 197.997 6.40086C195.407 6.40086 194.665 6.42294 194.64 6.50087ZM209.511 34.2446H224.746V29.0439H215.525V6.40086H209.511V34.2446ZM197.329 17.2276C196.532 21.01 196.319 22.0254 196.075 23.1908C195.961 23.7341 195.883 24.1938 195.902 24.2124C195.92 24.2309 196.818 24.2364 197.896 24.2247L199.856 24.2032L199.163 20.6428C198.781 18.6845 198.355 16.4909 198.216 15.7681C198.077 15.0454 197.954 14.4447 197.942 14.4332C197.931 14.4218 197.655 15.6792 197.329 17.2276ZM115.992 14.602C115.928 14.8051 115.621 16.2139 115.26 17.9624C115.105 18.7105 114.849 19.9347 114.689 20.6828C114.53 21.4309 114.3 22.529 114.179 23.1231L113.957 24.2032L115.92 24.2247C116.999 24.2364 117.902 24.2269 117.925 24.2036C117.948 24.1801 117.924 23.9365 117.871 23.662C117.818 23.3876 117.631 22.425 117.455 21.5229C117.28 20.6208 116.919 18.7665 116.655 17.4023C116.39 16.0381 116.144 14.814 116.108 14.682C116.052 14.4731 116.037 14.4627 115.992 14.602ZM55.5802 39.289C54.7153 39.4591 54.2672 40.0389 54.4332 40.7731C54.5517 41.2971 54.922 41.5712 55.8347 41.81C56.2757 41.9254 56.7194 42.0725 56.8206 42.1369C57.097 42.3129 57.1785 42.6011 57.0433 42.9242C56.7382 43.653 55.3603 43.6246 54.9067 42.8803C54.7351 42.5987 54.6844 42.566 54.4774 42.6041C54.1504 42.6643 54.1378 42.695 54.3094 43.013C54.5552 43.4682 55.0031 43.8176 55.4685 43.9172C55.9825 44.0273 56.0872 44.0274 56.5949 43.9188C57.2883 43.7703 57.729 43.264 57.739 42.6043C57.7501 41.8722 57.3134 41.51 56.0537 41.2061C55.4823 41.0683 55.2737 40.9802 55.1516 40.8253C54.7511 40.3173 55.1821 39.7653 55.9792 39.7653C56.3861 39.7653 56.821 40.0148 56.9765 40.3375C57.0553 40.5009 57.1189 40.5353 57.2837 40.5039C57.5815 40.4471 57.6067 40.2856 57.3728 39.933C57.0379 39.428 56.2723 39.1529 55.5802 39.289ZM60.3652 39.2804C59.4287 39.4682 58.8306 40.3641 58.8229 41.5908C58.8155 42.7803 59.3251 43.6458 60.1789 43.8934C61.1216 44.1669 61.9353 43.7507 62.3833 42.7657C62.5306 42.4418 62.5657 42.2211 62.5678 41.6056C62.57 40.9498 62.5417 40.7851 62.3618 40.4054C61.9434 39.523 61.2117 39.1106 60.3652 39.2804ZM87.9091 39.2813C87.2657 39.4342 86.7665 39.9123 86.529 40.6029C86.3353 41.1658 86.3503 42.2391 86.5588 42.7508C86.9255 43.6506 87.7716 44.1231 88.6645 43.9269C89.9538 43.6436 90.6017 41.6676 89.8717 40.2454C89.5099 39.5405 88.6322 39.1094 87.9091 39.2813ZM132.412 39.2811C131.46 39.4413 130.984 40.1378 131.286 40.9279C131.468 41.4021 131.717 41.5612 132.693 41.8242C133.62 42.0743 133.896 42.263 133.896 42.6471C133.896 43.1751 133.535 43.4467 132.837 43.4445C132.306 43.4429 131.82 43.1895 131.65 42.827C131.527 42.5619 131.323 42.4958 131.089 42.6447C130.985 42.7108 130.994 42.7691 131.158 43.0784C131.498 43.7215 132.277 44.0693 133.138 43.962C133.949 43.8607 134.453 43.4162 134.517 42.7429C134.596 41.9307 134.226 41.5711 132.974 41.2411C132.027 40.9919 131.792 40.8214 131.827 40.4104C131.895 39.6178 133.421 39.5343 133.753 40.3052C133.805 40.4263 133.853 40.5346 133.859 40.5458C133.876 40.5788 134.377 40.3932 134.377 40.3536C134.377 40.3337 134.325 40.2166 134.261 40.0933C134.081 39.7468 133.611 39.3786 133.276 39.3222C133.11 39.2942 132.919 39.2613 132.853 39.2492C132.787 39.2371 132.589 39.2514 132.412 39.2811ZM168.925 39.3145C168.121 39.5343 167.836 39.9265 167.882 40.7486C167.89 40.8854 168.011 41.0936 168.195 41.2868C168.461 41.5651 168.597 41.629 169.36 41.833C169.835 41.96 170.295 42.1284 170.382 42.2072C170.556 42.3648 170.595 42.7944 170.458 43.0502C170.127 43.6682 168.641 43.5196 168.314 42.8357C168.229 42.6567 168.13 42.5661 168.02 42.5669C167.562 42.5703 167.568 42.8613 168.036 43.3792C168.501 43.8928 169.219 44.096 169.988 43.9314C171.09 43.6956 171.57 42.6204 170.933 41.8129C170.728 41.5534 170.471 41.4439 169.517 41.2094C168.744 41.0195 168.456 40.8187 168.456 40.4693C168.456 39.6533 170.038 39.5031 170.395 40.2852C170.485 40.4827 170.647 40.5318 170.895 40.4369C171.071 40.3692 171.054 40.2609 170.812 39.9125C170.445 39.3831 169.624 39.1232 168.925 39.3145ZM63.8934 40.8815C63.8934 42.75 63.9687 43.2169 64.3278 43.5752C64.669 43.9156 65.3488 44.0645 65.9496 43.9303C66.4551 43.8175 66.7314 43.6146 66.9427 43.2014C67.0862 42.9206 67.1008 42.7257 67.1008 41.0887V39.2853H66.6307L66.5796 42.8829L66.3265 43.1354C65.865 43.5956 64.9045 43.4991 64.6374 42.9657C64.5666 42.8244 64.5369 42.2549 64.5361 41.0255L64.5349 39.2853H63.8934V40.8815ZM68.174 39.4006C68.1497 39.464 68.1421 39.5811 68.1574 39.6607C68.181 39.7839 68.2828 39.8088 68.8457 39.8285L69.5064 39.8518V43.9356L70.1078 43.8859L70.1506 39.8453H71.4309V39.2853H69.8247C68.4997 39.2853 68.2106 39.3055 68.174 39.4006ZM72.4733 43.9259H73.1148V41.7656H75.1996V43.9259H75.8436L75.801 39.3253L75.1996 39.2756V41.2055H73.1148V39.2853H72.4733V43.9259ZM79.2891 43.9259H79.9306V41.7656H81.7748V41.2855H79.9306V39.8498L82.1357 39.8053V39.3253L79.2891 39.2816V43.9259ZM82.9776 43.9296L85.744 43.8859V43.4058L83.6191 43.3612V39.2853H82.9776V43.9296ZM91.4773 43.9356L92.0787 43.8859L92.1238 41.9256H93.298L94.1471 43.9259H94.4614C94.8333 43.9259 94.8449 44.0065 94.2867 42.7163C93.9348 41.9029 93.9077 41.8001 94.0325 41.7539C94.2733 41.665 94.661 41.1569 94.7176 40.856C94.8427 40.1903 94.4277 39.5407 93.7717 39.3759C93.5733 39.3261 92.9759 39.2853 92.4441 39.2853H91.4773V43.9356ZM96.1281 43.9259H96.7629L96.7295 39.3253L96.1281 39.2756V43.9259ZM98.2931 43.9259L99.2754 43.9254C100.439 43.9249 100.768 43.8479 101.176 43.4798C101.666 43.0377 101.859 42.5091 101.86 41.6056C101.861 40.7449 101.719 40.3269 101.264 39.8581C100.848 39.4297 100.544 39.3409 99.3556 39.3017L98.2931 39.2667V43.9259ZM103.313 41.5037C102.92 42.7259 102.584 43.7709 102.564 43.8259C102.541 43.8931 102.619 43.9259 102.802 43.9259C103.073 43.9259 103.075 43.9234 103.258 43.2931C103.381 42.8681 103.484 42.6512 103.573 42.6329C103.646 42.6178 104.033 42.6169 104.433 42.6309L105.16 42.6563L105.359 43.2711C105.557 43.8804 105.562 43.8861 105.855 43.9107C106.069 43.9286 106.151 43.904 106.151 43.8225C106.151 43.7603 105.879 42.867 105.545 41.8374C105.212 40.8078 104.893 39.8213 104.837 39.6453C104.741 39.3412 104.718 39.3241 104.381 39.3034L104.026 39.2817L103.313 41.5037ZM109.359 43.9356L109.96 43.8859L109.974 43.0058C109.981 42.5217 109.99 42.0807 109.994 42.0256C109.998 41.9553 110.175 41.9256 110.59 41.9256H111.179L112.029 43.9259H112.343C112.715 43.9259 112.726 44.0061 112.17 42.7195L111.777 41.812L112.011 41.699C112.574 41.4267 112.787 40.5009 112.422 39.911C112.125 39.4322 111.811 39.332 110.501 39.299L109.359 39.2702V43.9356ZM113.978 39.3519C113.955 39.3885 113.944 40.4236 113.953 41.6522L113.969 43.8859L116.976 43.9294V43.3658H114.571V41.7656H116.415V41.2855H114.571V39.8453H116.896V39.2853H115.458C114.666 39.2853 114 39.3153 113.978 39.3519ZM118.436 41.5556C118.03 42.8044 117.698 43.8508 117.698 43.8811C117.698 43.9113 117.813 43.9248 117.953 43.9109C118.196 43.8871 118.217 43.8572 118.395 43.2715L118.582 42.657L119.309 42.6314C119.709 42.6172 120.098 42.6287 120.173 42.6568C120.256 42.688 120.387 42.9461 120.508 43.3156L120.705 43.9233L121.006 43.9246C121.171 43.9253 121.306 43.8973 121.306 43.8623C121.306 43.8026 120.673 41.8034 120.102 40.0654L119.847 39.2853H119.173L118.436 41.5556ZM122.388 39.4653C122.364 39.5643 122.354 40.5994 122.366 41.7656L122.389 43.8859L125.155 43.9296V43.3658H122.99V39.2853H122.711C122.488 39.2853 122.423 39.3215 122.388 39.4653ZM127.16 43.9259H128.639C129.591 43.9259 130.136 43.8958 130.17 43.8413C130.199 43.7948 130.2 43.6688 130.173 43.5613L130.124 43.3658H127.802V41.7656H129.646V41.2855H127.802V39.8453H130.127V39.2853H127.16V43.9259ZM135.219 39.8053L136.459 39.8521L136.502 43.8859L137.103 43.9356V39.8518L138.426 39.8053V39.3253L135.168 39.2819L135.219 39.8053ZM139.605 41.5556C139.199 42.8044 138.867 43.8508 138.867 43.8811C138.867 43.9113 138.982 43.9248 139.122 43.9109C139.365 43.8871 139.386 43.8572 139.564 43.2715L139.751 42.657L140.478 42.6314C140.878 42.6172 141.267 42.6287 141.342 42.6568C141.426 42.688 141.557 42.9461 141.677 43.3156L141.874 43.9233L142.175 43.9246C142.34 43.9253 142.476 43.8973 142.476 43.8623C142.476 43.8026 141.842 41.8034 141.272 40.0654L141.016 39.2853H140.342L139.605 41.5556ZM142.556 39.8453H143.836L143.879 43.8859L144.48 43.9356V39.8518L145.803 39.8053V39.3253L142.556 39.282V39.8453ZM146.886 43.9259H149.853V43.3658H147.538L147.487 41.7653L149.372 41.7656V41.2855H148.401C147.548 41.2855 147.436 41.2701 147.479 41.159C147.505 41.0893 147.527 40.7663 147.527 40.4411V39.8497L149.813 39.8053V39.3253L146.886 39.2817V43.9259ZM152.82 43.936L153.341 43.8859V41.9931C153.341 40.9522 153.363 40.1141 153.39 40.1307C153.431 40.1564 154.224 41.4815 154.343 41.7238C154.365 41.7688 154.668 42.2845 155.017 42.8698L155.651 43.934L156.227 43.8859V39.3253L155.709 39.2753L155.666 42.9257L155.385 42.431C155.231 42.1589 154.762 41.3406 154.343 40.6125L153.581 39.2886L152.82 39.2853V43.936ZM157.711 43.9259H160.768L160.718 43.4058L158.352 43.3616V41.7656H160.197V41.2855H158.352V39.8453H160.678V39.2853H157.711V43.9259ZM161.48 39.3829C161.48 39.4685 162.131 42.1012 162.53 43.6258C162.603 43.906 162.629 43.9259 162.912 43.9259H163.216L163.642 42.3057C163.876 41.4145 164.093 40.6574 164.123 40.6233C164.153 40.5891 164.389 41.3182 164.646 42.2435L165.115 43.9259H165.421C165.671 43.9259 165.734 43.8936 165.77 43.7459C165.793 43.6469 166.041 42.6207 166.319 41.4655C166.597 40.3104 166.807 39.3473 166.785 39.3253C166.763 39.3033 166.646 39.2853 166.526 39.2853C166.312 39.2853 166.301 39.3071 166.089 40.2254C165.97 40.7424 165.777 41.573 165.661 42.0711L165.449 42.9767L164.417 39.2773L163.925 39.3253L162.967 43.0058L162.071 39.3253L161.775 39.3005C161.569 39.2831 161.48 39.3081 161.48 39.3829ZM60.1613 39.9144C59.6968 40.1971 59.4822 40.7203 59.474 41.59C59.4635 42.7081 59.8597 43.3562 60.5969 43.4268C61.1147 43.4765 61.4678 43.269 61.7188 42.7676C62.0834 42.0391 62.0113 40.7242 61.5776 40.1953C61.2345 39.7768 60.5956 39.6501 60.1613 39.9144ZM87.7004 39.9454C87.2573 40.2384 87.0348 40.7887 87.0305 41.6021C87.0245 42.7582 87.4868 43.4458 88.2699 43.4458C88.7485 43.4458 89.0434 43.2396 89.293 42.7305C89.4743 42.3608 89.5071 42.1889 89.5071 41.6076C89.5071 41.0392 89.4731 40.8531 89.3094 40.5235C89.0734 40.0481 88.6857 39.7653 88.2699 39.7653C88.096 39.7653 87.86 39.84 87.7004 39.9454ZM92.1041 40.5054C92.0636 41.5001 92.0198 41.4455 92.8579 41.4455C93.5702 41.4455 93.5813 41.4425 93.8508 41.1735C94.2142 40.8109 94.228 40.4174 93.8891 40.0792C93.6629 39.8536 93.628 39.8453 92.8929 39.8453H92.131L92.1041 40.5054ZM98.9346 43.3658H99.5793C100.453 43.3658 100.798 43.193 101.065 42.6211C101.414 41.8726 101.306 40.762 100.835 40.2589C100.53 39.9328 100.265 39.8453 99.5801 39.8453H98.9346V43.3658ZM110 41.461L110.769 41.4333C111.521 41.4061 111.542 41.3999 111.771 41.1442C112.091 40.7871 112.09 40.3984 111.771 40.0792C111.544 39.8532 111.51 39.8453 110.768 39.8453H110V41.461ZM104.277 40.1654C104.166 40.4382 103.675 42.0419 103.696 42.063C103.738 42.1044 104.876 42.1042 104.918 42.0628C104.94 42.0405 104.816 41.5775 104.642 41.0338C104.462 40.4713 104.305 40.097 104.277 40.1654ZM119.15 40.9486C119.002 41.4199 118.864 41.8658 118.843 41.9393C118.81 42.0548 118.894 42.0765 119.455 42.0993C119.812 42.1138 120.104 42.1133 120.104 42.0982C120.103 42.0135 119.513 40.1959 119.471 40.1485C119.443 40.1172 119.299 40.4773 119.15 40.9486ZM140.32 40.9486C140.171 41.4199 140.033 41.8658 140.012 41.9393C139.98 42.0548 140.063 42.0765 140.624 42.0993C140.981 42.1138 141.273 42.1133 141.273 42.0982C141.272 42.0135 140.682 40.1959 140.64 40.1485C140.612 40.1172 140.468 40.4773 140.32 40.9486Z" fill="white"/>
</svg>
