<svg width="192" height="44" viewBox="0 0 192 44" fill="none" xmlns="http://www.w3.org/2000/svg">
<path fill-rule="evenodd" clip-rule="evenodd" d="M171.832 24.1247C171.759 24.2654 171.625 24.9435 171.535 25.6316C171.133 28.6853 171.012 29.5093 170.943 29.669C170.903 29.7628 170.778 30.5049 170.666 31.318C170.449 32.8901 170.033 35.3879 169.937 35.6879C169.906 35.7869 169.83 36.3029 169.768 36.8344C169.569 38.5575 169.308 40.2871 169.141 40.985C168.833 42.2697 168.708 43.4263 168.858 43.607C169.056 43.8444 172.404 43.8469 172.641 43.61C172.73 43.5212 172.837 43.1246 172.879 42.7286C172.922 42.3326 173.02 41.4968 173.098 40.8713L173.239 39.734L176.199 39.6709L176.456 41.4084C176.598 42.364 176.712 43.2337 176.71 43.3409C176.704 43.6979 177.108 43.7714 179.082 43.7714C180.949 43.7714 181.019 43.7631 181.092 43.5316C181.182 43.2493 181.088 42.3052 180.867 41.2693C180.69 40.4383 180.355 38.4411 180.008 36.1515C179.881 35.3071 179.723 34.3522 179.658 34.0295C179.593 33.7068 179.491 32.9647 179.431 32.3804C179.371 31.7962 179.269 31.1573 179.205 30.9609C179.14 30.7645 179.016 30.0992 178.928 29.4824C178.528 26.6659 178.413 25.9137 178.251 25.0782C178.156 24.5861 178.019 24.1127 177.948 24.0262C177.842 23.8996 177.244 23.8688 174.891 23.8688C171.972 23.8688 171.964 23.8693 171.832 24.1247ZM174.481 30.2988C174.578 29.5506 174.659 28.8597 174.662 28.7635C174.664 28.6258 174.701 28.6357 174.832 28.8093C174.951 28.9659 175.001 29.3461 175.006 30.1172C175.01 30.7152 175.059 31.4602 175.116 31.773C175.173 32.0857 175.299 32.9813 175.397 33.7632C175.495 34.5451 175.631 35.4475 175.7 35.7686C175.769 36.0897 175.792 36.4074 175.75 36.4747C175.69 36.5724 174.397 36.5935 173.833 36.506C173.693 36.4842 173.736 35.697 173.926 34.7868C174.025 34.3176 174.15 33.422 174.205 32.7965C174.259 32.171 174.384 31.047 174.481 30.2988Z" fill="white"/>
<path d="M182.995 23.9441C182.883 23.9893 182.853 26.0708 182.853 33.8163V43.6312L183.109 43.6997C183.25 43.7374 185.22 43.769 187.487 43.7698C191.446 43.7713 191.613 43.7627 191.726 43.5514C191.916 43.1977 191.879 40.6435 191.682 40.4802C191.572 40.3891 190.844 40.3386 189.434 40.324L187.348 40.3026L187.319 32.2386C187.298 26.5116 187.253 24.1302 187.163 24.0216C187.065 23.9038 186.589 23.8708 185.087 23.8778C184.014 23.8826 183.073 23.9126 182.995 23.9441Z" fill="white"/>
<path d="M155.248 24.0597C155.071 24.2368 155.062 24.9544 155.132 33.8639C155.183 40.4428 155.245 43.5235 155.329 43.6242C155.509 43.8414 158.586 43.8248 158.877 43.6051C159.077 43.4535 159.085 43.1828 159.047 37.8654C159.026 34.796 159.047 32.2847 159.093 32.2847C159.14 32.2847 159.179 32.3896 159.179 32.5179C159.179 32.6461 159.26 32.9077 159.359 33.0994C159.458 33.291 159.615 33.7363 159.706 34.0888C159.798 34.4414 159.922 34.7786 159.981 34.838C160.041 34.8974 160.089 35.0405 160.089 35.1559C160.089 35.3734 160.578 36.9741 160.827 37.5731C160.905 37.7608 161.135 38.4261 161.338 39.0516C161.542 39.6771 161.75 40.3169 161.802 40.4732C161.853 40.6296 162.086 41.3634 162.319 42.1039C162.553 42.8444 162.816 43.5224 162.904 43.6108C163.029 43.7352 163.461 43.7714 164.828 43.7714C165.826 43.7714 166.687 43.7203 166.812 43.6537C167.027 43.5387 167.032 43.3088 167.032 33.7714C167.032 24.9723 167.014 24 166.852 23.9378C166.511 23.807 163.295 23.8605 163.21 23.9984C163.165 24.0697 163.139 26.2448 163.151 28.8319C163.169 32.6795 163.145 33.5358 163.021 33.5358C162.931 33.5358 162.818 33.2953 162.742 32.9387C162.481 31.7215 162.232 30.8561 162.074 30.6112C161.984 30.4727 161.91 30.269 161.91 30.1586C161.91 30.048 161.813 29.7008 161.694 29.3868C161.575 29.0729 161.366 28.4322 161.229 27.963C161.093 27.4939 160.909 26.9309 160.82 26.712C160.731 26.4931 160.504 25.8043 160.314 25.1816C160.125 24.5588 159.907 24.0093 159.83 23.9607C159.754 23.9121 158.734 23.8715 157.565 23.8705C155.725 23.869 155.413 23.8945 155.248 24.0597Z" fill="white"/>
<path fill-rule="evenodd" clip-rule="evenodd" d="M141.728 23.9626C141.529 24.0447 141.52 24.4631 141.524 33.7657C141.527 42.8526 141.54 43.4923 141.725 43.6272C141.865 43.7296 142.457 43.7714 143.77 43.7714C145.335 43.7714 145.647 43.7426 145.806 43.5841C145.974 43.4164 145.99 42.993 145.965 39.5432C145.936 35.4242 145.966 35.1806 146.441 35.6562C146.58 35.7945 146.793 36.3311 146.958 36.9597C147.112 37.5473 147.344 38.4119 147.473 38.881C147.602 39.3502 147.78 40.0604 147.87 40.4594C147.959 40.8583 148.075 41.2677 148.127 41.3692C148.18 41.4706 148.288 41.8351 148.369 42.1792C148.449 42.5232 148.607 43.0222 148.721 43.288L148.927 43.7714H153.142L153.212 43.4931C153.278 43.2311 153.104 42.4866 152.919 42.236C152.873 42.1735 152.799 41.9176 152.755 41.6674C152.712 41.4172 152.584 40.931 152.47 40.587C152.134 39.5681 151.933 38.8815 151.668 37.8575C151.531 37.3258 151.366 36.7628 151.3 36.6064C151.235 36.4501 151.087 36.0173 150.972 35.645L150.763 34.9677L151.391 34.4084C151.77 34.0709 152.164 33.5729 152.384 33.1523L152.748 32.4553L152.746 27.2238L152.382 26.4841C151.79 25.2809 150.884 24.5828 149.334 24.1362C148.769 23.9734 148.07 23.9341 145.293 23.9081C143.447 23.891 141.842 23.9155 141.728 23.9626ZM145.955 30.0102C145.961 28.6028 145.968 27.4385 145.971 27.4228C145.974 27.4071 146.377 27.3944 146.867 27.3944C147.645 27.3944 147.787 27.4266 147.991 27.6503C148.43 28.1321 148.48 28.3711 148.48 29.9852C148.48 32.2863 148.231 32.6633 146.754 32.6024L145.945 32.5691L145.955 30.0102Z" fill="white"/>
<path d="M127.477 23.9894C127.436 24.0559 127.408 27.5697 127.416 31.798C127.432 40.1046 127.443 40.2785 128.058 41.4968C128.338 42.0515 129.322 43.061 129.871 43.3557C130.781 43.8445 131.585 43.9988 133.223 43.9988C134.552 43.9988 134.945 43.9576 135.588 43.7499C137.368 43.1751 138.366 42.0458 138.913 39.9886C139.138 39.1402 139.147 38.8171 139.147 31.666C139.147 25.0542 139.127 24.2063 138.968 24.0474C138.82 23.8996 138.472 23.869 136.948 23.8704C135.935 23.8712 134.991 23.9028 134.851 23.9404L134.594 24.009V31.677C134.594 39.0236 134.585 39.363 134.375 39.7746C134.052 40.4066 133.903 40.4896 133.158 40.4507C132.528 40.418 132.483 40.3952 132.166 39.9427L131.833 39.469L131.855 31.9778C131.869 27.0496 131.836 24.3809 131.758 24.1777L131.641 23.8688H129.596C128.277 23.8688 127.525 23.9116 127.477 23.9894Z" fill="white"/>
<path fill-rule="evenodd" clip-rule="evenodd" d="M118.148 23.6603C115.483 24.1562 114.369 24.8766 113.462 26.6936L113.026 27.565L112.995 33.6495C112.963 39.6986 112.965 39.738 113.217 40.4164C113.356 40.7917 113.57 41.2779 113.693 41.4968C114.069 42.1679 114.999 43.0425 115.625 43.3144C115.949 43.4545 116.392 43.6512 116.611 43.7514C116.904 43.885 117.47 43.9447 118.743 43.9762C120.298 44.0148 120.555 43.9932 121.247 43.7659C122.422 43.3797 122.827 43.138 123.555 42.3868C124.26 41.6608 124.553 41.1438 124.958 39.9137C125.197 39.1888 125.205 38.9962 125.205 33.7632V28.3611L124.835 27.3609C124.332 26.0005 124.211 25.7891 123.585 25.1793C122.785 24.4007 121.816 23.9809 120.254 23.7362C119.534 23.6233 118.893 23.5363 118.831 23.5428C118.768 23.5492 118.461 23.6021 118.148 23.6603ZM117.679 27.9304C117.797 27.6935 118.027 27.4239 118.191 27.3314C118.383 27.2229 118.703 27.1772 119.089 27.203C119.798 27.2502 120.3 27.6448 120.481 28.2977C120.635 28.8522 120.631 38.8045 120.476 39.3609C120.412 39.5934 120.228 39.9389 120.068 40.1285C119.798 40.4497 119.726 40.4732 119.009 40.4732C118.151 40.4732 118.061 40.4147 117.646 39.5901C117.405 39.1117 117.402 39.0309 117.433 33.7331C117.463 28.7392 117.48 28.3307 117.679 27.9304Z" fill="white"/>
<path d="M106.226 23.9916C106.039 24.1002 106.026 24.5839 106.026 31.591C106.026 36.6341 105.987 39.1889 105.904 39.4252C105.705 39.9959 105.34 40.1547 104.257 40.143C103.706 40.1371 103.277 40.1828 103.234 40.2522C103.176 40.3455 103.139 42.3 103.175 43.3181C103.193 43.8277 105.613 44.2014 106.807 43.879C107.917 43.5792 108.684 43.1469 109.299 42.4738C109.627 42.114 109.897 41.7599 109.897 41.6866C109.897 41.6135 109.981 41.4001 110.083 41.2125C110.494 40.4563 110.568 38.9841 110.574 31.4683C110.579 25.0314 110.559 24.2063 110.4 24.0474C110.252 23.899 109.9 23.8693 108.323 23.8722C107.247 23.8742 106.339 23.9259 106.226 23.9916Z" fill="white"/>
<path d="M90.867 23.7265C89.9996 23.8999 89.0678 24.2208 89.0678 24.3462C89.0678 24.3964 88.9952 24.4374 88.9064 24.4374C88.6336 24.4374 87.6536 25.516 87.3419 26.1596C86.8426 27.19 86.6442 28.2163 86.7302 29.3237C86.9311 31.9115 87.95 33.4915 90.4905 35.1551C91.8701 36.0585 92.1246 36.2489 92.6348 36.7593C93.2373 37.3618 93.3928 37.799 93.3928 38.8883C93.3928 39.9971 93.209 40.3856 92.5619 40.6443C92.1511 40.8085 92.0863 40.8066 91.7082 40.6192C91.1247 40.3298 90.905 39.8559 90.8653 38.8003L90.832 37.9143L88.7982 37.8832C86.5171 37.8484 86.3869 37.8834 86.5029 38.5017C86.5416 38.7078 86.6197 39.2829 86.6764 39.7799C86.8988 41.728 88.0199 43.0887 89.9503 43.7536C90.5387 43.9563 90.9238 43.9991 92.1698 44C93.5244 44.001 93.7685 43.9693 94.5761 43.6872C96.211 43.1161 97.2542 41.8804 97.6251 40.0752C97.8179 39.1365 97.6731 36.5581 97.3832 35.77C96.8019 34.1889 95.8112 33.1839 93.1083 31.433C91.473 30.3736 91.1165 29.8508 91.1165 28.5113C91.1165 27.5189 91.251 27.2716 91.9088 27.0547C92.3367 26.9135 92.4018 26.9198 92.6852 27.1301C93.1184 27.4514 93.2754 27.8129 93.2773 28.4939C93.2801 29.4926 93.1703 29.4415 95.3182 29.4415C97.8132 29.4415 97.7088 29.5176 97.4461 27.8923C97.1982 26.3596 96.8737 25.6624 96.0106 24.8086C95.0596 23.8678 92.6726 23.3656 90.867 23.7265Z" fill="white"/>
<path d="M78.1588 23.711C76.0953 24.0919 74.9317 25.006 74.284 26.7544C74.0803 27.3046 74.0332 27.6958 74.0166 28.9721C73.9986 30.3533 74.0239 30.5823 74.2478 31.0766C74.3861 31.3817 74.4994 31.6888 74.4995 31.759C74.5 31.9828 75.5291 33.4645 75.961 33.863C76.1899 34.0743 76.7614 34.504 77.2309 34.8179C78.5695 35.7131 79.6537 36.5173 79.9447 36.8308C80.4296 37.3533 80.6401 37.9648 80.6429 38.8583C80.6457 39.8172 80.4613 40.2723 79.9662 40.5282C78.8869 41.0859 78.0276 40.2956 78.0276 38.7453C78.0276 38.277 77.9745 37.9621 77.8853 37.8998C77.8071 37.8453 76.8467 37.8262 75.7513 37.8575L73.7595 37.9143L73.7837 38.7599C73.8222 40.1044 74.0898 40.9858 74.8287 42.2023C75.1023 42.6526 75.7552 43.1333 76.7717 43.6326C77.38 43.9314 77.466 43.942 79.2796 43.942C80.862 43.942 81.2561 43.9066 81.7835 43.7175C82.9884 43.2854 83.7905 42.6 84.3416 41.5315C84.8274 40.5894 84.9676 39.8685 84.969 38.3039C84.9705 36.7963 84.7914 35.9967 84.1876 34.814C83.8005 34.0558 82.6395 32.9719 81.1657 31.9927C80.4191 31.4965 79.513 30.8192 79.1523 30.4876C78.5764 29.9581 78.4803 29.8069 78.3641 29.2474C78.1264 28.1031 78.3967 27.236 79.0522 27.0397C79.883 26.7909 80.5315 27.4384 80.5315 28.5168C80.5315 29.489 80.4264 29.4415 82.5785 29.4415C84.1462 29.4415 84.5129 29.4107 84.6307 29.2689C84.7751 29.095 84.748 28.5346 84.532 27.2238C84.108 24.6516 81.3372 23.1243 78.1588 23.711Z" fill="white"/>
<path d="M62.7383 23.9446C62.6074 24.0754 62.6485 43.3055 62.7801 43.5514C62.8935 43.7631 63.0647 43.7714 67.3263 43.7714H71.7548L71.9319 43.5186C72.1568 43.1978 72.1902 40.7134 71.9725 40.496C71.8753 40.3989 71.1734 40.3595 69.5377 40.3595C67.5469 40.3595 67.2301 40.3354 67.1703 40.1796C67.087 39.9626 67.0768 35.324 67.1591 35.1089C67.2047 34.9899 67.5727 34.9653 68.873 34.9943C69.949 35.0183 70.5809 34.9881 70.6775 34.9079C70.8816 34.7386 71.0345 32.2745 70.8609 31.9506C70.7421 31.7287 70.637 31.7161 68.9183 31.7161H67.1012V27.3944H69.4223C71.4337 27.3944 71.7525 27.3704 71.8124 27.2145C71.8504 27.1155 71.8815 26.4032 71.8815 25.6316C71.8815 24.8599 71.8504 24.1476 71.8124 24.0487C71.7511 23.8889 71.2448 23.8688 67.2787 23.8688C64.8232 23.8688 62.7799 23.9029 62.7383 23.9446Z" fill="white"/>
<path fill-rule="evenodd" clip-rule="evenodd" d="M159.251 0.582727C159.213 0.723523 159.181 0.997271 159.18 1.19129C159.18 1.3852 159.129 1.69227 159.067 1.87367C159.006 2.05495 158.908 2.56161 158.849 2.99947C158.738 3.8322 158.471 5.39938 158.208 6.75253C157.911 8.28913 157.707 9.42449 157.24 12.1547C157.171 12.5613 157.017 13.3545 156.9 13.9175C156.782 14.4804 156.655 15.1969 156.619 15.5097C156.583 15.8224 156.502 16.3598 156.439 16.7038C156.377 17.0479 156.283 17.6186 156.23 17.9719C156.177 18.3254 156.044 18.8495 155.934 19.1364C155.647 19.887 155.778 20.002 156.919 20.002C157.746 20.002 157.826 19.9814 157.918 19.7461C158.101 19.2808 158.382 17.8729 158.382 17.4268C158.382 16.8382 158.673 15.4803 158.843 15.2759C158.952 15.1444 159.369 15.1116 160.934 15.1116C163.06 15.1116 163.16 15.1396 163.165 15.7315C163.167 15.9223 163.263 16.4366 163.379 16.8744C163.495 17.3123 163.628 18.0986 163.674 18.6218C163.788 19.9218 163.895 20.0217 165.13 19.9781L166.065 19.9451L166.044 19.6039C166.019 19.2013 165.733 17.6107 165.572 16.9772C165.51 16.7331 165.424 16.185 165.382 15.7594C165.34 15.3337 165.256 14.822 165.194 14.6221C165.091 14.2849 164.984 13.6706 164.642 11.4723C164.569 11.0032 164.431 10.2867 164.335 9.88009C164.238 9.47351 164.118 8.7122 164.068 8.18825C164.017 7.6643 163.921 7.18061 163.854 7.11351C163.786 7.0463 163.731 6.75856 163.73 6.4739C163.729 6.18935 163.626 5.55098 163.501 5.05535C163.376 4.55972 163.243 3.86882 163.206 3.52001C163.169 3.1712 163.067 2.63338 162.98 2.32483C162.892 2.0164 162.821 1.53964 162.821 1.26544C162.821 0.334 162.807 0.326836 160.952 0.326836C159.355 0.326836 159.318 0.332409 159.251 0.582727ZM160.608 4.17202C160.646 3.65228 160.697 3.16301 160.721 3.08477C160.826 2.74665 160.974 3.00254 161.149 3.82401C161.253 4.30872 161.372 5.08924 161.414 5.55838C161.456 6.02751 161.585 6.68805 161.7 7.02628C161.816 7.3644 161.911 7.87618 161.912 8.16357C161.913 8.45085 161.986 8.993 162.075 9.36831C162.163 9.74361 162.297 10.5113 162.37 11.0742C162.445 11.6372 162.579 12.3189 162.67 12.5892C162.929 13.3589 162.837 13.4059 161.071 13.4041C159.269 13.4023 159.018 13.353 159.12 13.0204C159.161 12.8883 159.237 12.4219 159.289 11.9841C159.341 11.5462 159.466 10.8136 159.566 10.356C159.666 9.8984 159.748 9.35454 159.748 9.14733C159.748 8.94012 159.819 8.59802 159.906 8.38705C159.993 8.17608 160.102 7.61972 160.148 7.15059C160.194 6.68145 160.3 6.03206 160.385 5.70736C160.469 5.38278 160.569 4.69187 160.608 4.17202Z" fill="white"/>
<path fill-rule="evenodd" clip-rule="evenodd" d="M144.01 0.395984C143.965 0.441362 143.927 4.84018 143.927 10.1712C143.927 18.9047 143.945 19.8707 144.107 19.933C144.206 19.9709 145.456 20.002 146.884 20.002C149.204 20.002 149.563 19.9764 150.261 19.7618C151.633 19.3394 152.613 18.6037 153.112 17.6207C153.225 17.3979 153.353 17.1996 153.396 17.1799C153.44 17.1602 153.533 16.8532 153.604 16.4975C153.676 16.1419 153.781 15.6363 153.839 15.374C153.896 15.1117 153.943 12.8087 153.943 10.2562C153.942 5.05808 153.854 4.11686 153.25 2.92271C152.664 1.76221 152.224 1.39327 150.472 0.591938C150.075 0.41054 149.635 0.379153 147.055 0.348559C145.425 0.329226 144.055 0.350606 144.01 0.395984ZM146.204 10.1125C146.204 5.75206 146.238 2.15026 146.28 2.10863C146.321 2.06689 146.949 2.03255 147.674 2.0322C148.64 2.03175 149.144 2.08498 149.561 2.23123C150.31 2.49372 151.151 3.31825 151.317 3.95195C151.384 4.21 151.491 4.61897 151.553 4.86076C151.621 5.122 151.666 7.30241 151.664 10.2345C151.661 14.6914 151.64 15.2437 151.448 15.9462C151.18 16.9245 150.753 17.4606 149.892 17.898C149.265 18.2162 149.128 18.2404 147.854 18.2574C147.054 18.2681 146.429 18.227 146.346 18.1582C146.235 18.0663 146.204 16.3167 146.204 10.1125Z" fill="white"/>
<path d="M139.204 0.297265L138.293 0.335138L138.319 10.0749C138.334 15.4318 138.389 19.859 138.444 19.9133C138.498 19.9674 138.973 19.9968 139.499 19.9784L140.456 19.9451L140.485 10.1715C140.514 0.459218 140.503 0.113252 140.171 0.238013C140.14 0.249727 139.705 0.276453 139.204 0.297265Z" fill="white"/>
<path fill-rule="evenodd" clip-rule="evenodd" d="M126.172 10.0954C126.172 18.8981 126.19 19.8707 126.352 19.933C126.619 20.0354 128.141 20.0132 128.312 19.9044C128.43 19.83 128.465 18.8709 128.483 15.3285L128.505 10.8468L129.204 10.8132C129.891 10.7804 129.907 10.7866 130.143 11.1678C130.275 11.3813 130.383 11.6429 130.383 11.749C130.383 11.8551 130.481 12.1817 130.601 12.4748C130.721 12.7679 130.949 13.4171 131.108 13.9175C131.267 14.4179 131.548 15.2367 131.731 15.7371C132.104 16.7531 132.299 17.337 132.739 18.751C132.904 19.2826 133.095 19.78 133.163 19.8562C133.291 19.9996 135.34 20.0914 135.472 19.9596C135.542 19.8892 135.397 19.4145 134.877 18.0117C134.714 17.5739 134.409 16.7038 134.197 16.0783C133.986 15.4528 133.678 14.5828 133.512 14.1449C133.347 13.7071 133.161 13.1697 133.101 12.9508C133.04 12.7318 132.948 12.4504 132.896 12.3253C132.253 10.7747 132.21 10.6351 132.333 10.4879C132.403 10.4038 132.56 10.335 132.682 10.335C133.283 10.335 134.388 9.36012 134.68 8.5722C135.367 6.72217 135.331 3.64295 134.607 2.3171C134.342 1.83181 133.276 0.781753 133.049 0.781753C132.974 0.781753 132.689 0.680534 132.416 0.556797C131.964 0.351971 131.663 0.331613 129.046 0.329339L126.172 0.326836V10.0954ZM128.448 5.56065C128.448 3.70368 128.482 2.15026 128.524 2.10863C128.676 1.95726 131.14 2.02765 131.54 2.19484C132.571 2.6253 132.887 3.39024 132.887 5.45625C132.887 7.43116 132.751 7.97296 132.12 8.5001C131.464 9.04873 131.234 9.09786 129.729 9.01085L128.448 8.93682V5.56065Z" fill="white"/>
<path fill-rule="evenodd" clip-rule="evenodd" d="M116.611 0.161927C116.33 0.242561 115.981 0.312622 115.837 0.317739C115.226 0.339007 113.711 1.48335 113.341 2.20337C113.244 2.39102 113.132 2.57014 113.092 2.60142C113.052 2.6327 112.892 3.06691 112.738 3.5663L112.457 4.47431V15.9646L112.766 16.7854C113.627 19.069 114.91 20.0263 117.487 20.3061C118.161 20.3792 119.804 20.0049 120.477 19.6249C121.02 19.318 121.915 18.3548 122.239 17.7274C122.385 17.4459 122.612 16.8648 122.745 16.436C122.975 15.6877 122.985 15.4341 122.985 10.1218C122.985 4.87657 122.973 4.54278 122.75 3.73871C122.356 2.31767 121.664 1.3852 120.433 0.616844C120.061 0.385064 118.14 -0.021516 117.522 0.000888658C117.303 0.0088497 116.893 0.0812935 116.611 0.161927ZM115.104 3.41367C115.536 2.5698 115.865 2.27365 116.659 2.01549C118.223 1.50723 119.637 2.07212 120.33 3.4818L120.652 4.13676L120.709 9.5389C120.74 12.5101 120.725 15.2206 120.675 15.5622C120.469 16.9737 119.581 18.0696 118.455 18.3032C116.9 18.6257 115.801 18.1045 115.056 16.6913L114.733 16.0783V4.13676L115.104 3.41367Z" fill="white"/>
<path d="M103.318 0.305797C103.198 0.385179 103.17 2.26865 103.173 10.0966C103.175 15.4276 103.206 19.8371 103.243 19.8956C103.281 19.958 104.805 20.002 106.93 20.002C110.012 20.002 110.572 19.9765 110.693 19.8312C110.881 19.605 110.787 18.4271 110.569 18.2816C110.477 18.2202 109.378 18.1882 107.999 18.2068C106.674 18.2246 105.557 18.2063 105.517 18.1662C105.477 18.1259 105.448 14.0957 105.454 9.20999C105.462 2.07008 105.435 0.326041 105.318 0.322515C105.238 0.32024 104.789 0.293287 104.319 0.262808C103.85 0.232329 103.399 0.251661 103.318 0.305797Z" fill="white"/>
<path d="M92.7089 0.439087C92.7085 0.502434 92.7074 4.91717 92.7066 10.2497L92.7054 19.9451L93.5894 19.9789C95.0901 20.0361 94.9338 20.558 94.9002 15.6C94.8825 12.9708 94.914 11.2355 94.9814 11.1311C95.0705 10.9929 95.4984 10.9497 97.2298 10.9036L99.3682 10.8468L99.4018 10.1492C99.4532 9.07886 99.4408 9.07295 97.1648 9.0883C96.1232 9.09535 95.194 9.07102 95.1001 9.0344C94.9533 8.97696 94.9313 8.49964 94.9431 5.62696C94.9506 3.78955 94.9921 2.22919 95.0352 2.15947C95.089 2.07235 95.9295 2.03277 97.7281 2.03277C100.701 2.03277 100.497 2.10783 100.503 1.00921L100.506 0.383701L96.6081 0.35379C94.0322 0.334001 92.7096 0.362888 92.7089 0.439087Z" fill="white"/>
<path d="M76.3941 0.326836L75.5004 0.383701L75.5026 10.0747C75.5037 15.4047 75.5376 19.8189 75.5778 19.8838C75.6948 20.073 77.5173 20.0346 77.6793 19.8396C77.779 19.7196 77.8083 18.5534 77.7914 15.3757L77.7685 11.0742L80.1459 11.0152C81.5378 10.9808 82.5847 11.0002 82.6713 11.0623C82.7888 11.1465 82.8154 12.0569 82.8009 15.4816C82.79 18.0852 82.8258 19.8379 82.8911 19.9032C82.9506 19.9626 83.4479 19.9964 83.9961 19.9782L84.9928 19.9451L84.9933 10.1818C84.9935 4.81198 84.9501 0.380289 84.8968 0.333774C84.8434 0.287145 84.3429 0.279296 83.7845 0.316372L82.7695 0.383701L82.751 9.02712L80.5194 9.05794C79.292 9.07488 78.1695 9.04497 78.025 8.99152L77.7622 8.8944L77.7526 4.6523C77.7416 -0.249203 77.8925 0.231531 76.3941 0.326836Z" fill="white"/>
<path d="M64.0429 0.365844C63.9554 0.471271 63.9157 0.804384 63.9371 1.25521L63.9712 1.97591L65.56 2.00775C66.6547 2.02959 67.1769 2.0827 67.239 2.17835C67.2885 2.25466 67.326 6.24496 67.3222 11.0457C67.3184 15.8464 67.3469 19.8255 67.3856 19.8881C67.498 20.0697 69.3247 20.032 69.4801 19.8449C69.5758 19.7297 69.6083 17.363 69.6023 10.9568C69.5979 6.15478 69.636 2.18392 69.6872 2.13274C69.7384 2.08156 70.4707 2.02538 71.3146 2.00787L72.8489 1.97591L72.9143 1.29353C72.9502 0.918228 72.9576 0.547243 72.9306 0.468998C72.8925 0.358794 71.9556 0.326494 68.7678 0.325243C66.5052 0.324447 64.5482 0.295332 64.4185 0.260531C64.2814 0.223683 64.1245 0.267696 64.0429 0.365844Z" fill="white"/>
<path d="M51.9351 0.299997C51.7478 0.340939 51.7359 0.803021 51.7359 8.05326C51.7359 12.3488 51.783 16.0108 51.8421 16.3225C52.157 17.9814 52.9442 19.1209 54.183 19.7113C55.8074 20.4853 57.5747 20.5026 59.1469 19.7596C59.9064 19.4007 60.197 19.13 60.7787 18.2392C61.6107 16.9652 61.6356 16.6467 61.581 8.00356C61.5548 3.87519 61.5313 0.457169 61.5288 0.408038C61.5262 0.358793 61.032 0.333204 60.4304 0.351173L59.3367 0.383701L59.3047 16.4195L58.9787 17.0625C58.5137 17.9792 57.9124 18.296 56.6375 18.296C55.5839 18.296 55.2475 18.1681 54.7183 17.5657C54.0686 16.8263 54.0793 16.971 54.0405 8.40877C54.0159 2.97115 53.9665 0.465586 53.8818 0.363685C53.7664 0.224708 52.4738 0.182401 51.9351 0.299997Z" fill="white"/>
<path d="M48.5206 23.9916C48.3334 24.1006 48.3214 24.6883 48.3214 33.7847C48.3214 42.8678 48.3336 43.4712 48.5206 43.6131C48.6647 43.7224 49.1826 43.7651 50.3946 43.7677C51.9744 43.7712 52.0766 43.758 52.1957 43.5356C52.2836 43.3713 52.3165 41.6931 52.3042 37.9913C52.2946 35.0717 52.2908 32.5932 52.2958 32.4838C52.3127 32.1186 52.5214 32.279 52.5917 32.7112C52.6931 33.335 53.8625 37.056 54.1965 37.8178C54.2831 38.0149 54.3537 38.2281 54.3537 38.2917C54.3537 38.3553 54.5272 38.9361 54.7391 39.5824C54.9511 40.2287 55.287 41.2655 55.4855 41.8862C55.8637 43.0688 56.0024 43.3879 56.2416 43.6268C56.4403 43.8255 59.9377 43.8327 60.1356 43.6349C60.3335 43.4371 60.3335 24.203 60.1356 24.0053C59.9825 23.8523 56.7856 23.8095 56.553 23.9574C56.3943 24.0582 56.2976 32.2606 56.4458 33.0524C56.5084 33.387 56.497 33.5358 56.4089 33.5358C56.3388 33.5358 56.2538 33.4461 56.2199 33.3367C56.1859 33.2273 56.0768 32.9586 55.9773 32.7397C55.8778 32.5207 55.7569 32.1113 55.7086 31.8298C55.6602 31.5483 55.2842 30.3457 54.8728 29.1572C54.1613 27.1014 53.7965 25.9468 53.5467 24.9606C53.485 24.7166 53.3304 24.3711 53.2034 24.1929L52.9725 23.8688L50.8461 23.8722C49.6146 23.8742 48.636 23.9245 48.5206 23.9916Z" fill="white"/>
<path fill-rule="evenodd" clip-rule="evenodd" d="M42.2892 0.156242C42.0701 0.240516 41.7492 0.313417 41.5761 0.318194C40.8728 0.337528 39.3319 1.51861 38.9677 2.31733C38.8964 2.47359 38.8008 2.60142 38.7553 2.60142C38.7096 2.60142 38.6364 2.79339 38.5926 3.0279C38.5487 3.26253 38.4534 3.52615 38.3808 3.61395C38.2841 3.73075 38.2487 5.42452 38.2487 9.92592C38.2487 15.6347 38.2642 16.1276 38.4631 16.7607C38.581 17.136 38.7475 17.5238 38.833 17.6227C38.9185 17.7214 38.9885 17.8651 38.9885 17.9422C38.9885 18.1649 40.1357 19.3165 40.6372 19.5971C40.8885 19.7377 41.3246 19.9153 41.6063 19.992C41.888 20.0685 42.2757 20.1788 42.468 20.2372C42.6602 20.2954 43.0295 20.3432 43.2887 20.3432C43.9902 20.3432 45.6941 19.9156 46.2202 19.6073C47.3158 18.9658 48.0644 17.8345 48.5082 16.15L48.7889 15.0843L48.7475 9.72428C48.7073 4.52629 48.6983 4.34193 48.4513 3.62555C47.7502 1.59241 46.6779 0.60024 44.7523 0.203212C43.5458 -0.0456275 42.8482 -0.0589332 42.2892 0.156242ZM40.734 3.55254C41.1549 2.64236 41.6204 2.20587 42.403 1.98728C43.115 1.78848 44.0877 1.82601 44.6836 2.07531C45.4899 2.41263 45.9439 3.02654 46.2727 4.22422C46.4986 5.04671 46.5076 5.31727 46.4763 10.354C46.4439 15.5515 46.4398 15.6336 46.1765 16.3756C45.8438 17.3129 45.3686 17.85 44.5859 18.1739C44.125 18.3646 42.599 18.3553 42.1184 18.1589C41.5771 17.9377 41.0789 17.417 40.7429 16.7215L40.4322 16.0783L40.4112 4.25049L40.734 3.55254Z" fill="white"/>
<path d="M41.4039 24.0027C41.2037 24.2028 41.2013 43.435 41.4014 43.6349C41.6087 43.842 45.4032 43.8256 45.5765 43.6168C45.6702 43.5041 45.6971 40.8166 45.6759 33.694L45.6468 23.9256L43.5949 23.8947C42.0949 23.8722 41.5055 23.9012 41.4039 24.0027Z" fill="white"/>
<path d="M31.9214 23.8121C30.0401 24.1868 28.699 25.5534 28.2746 27.5284C28.0808 28.4303 28.2184 30.4918 28.5284 31.3285C29.1283 32.9479 30.2182 34.0962 32.5368 35.5515C33.3334 36.0516 34.4017 37.0067 34.606 37.4014C34.8428 37.8592 34.9445 39.1776 34.7873 39.7567C34.5708 40.5549 33.87 40.8932 33.058 40.5917C32.5165 40.3908 32.2117 39.6232 32.3071 38.7007C32.3795 38.0001 32.1904 37.6781 31.7726 37.7903C31.6411 37.8255 30.7534 37.8551 29.8 37.8559L28.0664 37.8575L27.9968 38.1347C27.8969 38.5322 28.1653 40.4365 28.408 41.0525C28.8879 42.2708 29.6282 43.0158 30.9075 43.5677C31.7237 43.9198 31.836 43.9377 33.4684 43.9738C35.0743 44.0094 35.2185 43.9946 35.8992 43.7246C36.6954 43.4087 37.6212 42.8975 37.6253 42.7715C37.6268 42.7272 37.8137 42.4862 38.0406 42.236C38.2676 41.9858 38.5865 41.4996 38.7494 41.1556C39.0349 40.5522 39.0454 40.456 39.0454 38.4261C39.0454 36.5078 39.0225 36.2633 38.7862 35.6559C38.5078 34.9399 38.0907 34.2916 37.488 33.6383C37.1186 33.2378 35.3301 31.8962 34.7736 31.6021C34.2556 31.3285 33.2277 30.487 32.9219 30.0866C32.5787 29.6369 32.4251 28.7506 32.5484 27.9296C32.6169 27.4726 32.6763 27.3934 33.1297 27.153C33.6312 26.8871 33.6374 26.8868 34.0293 27.0977C34.5307 27.3675 34.7957 27.9189 34.7635 28.6254C34.7497 28.9267 34.7758 29.2334 34.8215 29.3073C34.9095 29.4496 38.4562 29.5076 38.8084 29.3725C39.2157 29.2163 38.8341 26.847 38.238 25.8306C37.8689 25.2012 37.537 24.8753 36.7452 24.3641C35.7015 23.6904 33.6888 23.4601 31.9214 23.8121Z" fill="white"/>
<path fill-rule="evenodd" clip-rule="evenodd" d="M0.888365 23.9384C0.776141 23.9882 0.746094 26.0614 0.746094 33.7534V43.5055L1.01003 43.6466C1.31825 43.8115 7.15727 43.75 8.3149 43.5697C9.88898 43.3245 11.0632 42.5354 11.7168 41.2832C12.1328 40.4864 12.3387 38.2688 12.1291 36.8445C11.8659 35.0552 11.2283 34.2544 9.40925 33.4285C9.15122 33.3113 9.24751 33.1425 9.61525 33.0673C10.2246 32.9428 10.7589 32.5003 11.3149 31.6592C11.6148 31.2056 11.6156 31.1981 11.6156 28.9297V26.6551L11.2316 26.0296C10.8626 25.4286 10.2504 24.7929 10.0311 24.7833C9.97343 24.7807 9.84539 24.7109 9.7466 24.6283C9.64769 24.5455 9.3364 24.4116 9.05471 24.3306C8.77301 24.2497 8.38888 24.1298 8.20108 24.0642C7.84506 23.9397 1.14525 23.8245 0.888365 23.9384ZM5.07113 29.4984C5.03687 28.1287 5.05769 27.1624 5.12359 27.0696C5.26074 26.876 6.23501 26.9405 6.71122 27.1747C7.37569 27.5014 7.51283 27.8441 7.55882 29.2929C7.59626 30.4711 7.57395 30.6643 7.34359 31.1556C7.09581 31.6844 7.06599 31.7064 6.50567 31.7763C6.18619 31.8161 5.74549 31.8316 5.52639 31.8108L5.12803 31.773L5.07113 29.4984ZM5.04848 37.829C5.02787 36.1687 5.05826 35.0091 5.12473 34.9154C5.30365 34.6634 6.57931 34.8134 7.06576 35.1436C7.69665 35.5717 7.83266 36.088 7.78565 37.8753C7.72544 40.1687 7.43236 40.5656 5.78828 40.5806L5.08262 40.587L5.04848 37.829Z" fill="white"/>
<path d="M14.4269 24.0053C14.3233 24.1087 14.291 25.9593 14.2932 31.6535C14.2958 38.4981 14.3145 39.2462 14.503 40.0752C14.757 41.1927 15.0716 41.8234 15.72 42.5162C16.7159 43.58 17.966 43.9955 20.1768 43.9975C21.4636 43.9986 21.8038 43.9589 22.5276 43.7228C23.4921 43.4082 24.096 43.0523 24.5968 42.5033C25.0735 41.9807 25.5525 41.0877 25.6858 40.4732C25.7469 40.1918 25.8433 39.7567 25.9001 39.5065C25.9569 39.2563 26.0056 35.693 26.0084 31.5878C26.0126 25.3739 25.9871 24.1023 25.8562 23.9938C25.7477 23.9038 25.0688 23.8731 23.6652 23.8945L21.6314 23.9256L21.5745 31.6024C21.5246 38.3384 21.4952 39.3284 21.3343 39.6817C21.0405 40.3264 20.8289 40.4732 20.1931 40.4732C19.4441 40.4732 19.2138 40.3331 18.9492 39.7166C18.739 39.2264 18.7291 38.8654 18.7291 31.6725C18.7291 25.9669 18.696 24.1086 18.5925 24.0053C18.4006 23.8135 14.6187 23.8135 14.4269 24.0053Z" fill="white"/>
<path d="M29.7066 0.201508C28.7451 0.449324 28.522 0.561688 27.9294 1.09667C26.9271 2.0015 26.5119 3.54446 26.7698 5.40644C26.8541 6.015 26.9746 6.56431 27.0373 6.62698C27.1001 6.68976 27.1516 6.82521 27.1516 6.92802C27.1516 7.03083 27.4022 7.46834 27.7086 7.9004C28.2491 8.66273 28.8373 9.23035 30.2725 10.3749C32.0833 11.8191 32.8508 12.7324 33.1875 13.844C33.6152 15.2562 33.3455 17.0508 32.5832 17.8634C31.6634 18.844 29.76 18.6405 29.0104 17.4813C28.7295 17.047 28.6866 16.8594 28.6502 15.9077C28.6275 15.3135 28.5565 14.7634 28.4923 14.6851C28.4171 14.5934 28.059 14.543 27.4831 14.543C26.3928 14.543 26.3168 14.6299 26.4144 15.7642C26.4827 16.5583 26.9081 18.0686 27.0636 18.0686C27.1119 18.0686 27.1516 18.1465 27.1516 18.2417C27.1516 18.5723 28.3672 19.6309 29.0326 19.8796C29.3799 20.0095 29.7482 20.1157 29.8509 20.1157C29.9536 20.1157 30.2072 20.177 30.4144 20.2519C30.8966 20.4261 32.302 20.2134 33.1283 19.8413C33.7858 19.5452 34.5828 18.7825 34.9178 18.1284C35.4521 17.0856 35.6168 14.9608 35.2855 13.3869C34.9683 11.88 33.9899 10.4937 32.3871 9.28017C29.9396 7.42706 29.2008 6.59843 28.9209 5.39256C28.6948 4.41801 28.6984 3.81582 28.9347 3.17382C29.1857 2.49167 29.4517 2.21178 30.075 1.97386C31.0295 1.60959 32.3344 1.98273 32.7878 2.74961C32.9329 2.99515 33.007 3.38092 33.0295 4.00848C33.0473 4.50616 33.1021 4.95106 33.1513 4.99712C33.2004 5.0433 33.6383 5.10323 34.1243 5.13053C34.7806 5.16726 35.0411 5.14008 35.1368 5.02476C35.3598 4.75636 35.1806 2.97525 34.8572 2.24442C34.0888 0.508461 31.8941 -0.362134 29.7066 0.201508Z" fill="white"/>
</svg>
