<svg width="72" height="72" viewBox="0 0 72 72" fill="none" xmlns="http://www.w3.org/2000/svg">
<path d="M2.40021 0.719727C1.95466 0.719771 1.52738 0.896785 1.21232 1.21184C0.897273 1.52689 0.720259 1.95418 0.720215 2.39973V22.5597H4.08021V4.07973H20.8802V0.719727H2.40021ZM51.1202 0.719727V4.07973H67.9202V22.5597H71.2802V2.39973C71.2802 1.95418 71.1032 1.52689 70.7881 1.21184C70.4731 0.896785 70.0458 0.719771 69.6002 0.719727H51.1202ZM37.5949 14.1597C32.4713 14.1597 28.6331 16.2186 26.6093 19.3113C24.7913 22.0895 24.6775 25.5573 25.7627 28.8039C25.2784 29.5045 24.9322 30.3688 25.0704 31.5372C25.2272 32.8671 25.5842 33.8702 26.1663 34.6249C26.4001 34.928 26.748 34.933 27.0424 35.1302C27.2485 36.1734 27.5175 37.2158 27.9415 38.0768C28.2072 38.6164 28.4924 39.1006 28.8012 39.5238C28.8792 39.6308 29.0282 39.7117 29.1063 39.8125C29.1142 40.895 29.1223 41.8555 29.0407 42.9724C28.7834 43.5828 28.2494 44.1165 27.1835 44.695C26.0668 45.3012 24.5354 45.8744 22.9441 46.6244C21.3529 47.3744 19.6755 48.3195 18.3176 49.8269C16.9596 51.3343 15.9995 53.4195 15.8435 56.0613C15.8301 56.2898 15.8635 56.5186 15.9417 56.7337C16.02 56.9488 16.1413 57.1456 16.2983 57.3121C16.4553 57.4787 16.6447 57.6114 16.8548 57.7021C17.0649 57.7928 17.2913 57.8396 17.5202 57.8397H54.4802C54.7091 57.8396 54.9355 57.7928 55.1456 57.7021C55.3558 57.6114 55.5451 57.4787 55.7021 57.3121C55.8591 57.1456 55.9805 56.9488 56.0587 56.7337C56.1369 56.5186 56.1703 56.2898 56.1569 56.0613C55.9996 53.3967 54.9705 51.2895 53.5319 49.7875C52.0933 48.2856 50.3226 47.3541 48.6396 46.608C46.9565 45.8619 45.3326 45.2893 44.1443 44.6786C43.008 44.0946 42.4458 43.5497 42.1985 42.9691C42.117 41.8516 42.1282 40.8903 42.1362 39.806C42.2136 39.704 42.3644 39.6217 42.4413 39.5139C42.7451 39.0883 43.0199 38.5997 43.278 38.0603C43.6896 37.2003 43.9499 36.1647 44.1508 35.1302C44.4436 34.9332 44.791 34.9299 45.0237 34.6282C45.6053 33.8736 45.9595 32.8663 46.1163 31.5372C46.2166 30.6887 46.1282 29.9099 45.8374 29.2272C45.7744 29.0795 45.5543 29.0214 45.4699 28.8794C45.7444 28.1692 46.1225 27.5186 46.2049 26.6777C46.3391 25.3079 46.2526 23.7821 45.8604 22.2808C45.4681 20.7795 44.7639 19.2837 43.5602 18.1136C42.6047 17.1848 41.2513 16.6334 39.7474 16.3943L39.101 15.0916C38.9616 14.8114 38.7468 14.5758 38.4807 14.4111C38.2146 14.2465 37.9078 14.1594 37.5949 14.1597ZM36.6499 17.71L37.0929 18.6025C37.2322 18.8827 37.4471 19.1184 37.7132 19.283C37.9793 19.4477 38.286 19.5347 38.599 19.5344C39.8391 19.5344 40.5861 19.9084 41.2174 20.5221C41.8487 21.1358 42.3306 22.0666 42.6087 23.1307C42.8867 24.1947 42.9568 25.3745 42.8613 26.3496C42.7658 27.3246 42.4287 28.1063 42.3461 28.2133C42.2057 28.3963 42.1045 28.6062 42.0487 28.8301C41.993 29.0539 41.9839 29.2868 42.022 29.5143C42.0602 29.7417 42.1448 29.9589 42.2706 30.1523C42.3963 30.3456 42.5606 30.511 42.753 30.6382C42.7746 30.7107 42.8152 30.8394 42.7793 31.1435C42.6714 32.0575 42.4484 32.4557 42.3658 32.5643C42.017 32.636 41.7 32.8167 41.4605 33.0803C41.2211 33.344 41.0716 33.6769 41.0336 34.031C40.9518 34.8056 40.6257 35.8236 40.2494 36.61C40.0613 37.0033 39.8588 37.3458 39.7047 37.5616C39.5507 37.7774 39.3642 37.853 39.6522 37.6994C39.3835 37.8428 39.1588 38.0566 39.0022 38.3178C38.8456 38.579 38.7629 38.8779 38.763 39.1825C38.763 40.6397 38.7025 41.8695 38.8582 43.6155C38.872 43.7625 38.9051 43.907 38.9566 44.0453C39.61 45.831 41.1027 46.8939 42.6087 47.6679C44.1146 48.4418 45.7616 49.007 47.2779 49.6793C48.7942 50.3515 50.1501 51.1183 51.1038 52.1139C51.7092 52.746 52.1173 53.5435 52.413 54.4797H19.571C19.8546 53.5225 20.2444 52.7075 20.8146 52.0746C21.7068 51.0843 22.9596 50.3314 24.378 49.6628C25.7965 48.9943 27.353 48.4271 28.788 47.6482C30.2231 46.8692 31.6465 45.7915 32.2858 44.0421C32.336 43.9046 32.368 43.7612 32.381 43.6155C32.5366 41.8695 32.4794 40.6397 32.4794 39.1825C32.4793 38.8776 32.3961 38.5785 32.2389 38.3172C32.0816 38.0559 31.8563 37.8424 31.5869 37.6994C31.8673 37.8486 31.6773 37.7634 31.518 37.5452C31.3588 37.327 31.1504 36.9866 30.9569 36.5936C30.5699 35.8078 30.2361 34.7913 30.1563 34.031C30.1184 33.6769 29.9689 33.344 29.7294 33.0803C29.49 32.8167 29.173 32.636 28.8241 32.5643C28.742 32.4562 28.5153 32.0584 28.4074 31.1435C28.3709 30.8346 28.4473 30.6654 28.4927 30.5988C28.805 30.3736 29.0304 30.048 29.1314 29.6765C29.2323 29.305 29.2026 28.9101 29.0472 28.5578C27.8915 25.94 28.0687 23.2158 29.4213 21.1488C30.6504 19.2705 33.0575 17.9614 36.6499 17.71ZM0.720215 52.7997V69.5997C0.720259 70.0453 0.897273 70.4726 1.21232 70.7876C1.52738 71.1027 1.95466 71.2797 2.40021 71.2797H20.8802V67.9197H4.08021V52.7997H0.720215ZM67.9202 52.7997V67.9197H51.1202V71.2797H69.6002C70.0458 71.2797 70.4731 71.1027 70.7881 70.7876C71.1032 70.4726 71.2802 70.0453 71.2802 69.5997V52.7997H67.9202Z" fill="url(#paint0_linear_63_4)"/>
<defs>
<linearGradient id="paint0_linear_63_4" x1="0.720215" y1="35.9997" x2="71.2802" y2="35.9997" gradientUnits="userSpaceOnUse">
<stop stop-color="#BF9455"/>
<stop offset="1" stop-color="#F5F2AA"/>
</linearGradient>
</defs>
</svg>
