<svg width="80" height="80" viewBox="0 0 80 80" fill="none" xmlns="http://www.w3.org/2000/svg">
<path d="M57.3226 0.679578C56.7517 0.784578 56.2726 1.18489 56.0626 1.72958L54.4876 5.61458C49.8348 3.5802 44.6964 2.40552 39.3151 2.35958C39.092 2.31364 38.8557 2.31364 38.6326 2.35958C38.6129 2.35958 38.5998 2.35958 38.5801 2.35958C17.6457 2.5827 0.668555 19.5074 0.360118 40.4221C0.23543 40.7765 0.23543 41.1702 0.360118 41.5246C0.642305 62.6033 17.8557 79.6396 39.0001 79.6396C60.3217 79.6396 77.6401 62.3211 77.6401 40.9996C77.6401 35.5002 76.4589 30.2502 74.3851 25.5121L78.2701 23.9371C78.6901 23.773 79.0248 23.4449 79.2085 23.0315C79.3857 22.618 79.3857 22.1521 79.2151 21.7321C75.1332 11.8818 67.4026 4.57114 58.2676 0.784578C58.0182 0.68614 57.7492 0.653328 57.4801 0.679578C57.4276 0.679578 57.3751 0.679578 57.3226 0.679578ZM58.4776 4.72208C65.6701 8.10833 71.6617 13.844 75.2776 21.5221L72.2851 22.7821C72.2654 22.7821 72.2523 22.7821 72.2326 22.7821C71.6748 22.7165 71.1236 22.933 70.7626 23.3596C70.7626 23.3793 70.7626 23.3924 70.7626 23.4121L46.6126 33.3871L56.7451 8.92208C56.7648 8.88927 56.7845 8.84989 56.7976 8.81708C56.8895 8.6727 56.9617 8.5152 57.0076 8.34458C57.0536 8.24614 57.0864 8.13458 57.1126 8.02958L58.4776 4.72208ZM37.1626 5.77208C37.2151 5.77208 37.2676 5.77208 37.3201 5.77208V39.3196H3.77262C4.61262 21.194 19.0567 6.69083 37.1626 5.77208ZM40.6801 5.77208C45.1164 5.97552 49.3164 6.96645 53.1751 8.65958L41.9401 35.8546C41.6711 36.4846 41.8089 37.2196 42.2945 37.7052C42.7801 38.1908 43.5151 38.3286 44.1451 38.0596L71.3401 26.8246C73.2367 31.1624 74.2801 35.9596 74.2801 40.9996C74.2801 50.1346 70.7757 58.4165 65.0926 64.6771L40.6801 40.2646V5.77208ZM3.77262 42.6796H38.2651L62.6776 67.0921C56.417 72.7752 48.1351 76.2796 39.0001 76.2796C20.0542 76.2796 4.63887 61.409 3.77262 42.6796Z" fill="url(#paint0_linear_31_1094)"/>
<defs>
<linearGradient id="paint0_linear_31_1094" x1="0.266602" y1="40.1552" x2="79.3423" y2="40.1552" gradientUnits="userSpaceOnUse">
<stop stop-color="#BF9455"/>
<stop offset="1" stop-color="#F5F2AA"/>
</linearGradient>
</defs>
</svg>
