<svg width="84" height="84" viewBox="0 0 84 84" fill="none" xmlns="http://www.w3.org/2000/svg">
<path d="M41.8424 3.30788C41.7702 3.32101 41.698 3.3407 41.6324 3.36038C41.4093 3.40632 41.1927 3.49163 41.0024 3.62288L4.46242 16.9054C3.7996 17.1482 3.35992 17.7782 3.35992 18.4804V63.4204C3.23523 63.8732 3.30742 64.3588 3.55679 64.7591C3.80617 65.1594 4.20648 65.4351 4.67242 65.5204H4.72492C4.77742 65.5401 4.82992 65.5598 4.88242 65.5729L41.4749 80.4829C41.8949 80.6601 42.3674 80.6601 42.7874 80.4829L79.5899 65.4154C79.6424 65.4023 79.6949 65.3826 79.7474 65.3629C79.9049 65.2776 80.0427 65.1726 80.1674 65.0479C80.1871 65.0479 80.2002 65.0479 80.2199 65.0479C80.6793 64.6016 80.8434 63.9257 80.6399 63.3154V18.4804C80.6399 17.7782 80.2002 17.1482 79.5374 16.9054L42.9449 3.62288C42.9121 3.6032 42.8727 3.58351 42.8399 3.57038L42.7874 3.51788C42.7218 3.4982 42.6496 3.47851 42.5774 3.46538C42.5446 3.4457 42.5052 3.42601 42.4724 3.41288C42.4527 3.41288 42.4396 3.41288 42.4199 3.41288C42.3871 3.3932 42.3477 3.37351 42.3149 3.36038C42.164 3.32101 41.9999 3.30132 41.8424 3.30788ZM40.3199 7.45538V49.2454L6.71992 61.4254V19.6354L40.3199 7.45538ZM43.6799 7.45538L77.2799 19.6354V61.4254L68.8799 58.3804V29.0854C68.8799 28.3832 68.4402 27.7532 67.7774 27.5104L52.6574 21.9454C52.3884 21.8404 52.0996 21.801 51.8174 21.8404C50.9905 21.9716 50.3868 22.6869 50.3999 23.5204V51.6604L43.6799 49.2454V7.45538ZM31.7099 21.8404C31.5655 21.8601 31.4277 21.8929 31.2899 21.9454L16.1699 27.9829C15.5268 28.2388 15.1134 28.8688 15.1199 29.5579V46.3579C15.1134 46.9223 15.389 47.4473 15.8549 47.7623C16.3209 48.0773 16.9115 48.1429 17.4299 47.9329L32.5499 42.0004C33.193 41.7444 33.6065 41.1144 33.5999 40.4254V23.5204C33.6065 23.0348 33.3965 22.5754 33.0355 22.2538C32.6746 21.9323 32.189 21.7813 31.7099 21.8404ZM53.7599 25.9354L65.5199 30.2404V57.1729L53.7599 52.9204V25.9354ZM30.2399 25.9879V39.2704L18.4799 43.9429V30.6604L30.2399 25.9879ZM41.9999 52.1854L74.2874 63.8929L42.1049 77.0704L9.76492 63.8929L41.9999 52.1854Z" fill="url(#paint0_linear_31_1097)"/>
<defs>
<linearGradient id="paint0_linear_31_1097" x1="3.30005" y1="41.9612" x2="80.726" y2="41.9612" gradientUnits="userSpaceOnUse">
<stop stop-color="#BF9455"/>
<stop offset="1" stop-color="#F5F2AA"/>
</linearGradient>
</defs>
</svg>
