<svg width="84" height="84" viewBox="0 0 84 84" fill="none" xmlns="http://www.w3.org/2000/svg">
<path d="M28.1925 0C27.3197 0 26.9325 0.223126 26.25 0.4725C25.5675 0.721876 24.78 1.06969 23.835 1.47C21.945 2.26406 19.5825 3.31406 17.115 4.3575C14.6475 5.40094 12.0947 6.42469 9.87002 7.1925C7.64533 7.96031 5.67658 8.4 4.83002 8.4H1.68002C1.07627 8.39344 0.511895 8.70844 0.203457 9.23344C-0.0984181 9.75844 -0.0984181 10.4016 0.203457 10.9266C0.511895 11.4516 1.07627 11.7666 1.68002 11.76H4.83002C6.58221 11.76 8.56408 11.1497 10.92 10.3425C13.276 9.53531 15.9338 8.45906 18.4275 7.4025C20.9213 6.34594 23.3035 5.29594 25.1475 4.515C26.0728 4.12781 26.821 3.8325 27.405 3.6225C27.6938 3.5175 28.0153 3.45188 28.1925 3.4125C28.3435 3.45188 28.606 3.52406 28.875 3.6225C29.4131 3.81938 30.1416 4.10156 30.975 4.4625C32.6419 5.19094 34.6894 6.17531 36.75 7.1925C38.8106 8.20969 40.8778 9.24656 42.42 10.08C43.1944 10.5 43.8506 10.9069 44.31 11.1825C44.5397 11.3203 44.7235 11.4187 44.835 11.4975C44.7169 11.3728 44.986 11.7075 45.255 12.1275C45.5438 12.5672 45.9178 13.1578 46.3575 13.86C47.2369 15.2709 48.3197 17.0559 49.4025 18.8475C51.555 22.4044 53.6353 25.8431 53.655 25.8825V25.935C53.7403 26.1122 53.7863 26.6044 53.655 27.0375C53.5172 27.4903 53.3269 27.7659 53.025 27.8775C52.9856 27.8906 52.4278 27.93 51.9225 27.7725C51.4172 27.615 50.9513 27.2934 50.8725 27.195C50.8725 27.195 48.6085 24.3666 46.305 21.525C45.1566 20.1075 43.9885 18.6834 43.1025 17.5875C42.6628 17.0362 42.3216 16.5572 42.0525 16.2225C41.7835 15.8878 41.4816 15.5334 41.6325 15.75C41.37 15.3825 41.2585 15.3431 41.16 15.2775C41.0616 15.2119 40.9697 15.1594 40.8975 15.12C40.7531 15.0478 40.6285 14.9756 40.4775 14.91C40.1756 14.7787 39.8147 14.6541 39.375 14.49C38.4956 14.1553 37.3735 13.7287 36.225 13.335C35.0766 12.9412 33.9019 12.5737 32.97 12.285C32.5041 12.1406 32.1038 12.0094 31.7625 11.9175C31.4213 11.8256 31.3688 11.76 30.7125 11.76C30.5747 11.76 28.8028 11.6353 27.09 12.285C25.3772 12.9347 23.52 14.7984 23.52 17.64C23.52 20.1206 25.2788 21.8137 26.8275 22.575C28.3763 23.3362 29.5772 23.52 30.45 23.52C31.126 23.52 32.3728 23.3953 34.02 23.3625C35.6672 23.3297 37.5506 23.4019 38.6925 23.625C40.9894 24.0778 44.4281 25.9875 46.3575 27.3525C47.8144 28.3762 48.0178 29.6034 47.7225 30.45C47.4272 31.2966 46.6331 32.0841 44.4675 31.8675C44.0344 31.8216 41.7966 31.4212 39.585 31.0275C37.3735 30.6337 35.1553 30.24 33.6525 30.24C32.1038 30.24 29.8594 30.66 27.1425 31.08C24.4256 31.5 21.4135 31.92 19.2675 31.92C15.7566 31.92 14.0044 30.6009 11.655 28.9275C9.30564 27.2541 6.38533 25.2525 1.68002 25.2525C1.07627 25.2459 0.511895 25.5609 0.203457 26.0859C-0.0984181 26.6109 -0.0984181 27.2541 0.203457 27.7791C0.511895 28.3041 1.07627 28.6191 1.68002 28.6125C5.51252 28.6125 7.39596 30.0037 9.71252 31.6575C12.0291 33.3112 14.8247 35.28 19.2675 35.28C21.8138 35.28 24.8588 34.86 27.615 34.44C30.3713 34.02 32.9372 33.6 33.6525 33.6C34.3678 33.6 36.5663 33.9216 38.64 34.2825V38.64C38.6335 39.2897 39.001 39.8803 39.585 40.1625L42.945 41.8425C43.1747 41.9475 43.4241 42.0066 43.68 42V53.76C43.6669 54.2062 43.8375 54.6459 44.1525 54.9675L45.8325 56.6475C46.1541 56.9625 46.5938 57.1331 47.04 57.12H50.4C50.8463 57.1331 51.286 56.9625 51.6075 56.6475L53.2875 54.9675C53.6025 54.6459 53.7731 54.2062 53.76 53.76V42C54.016 42.0066 54.2653 41.9475 54.495 41.8425L57.855 40.1625C58.4391 39.8803 58.8066 39.2897 58.8 38.64V30.24C58.8131 29.7937 58.6425 29.3541 58.3275 29.0325L56.9625 27.6675C57.2381 26.5191 57.1594 25.3444 56.5425 24.255C56.5425 24.2353 56.5425 24.2222 56.5425 24.2025C56.5425 24.2025 54.4622 20.7047 52.29 17.115C51.2072 15.3169 50.085 13.5056 49.1925 12.075C48.7463 11.3597 48.3985 10.7691 48.09 10.29C47.7816 9.81094 47.67 9.59438 47.3025 9.1875C47.0006 8.85281 46.8694 8.84625 46.6725 8.715C46.4756 8.58375 46.2525 8.4 45.99 8.2425C45.465 7.93406 44.7891 7.57313 43.995 7.14C42.4003 6.28031 40.366 5.23688 38.2725 4.2C36.1791 3.16313 34.0331 2.12625 32.2875 1.365C31.4147 0.984376 30.6338 0.65625 29.9775 0.42C29.3213 0.18375 29.0194 0 28.1925 0ZM30.5025 15.12C30.5681 15.1266 30.7388 15.1397 30.87 15.1725C31.1391 15.2447 31.5328 15.3497 31.9725 15.4875C32.8585 15.7566 34.0003 16.1569 35.1225 16.5375C36.2447 16.9181 37.3472 17.3316 38.1675 17.64C38.581 17.7975 38.896 17.9156 39.1125 18.0075C39.165 18.0337 39.1847 18.0469 39.2175 18.06C39.2831 18.1388 39.316 18.1847 39.4275 18.3225C39.7031 18.6637 40.0838 19.1362 40.53 19.6875C40.8647 20.1075 41.3372 20.7178 41.7375 21.21C40.9369 20.9081 40.1756 20.475 39.375 20.3175C37.7081 19.9894 35.7131 19.9697 33.9675 20.0025C32.2219 20.0353 30.5091 20.16 30.45 20.16C30.5878 20.16 29.2031 19.9762 28.2975 19.53C27.3919 19.0837 26.88 18.6769 26.88 17.64C26.88 15.9928 27.4313 15.7631 28.2975 15.435C29.0785 15.1397 29.9119 15.12 30.5025 15.12ZM55.02 30.555L55.44 30.975V37.59L53.34 38.64H52.08C51.1547 38.64 50.4 39.3947 50.4 40.32V53.025L49.665 53.76H47.775L47.04 53.025V40.32C47.04 39.3947 46.2853 38.64 45.36 38.64H44.1L42 37.59V34.9125C42.886 35.0766 43.6406 35.175 44.1525 35.2275C45.0581 35.3194 45.8916 35.2472 46.6725 35.07C47.1319 35.7066 47.88 36.12 48.72 36.12C50.1113 36.12 51.24 34.9912 51.24 33.6C51.24 32.9963 51.0169 32.4581 50.6625 32.025C50.7413 31.8609 50.866 31.7231 50.925 31.5525C50.9906 31.3622 50.8791 31.1653 50.925 30.975C51.9225 31.29 52.9856 31.4409 54.1275 31.0275C54.4556 30.9094 54.7444 30.7387 55.02 30.555ZM64.4175 55.545C62.1666 55.6894 60.211 56.2997 58.3275 57.0675C54.5606 58.6031 50.7347 60.5325 42.63 60.5325C41.3044 60.5325 40.1822 60.6572 39.165 60.8475C38.7385 60.6769 36.2775 59.6466 33.285 58.5375C31.6575 57.9337 29.9513 57.3234 28.455 56.8575C26.9588 56.3916 25.8891 56.0175 24.7275 56.0175C23.4281 56.0175 21.9778 56.3653 20.7375 57.225C19.7728 57.8944 18.9066 58.9837 18.585 60.3225C18.1256 60.2109 17.6531 60.1125 17.115 60.1125C16.0256 60.1125 14.8378 60.4866 13.755 61.32C12.6722 62.1534 11.76 63.6169 11.76 65.415C11.76 66.8325 12.1275 68.1712 12.9675 69.1425C13.8075 70.1137 14.91 70.6453 16.17 71.19C17.3513 71.7019 24.7866 74.8584 32.34 77.91C36.12 79.4391 39.9263 80.9353 42.9975 82.0575C44.5331 82.6219 45.8391 83.0878 46.935 83.4225C48.031 83.7572 48.7463 84 49.665 84C50.8069 84 51.7453 83.6259 53.235 83.16C54.7247 82.6941 56.5294 82.0706 58.3275 81.4275C61.9238 80.1347 65.6841 78.7566 67.0425 78.33C72.1481 76.7156 75.9675 79.6425 75.9675 79.6425C76.7091 80.2069 77.7656 80.0691 78.33 79.3275C78.8944 78.5859 78.7566 77.5294 78.015 76.965C78.015 76.965 72.7191 73.0013 65.9925 75.1275C64.3256 75.6525 60.7294 76.9978 57.1725 78.2775C55.3941 78.9141 53.6419 79.5178 52.2375 79.9575C50.8331 80.3972 49.5863 80.64 49.665 80.64C49.8225 80.64 48.93 80.5284 47.9325 80.22C46.935 79.9116 45.6553 79.4587 44.1525 78.9075C41.1469 77.8116 37.3603 76.3284 33.6 74.8125C26.086 71.7741 18.5981 68.5716 17.4825 68.0925C16.3735 67.6134 15.8025 67.2394 15.54 66.9375C15.2775 66.6356 15.12 66.3403 15.12 65.415C15.12 64.6341 15.3825 64.3191 15.8025 63.9975C16.2225 63.6759 16.8853 63.4725 17.115 63.4725C17.3119 63.4725 18.0141 63.6431 18.585 63.7875C19.1297 63.9253 19.5431 64.0369 19.5825 64.05H19.635L34.335 69.09C34.9388 70.1203 35.8706 70.9078 36.9075 71.3475C38.6531 72.0891 40.6613 72.24 42.6825 72.24H52.08C56.6213 72.24 62.475 70.4025 62.475 70.4025C63.1116 70.2909 63.6235 69.825 63.8006 69.2016C63.9778 68.5781 63.781 67.9153 63.2953 67.4887C62.8097 67.0622 62.1272 66.9506 61.53 67.2C61.53 67.2 55.6435 68.88 52.08 68.88H42.6825C40.8647 68.88 39.1847 68.6634 38.22 68.25C37.2553 67.8366 37.0125 67.6659 37.0125 66.675C37.0125 65.73 37.1503 65.3034 37.8 64.8375C38.115 64.6144 38.6138 64.3847 39.375 64.2075C39.3947 64.2075 39.4078 64.2075 39.4275 64.2075C40.2216 64.0303 41.2913 63.8925 42.63 63.8925C51.2925 63.8925 55.9847 61.635 59.5875 60.165C63.1903 58.695 65.4675 57.9141 71.19 60.1125C75.1078 61.6219 81.69 64.365 81.69 64.365C82.2544 64.6603 82.9435 64.6144 83.4619 64.2403C83.9803 63.8597 84.2363 63.2231 84.1313 62.5931C84.0197 61.9631 83.5669 61.4512 82.95 61.2675C82.95 61.2675 76.4269 58.5112 72.3975 56.9625C69.2213 55.7419 66.6685 55.4006 64.4175 55.545ZM24.7275 59.3775C24.8128 59.3775 26.0597 59.6269 27.4575 60.06C28.8553 60.4931 30.5353 61.0969 32.13 61.6875C33.6722 62.2584 33.961 62.4028 35.07 62.8425C34.4138 63.5775 34.0069 64.4569 33.81 65.3625L21.8925 61.2675C21.9581 60.6834 22.1944 60.3487 22.68 60.0075C23.2378 59.6203 24.1172 59.3775 24.7275 59.3775Z" fill="url(#paint0_linear_31_1090)"/>
<defs>
<linearGradient id="paint0_linear_31_1090" x1="-0.0229492" y1="42" x2="84.1545" y2="42" gradientUnits="userSpaceOnUse">
<stop stop-color="#BF9455"/>
<stop offset="1" stop-color="#F5F2AA"/>
</linearGradient>
</defs>
</svg>
