<svg width="84" height="84" viewBox="0 0 84 84" fill="none" xmlns="http://www.w3.org/2000/svg">
<path d="M6.72004 10.0801V20.0124C6.65705 20.3187 5.04004 28.2009 5.04004 32.7601C5.04004 35.0841 5.47813 37.2997 6.70363 39.0699C6.70849 39.0769 6.71515 39.0826 6.72004 39.0896V80.6401H50.4H68.88H77.28V39.0896C77.2849 39.0826 77.2916 39.0769 77.2964 39.0699C78.5219 37.2997 78.96 35.0841 78.96 32.7601C78.96 28.2009 77.343 20.3187 77.28 20.0124V10.0801H6.72004ZM10.08 13.4401H73.92V18.4801H65.8022C65.6208 18.4501 65.4357 18.4501 65.2543 18.4801H54.0422C53.8608 18.4501 53.6757 18.4501 53.4943 18.4801H42.2822C42.1008 18.4501 41.9157 18.4501 41.7343 18.4801H30.5222C30.3408 18.4501 30.1557 18.4501 29.9743 18.4801H18.7622C18.5808 18.4501 18.3957 18.4501 18.2143 18.4801H10.08V13.4401ZM9.86676 21.8401H16.8V36.7074C15.7513 37.8127 14.2275 38.6401 12.6 38.6401C10.948 38.6401 10.1309 38.1201 9.46644 37.1602C8.80195 36.2004 8.40004 34.6361 8.40004 32.7601C8.40004 29.4214 9.57939 23.3666 9.86676 21.8401ZM20.16 21.8401H28.56V36.7074C27.5113 37.8127 25.9875 38.6401 24.36 38.6401C22.7325 38.6401 21.2088 37.8127 20.16 36.7074V21.8401ZM31.92 21.8401H40.32V36.7074C39.2713 37.8127 37.7475 38.6401 36.12 38.6401C34.4925 38.6401 32.9688 37.8127 31.92 36.7074V21.8401ZM43.68 21.8401H52.08V36.7074C51.0313 37.8127 49.5075 38.6401 47.88 38.6401C46.2525 38.6401 44.7288 37.8127 43.68 36.7074V21.8401ZM55.44 21.8401H63.84V36.7074C62.7913 37.8127 61.2675 38.6401 59.64 38.6401C58.0125 38.6401 56.4888 37.8127 55.44 36.7074V21.8401ZM67.2 21.8401H74.1333C74.4207 23.3666 75.6 29.4214 75.6 32.7601C75.6 34.6361 75.1981 36.2004 74.5336 37.1602C73.8691 38.1201 73.052 38.6401 71.4 38.6401C69.7725 38.6401 68.2487 37.8127 67.2 36.7074V21.8401ZM18.48 39.572C20.0866 40.9651 22.0593 42.0001 24.36 42.0001C26.6607 42.0001 28.6334 40.9651 30.24 39.572C31.8466 40.9651 33.8193 42.0001 36.12 42.0001C38.4207 42.0001 40.3934 40.9651 42 39.572C43.6066 40.9651 45.5793 42.0001 47.88 42.0001C50.1807 42.0001 52.1534 40.9651 53.76 39.572C55.3666 40.9651 57.3393 42.0001 59.64 42.0001C61.9407 42.0001 63.9134 40.9651 65.52 39.572C67.1266 40.9651 69.0993 42.0001 71.4 42.0001C72.3018 42.0001 73.1457 41.8496 73.92 41.5834V77.2801H68.88V47.0401H50.4V48.7201V77.2801H10.08V41.5834C10.8544 41.8496 11.6983 42.0001 12.6 42.0001C14.9007 42.0001 16.8734 40.9651 18.48 39.572ZM15.12 47.0401V48.7201V72.2401H45.36V47.0401H15.12ZM18.48 50.4001H42V68.8801H18.48V50.4001ZM53.76 50.4001H65.52V77.2801H53.76V50.4001Z" fill="url(#paint0_linear_31_1091)"/>
<defs>
<linearGradient id="paint0_linear_31_1091" x1="5.04004" y1="45.3601" x2="78.96" y2="45.3601" gradientUnits="userSpaceOnUse">
<stop stop-color="#BF9455"/>
<stop offset="1" stop-color="#F5F2AA"/>
</linearGradient>
</defs>
</svg>
