<svg width="19" height="18" viewBox="0 0 19 18" fill="none" xmlns="http://www.w3.org/2000/svg">
<path d="M3.28711 17.3071C4.2832 17.3071 6.76514 16.2197 8.17627 15.207C8.31738 15.1074 8.43359 15.0659 8.5498 15.0659C8.65771 15.0742 8.76562 15.0825 8.87354 15.0825C14.8584 15.0825 18.8262 11.6792 18.8262 7.54541C18.8262 3.37012 14.6426 0 9.41309 0C4.18359 0 0 3.37012 0 7.54541C0 10.2017 1.63525 12.5342 4.2998 13.9619C4.42432 14.0283 4.46582 14.1528 4.39941 14.2773C3.93457 15.041 3.10449 15.9541 2.78906 16.3691C2.46533 16.7842 2.64795 17.3071 3.28711 17.3071Z" fill="#FBF5F6"/>
</svg>
