<svg width="24" height="25" viewBox="0 0 24 25" fill="none" xmlns="http://www.w3.org/2000/svg">
<path d="M19.5001 2.5H14.0001C13.2046 2.5 12.4416 2.816 11.8791 3.3785L2.87911 12.3785C1.70761 13.55 1.70761 15.4495 2.87911 16.621L7.87911 21.621C8.46461 22.207 9.23261 22.5 10.0001 22.5C10.7676 22.5 11.5356 22.207 12.1211 21.6215L21.1211 12.6215C21.6841 12.0585 22.0001 11.2955 22.0001 10.4995V5C22.0001 3.6195 20.8806 2.5 19.5001 2.5ZM17.0001 9C16.1716 9 15.5001 8.3285 15.5001 7.5C15.5001 6.6715 16.1716 6 17.0001 6C17.8286 6 18.5001 6.6715 18.5001 7.5C18.5001 8.3285 17.8286 9 17.0001 9Z" fill="#BF9455"/>
</svg>
