<svg width="916" height="843" viewBox="0 0 916 843" fill="none" xmlns="http://www.w3.org/2000/svg">
<g style="mix-blend-mode:color-dodge" opacity="0.23">
<path fill-rule="evenodd" clip-rule="evenodd" d="M0.869631 1.70464C1.59843 3.1329 88.4937 164.348 271.497 503.793C290.174 538.437 305.591 566.77 305.757 566.756C306.213 566.718 401.116 413.215 401.337 412.157C401.443 411.65 364.304 341.426 318.805 256.106C273.305 170.785 224.008 78.3261 209.255 50.6425L182.431 0.308721L0 0L0.869631 1.70464ZM550.866 335.105C449.849 519.41 366.593 671.33 365.852 672.705L364.506 675.205L409.543 758.73C434.313 804.669 454.879 842.589 455.245 842.996C455.926 843.754 515.053 735.731 848.874 123.855C911.719 8.6629 916 0.789476 916 0.383756C916 0.174489 875.17 0.00366794 825.267 0.00366794H734.534L550.866 335.105Z" fill="url(#paint0_linear_229_1441)"/>
</g>
<defs>
<linearGradient id="paint0_linear_229_1441" x1="0" y1="421.5" x2="916" y2="421.5" gradientUnits="userSpaceOnUse">
<stop stop-color="#BF9455"/>
<stop offset="1" stop-color="#F5F2AA"/>
</linearGradient>
</defs>
</svg>
