<svg width="969" height="1053" viewBox="0 0 969 1053" fill="none" xmlns="http://www.w3.org/2000/svg">
<g style="mix-blend-mode:color-dodge">
<path fill-rule="evenodd" clip-rule="evenodd" d="M-166.921 2.12928C-166.016 3.91334 -58.1557 205.289 169.001 629.294C192.184 672.567 211.32 707.958 211.525 707.941C212.092 707.893 329.892 516.151 330.167 514.829C330.298 514.196 284.198 426.479 227.722 319.904C171.245 213.329 110.054 97.8379 91.7414 63.2581L58.4453 0.385627L-168 0L-166.921 2.12928ZM515.772 418.583C390.382 648.801 287.039 838.566 286.12 840.283L284.449 843.405L340.352 947.738C371.099 1005.12 396.626 1052.49 397.081 1053C397.925 1053.94 471.318 919.009 885.679 154.709C963.687 10.8209 969 0.986143 969 0.479353C969 0.217956 918.319 0.00458166 856.376 0.00458166H743.752L515.772 418.583Z" fill="url(#paint0_linear_31_856)"/>
</g>
<defs>
<linearGradient id="paint0_linear_31_856" x1="-168" y1="526.5" x2="969" y2="526.5" gradientUnits="userSpaceOnUse">
<stop stop-color="#BF9455"/>
<stop offset="1" stop-color="#F5F2AA"/>
</linearGradient>
</defs>
</svg>
