<svg width="225" height="385" viewBox="0 0 225 385" fill="none" xmlns="http://www.w3.org/2000/svg">
<path fill-rule="evenodd" clip-rule="evenodd" d="M0.396841 0.778513C0.729416 1.4308 40.3825 75.0581 123.893 230.084C132.416 245.905 139.451 258.845 139.526 258.839C139.735 258.821 183.042 188.716 183.143 188.233C183.191 188.001 166.243 155.93 145.481 116.964C124.718 77.9977 102.222 35.7717 95.4898 23.1285L83.249 0.140994L0 0L0.396841 0.778513ZM251.378 153.043C205.28 237.216 167.288 306.598 166.95 307.226L166.336 308.367L186.888 346.514C198.191 367.494 207.576 384.812 207.743 384.998C208.054 385.344 235.035 336.01 387.368 56.565C416.047 3.95637 418 0.360556 418 0.175262C418 0.0796896 399.368 0.00167515 376.596 0.00167515H335.191L251.378 153.043Z" fill="url(#paint0_linear_31_913)"/>
<defs>
<linearGradient id="paint0_linear_31_913" x1="0" y1="192.5" x2="418" y2="192.5" gradientUnits="userSpaceOnUse">
<stop stop-color="#BF9455"/>
<stop offset="1" stop-color="#F5F2AA"/>
</linearGradient>
</defs>
</svg>
