<svg width="18" height="19" viewBox="0 0 18 19" fill="none" xmlns="http://www.w3.org/2000/svg">
<path d="M17 5.5H15C14.4475 5.5 14 5.0525 14 4.5V1.5C14 0.9475 14.4475 0.5 15 0.5H16C17.1045 0.5 18 1.3955 18 2.5V4.5C18 5.0525 17.5525 5.5 17 5.5ZM1 5.5H3C3.5525 5.5 4 5.0525 4 4.5V1.5C4 0.9475 3.5525 0.5 3 0.5H1.5C0.3955 0.5 0 1.3955 0 2.5V4.5C0 5.0525 0.4475 5.5 1 5.5ZM17 13.5H15C14.4475 13.5 14 13.9475 14 14.5V17.5C14 18.0525 14.4475 18.5 15 18.5H16C17.1045 18.5 18 17.6045 18 16.5V14.5C18 13.9475 17.5525 13.5 17 13.5ZM1 13.5H3C3.5525 13.5 4 13.9475 4 14.5V17.5C4 18.0525 3.5525 18.5 3 18.5H2C0.8955 18.5 0 17.6045 0 16.5V14.5C0 13.9475 0.4475 13.5 1 13.5ZM7.25 12H1C0.4475 12 0 11.5525 0 11V8C0 7.4475 0.4475 7 1 7H7.25C7.8025 7 8.25 7.4475 8.25 8V11C8.25 11.5525 7.8025 12 7.25 12ZM17 12H10.75C10.1975 12 9.75 11.5525 9.75 11V8C9.75 7.4475 10.1975 7 10.75 7H17C17.5525 7 18 7.4475 18 8V11C18 11.5525 17.5525 12 17 12ZM11.5 5.5H6.5C5.9475 5.5 5.5 5.0525 5.5 4.5V1.5C5.5 0.9475 5.9475 0.5 6.5 0.5H11.5C12.0525 0.5 12.5 0.9475 12.5 1.5V4.5C12.5 5.0525 12.0525 5.5 11.5 5.5ZM11.5 18.5H6.5C5.9475 18.5 5.5 18.0525 5.5 17.5V14.5C5.5 13.9475 5.9475 13.5 6.5 13.5H11.5C12.0525 13.5 12.5 13.9475 12.5 14.5V17.5C12.5 18.0525 12.0525 18.5 11.5 18.5Z" fill="#BF9455"/>
</svg>
